0
SECTION
2
HEADER
9
$INSUNITS
70
4
9
$ACADVER
1
AC1014
9
$HANDSEED
5
FFFF
0
ENDSEC
0
SECTION
2
TABLES
0
TABLE
2
VPORT
5
8
100
AcDbSymbolTable
0
ENDTAB
0
TABLE
2
LTYPE
5
5
100
AcDbSymbolTable
0
LTYPE
5
14
100
AcDbSymbolTableRecord
100
AcDbLinetypeTableRecord
2
BYBLOCK
70
0
0
LTYPE
5
15
100
AcDbSymbolTableRecord
100
AcDbLinetypeTableRecord
2
BYLAYER
70
0
0
ENDTAB
0
TABLE
2
LAYER
5
2
100
AcDbSymbolTable
70
2
0
LAYER
5
50
100
AcDbSymbolTableRecord
100
AcDbLayerTableRecord
2
0
70
0
6
CONTINUOUS
0
ENDTAB
0
TABLE
2
STYLE
5
3
100
AcDbSymbolTable
70
1
0
STYLE
5
11
100
AcDbSymbolTableRecord
100
AcDbTextStyleTableRecord
2
STANDARD
70
0
0
ENDTAB
0
TABLE
2
VIEW
5
6
100
AcDbSymbolTable
70
0
0
ENDTAB
0
TABLE
2
UCS
5
7
100
AcDbSymbolTable
70
0
0
ENDTAB
0
TABLE
2
APPID
5
9
100
AcDbSymbolTable
70
2
0
APPID
5
12
100
AcDbSymbolTableRecord
100
AcDbRegAppTableRecord
2
ACAD
70
0
0
ENDTAB
0
TABLE
2
DIMSTYLE
5
A
100
AcDbSymbolTable
70
1
0
ENDTAB
0
TABLE
2
BLOCK_RECORD
5
1
100
AcDbSymbolTable
70
1
0
BLOCK_RECORD
5
1F
100
AcDbSymbolTableRecord
100
AcDbBlockTableRecord
2
*MODEL_SPACE
0
BLOCK_RECORD
5
1B
100
AcDbSymbolTableRecord
100
AcDbBlockTableRecord
2
*PAPER_SPACE
0
ENDTAB
0
ENDSEC
0
SECTION
2
BLOCKS
0
BLOCK
5
20
100
AcDbEntity
100
AcDbBlockBegin
2
*MODEL_SPACE
0
ENDBLK
5
21
100
AcDbEntity
100
AcDbBlockEnd
0
BLOCK
5
1C
100
AcDbEntity
100
AcDbBlockBegin
2
*PAPER_SPACE
0
ENDBLK
5
1D
100
AcDbEntity
100
AcDbBlockEnd
0
ENDSEC
0
SECTION
2
ENTITIES
0
SPLINE
5
100
100
AcDbEntity
8
0
100
AcDbSpline
70
4
71
3
72
8
73
4
74
0
42
0.000000001
43
0.0000000001
44
0.0000000001
40
0
40
0
40
0
40
0
40
1
40
1
40
1
40
1
41
1
41
1
41
1
41
1
10
119.38098158785694
20
-72.483625521041716
30
0
10
119.38786916686512
20
-72.748108466040605
30
0
10
119.51873308599619
20
-72.993306476673595
30
0
10
119.73224812696239
20
-73.148965683748258
30
0
0
SPLINE
5
101
100
AcDbEntity
8
0
100
AcDbSpline
70
4
71
3
72
8
73
4
74
0
42
0.000000001
43
0.0000000001
44
0.0000000001
40
0
40
0
40
0
40
0
40
1
40
1
40
1
40
1
41
1
41
1
41
1
41
1
10
139.02573513754109
20
-85.992923470782046
30
0
10
139.45276503867532
20
-85.359266187661376
30
0
10
139.28608572581271
20
-84.496941138883443
30
0
10
138.65105064529848
20
-84.06991139325865
30
0
0
LINE
5
102
100
AcDbEntity
8
0
100
AcDbLine
10
138.65105064529848
20
-84.069911393258622
30
0
11
138.64554058189489
21
-84.06577867755216
31
0
0
SPLINE
5
103
100
AcDbEntity
8
0
100
AcDbSpline
70
4
71
3
72
8
73
4
74
0
42
0.000000001
43
0.0000000001
44
0.0000000001
40
0
40
0
40
0
40
0
40
1
40
1
40
1
40
1
41
1
41
1
41
1
41
1
10
124.75053837467584
20
-107.82103964413605
30
0
10
125.38419574794928
20
-108.24944698451596
30
0
10
126.24652046041962
20
-108.08139021886009
30
0
10
126.67492805820291
20
-107.44635515936511
30
0
0
SPLINE
5
104
100
AcDbEntity
8
0
100
AcDbSpline
70
4
71
3
72
8
73
4
74
0
42
0.000000001
43
0.0000000001
44
0.0000000001
40
0
40
0
40
0
40
0
40
1
40
1
40
1
40
1
41
1
41
1
41
1
41
1
10
126.67492805820291
20
-107.44635515936511
30
0
10
126.67492805820291
20
-107.44497772759111
30
0
10
126.67630540590002
20
-107.44360029581711
30
0
10
126.67768292175091
20
-107.44222286404309
30
0
0
SPLINE
5
105
100
AcDbEntity
8
0
100
AcDbSpline
70
4
71
3
72
8
73
4
74
0
42
0.000000001
43
0.0000000001
44
0.0000000001
40
0
40
0
40
0
40
0
40
1
40
1
40
1
40
1
41
1
41
1
41
1
41
1
10
110.46156645330557
20
-99.562832118003897
30
0
10
110.24805158886801
20
-99.499466298094006
30
0
10
110.029026463479
20
-99.455385790865236
30
0
10
109.80724649556122
20
-99.43334553725083
30
0
0
SPLINE
5
106
100
AcDbEntity
8
0
100
AcDbSpline
70
4
71
3
72
8
73
4
74
0
42
0.000000001
43
0.0000000001
44
0.0000000001
40
0
40
0
40
0
40
0
40
1
40
1
40
1
40
1
41
1
41
1
41
1
41
1
10
72.79752805804246
20
-94.51836907200537
30
0
10
72.891199135205667
20
-94.612040065091662
30
0
10
73.017930603997968
20
-94.665763267353611
30
0
10
73.150172125684236
20
-94.665763267353611
30
0
0
SPLINE
5
107
100
AcDbEntity
8
0
100
AcDbSpline
70
4
71
3
72
8
73
4
74
0
42
0.000000001
43
0.0000000001
44
0.0000000001
40
0
40
0
40
0
40
0
40
1
40
1
40
1
40
1
41
1
41
1
41
1
41
1
10
119.38235910371711
20
-21.942568951565491
30
0
10
119.38235910371711
20
-21.667065866201604
30
0
10
119.15920153443466
20
-21.442530698428222
30
0
10
118.88369838527413
20
-21.442530698428222
30
0
0
SPLINE
5
108
100
AcDbEntity
8
0
100
AcDbSpline
70
4
71
3
72
8
73
4
74
0
42
0.000000001
43
0.0000000001
44
0.0000000001
40
0
40
0
40
0
40
0
40
1
40
1
40
1
40
1
41
1
41
1
41
1
41
1
10
62.258154282810956
20
-80.066850280249383
30
0
10
62.164483115741305
20
-79.973179027460702
30
0
10
62.037751667968237
20
-79.920833603789958
30
0
10
61.904132714507952
20
-79.920833603789958
30
0
0
SPLINE
5
109
100
AcDbEntity
8
0
100
AcDbSpline
70
4
71
3
72
8
73
4
74
0
42
0.000000001
43
0.0000000001
44
0.0000000001
40
0
40
0
40
0
40
0
40
1
40
1
40
1
40
1
41
1
41
1
41
1
41
1
10
6.4260593300346631
20
-79.420795346172312
30
0
10
6.4260593300346631
20
-79.697675858794355
30
0
10
6.6492169025192629
20
-79.920833594793734
30
0
10
6.9260975044730069
20
-79.920833594793734
30
0
0
SPLINE
5
110
100
AcDbEntity
8
0
100
AcDbSpline
70
4
71
3
72
8
73
4
74
0
42
0.000000001
43
0.0000000001
44
0.0000000001
40
0
40
0
40
0
40
0
40
1
40
1
40
1
40
1
41
1
41
1
41
1
41
1
10
6.9260975839174623
20
-23.69201408220491
30
0
10
6.6492168957931108
20
-23.69201408220491
30
0
10
6.4260591597937298
20
-23.916549163581891
30
0
10
6.4260591597937298
20
-24.192052354780856
30
0
0
SPLINE
5
111
100
AcDbEntity
8
0
100
AcDbSpline
70
4
71
3
72
8
73
4
74
0
42
0.000000001
43
0.0000000001
44
0.0000000001
40
0
40
0
40
0
40
0
40
1
40
1
40
1
40
1
41
1
41
1
41
1
41
1
10
43.911020664706029
20
-23.69201408220491
30
0
10
44.187901434156714
20
-23.69201408220491
30
0
10
44.411058812829289
20
-23.468856596116716
30
0
10
44.411058812829289
20
-23.191975636836162
30
0
0
SPLINE
5
112
100
AcDbEntity
8
0
100
AcDbSpline
70
4
71
3
72
8
73
4
74
0
42
0.000000001
43
0.0000000001
44
0.0000000001
40
0
40
0
40
0
40
0
40
1
40
1
40
1
40
1
41
1
41
1
41
1
41
1
10
44.911097172441515
20
-18.943716944162755
30
0
10
44.635593996409135
20
-18.943716944162755
30
0
10
44.411058828635745
20
-19.168251941524424
30
0
10
44.411058828635745
20
-19.443755090684945
30
0
0
SPLINE
5
113
100
AcDbEntity
8
0
100
AcDbSpline
70
4
71
3
72
8
73
4
74
0
42
0.000000001
43
0.0000000001
44
0.0000000001
40
0
40
0
40
0
40
0
40
1
40
1
40
1
40
1
41
1
41
1
41
1
41
1
10
62.904209216878456
20
-18.943716944162755
30
0
10
63.179712567320109
20
-18.943716944162755
30
0
10
63.404247398785913
20
-18.720559374059242
30
0
10
63.404247398785913
20
-18.443678793124722
30
0
0
SPLINE
5
114
100
AcDbEntity
8
0
100
AcDbSpline
70
4
71
3
72
8
73
4
74
0
42
0.000000001
43
0.0000000001
44
0.0000000001
40
0
40
0
40
0
40
0
40
1
40
1
40
1
40
1
41
1
41
1
41
1
41
1
10
63.904285724641483
20
-16.694233559632167
30
0
10
63.627405121332984
20
-16.694233559632167
30
0
10
63.404247385333591
20
-16.918768642630756
30
0
10
63.404247385333591
20
-17.19427183382972
30
0
0
SPLINE
5
115
100
AcDbEntity
8
0
100
AcDbSpline
70
4
71
3
72
8
73
4
74
0
42
0.000000001
43
0.0000000001
44
0.0000000001
40
0
40
0
40
0
40
0
40
1
40
1
40
1
40
1
41
1
41
1
41
1
41
1
10
81.39735951519495
20
-17.194271813508269
30
0
10
81.39735951519495
20
-16.918768633516819
30
0
10
81.174201857353111
20
-16.694233465743437
30
0
10
80.897321255399362
20
-16.694233465743437
30
0
0
SPLINE
5
116
100
AcDbEntity
8
0
100
AcDbSpline
70
4
71
3
72
8
73
4
74
0
42
0.000000001
43
0.0000000001
44
0.0000000001
40
0
40
0
40
0
40
0
40
1
40
1
40
1
40
1
41
1
41
1
41
1
41
1
10
81.39735951519495
20
-18.44367869029211
30
0
10
81.39735951519495
20
-18.720559372545861
30
0
10
81.620516993044276
20
-18.943716772237661
30
0
10
81.897397931305591
20
-18.943716772237661
30
0
0
SPLINE
5
117
100
AcDbEntity
8
0
100
AcDbSpline
70
4
71
3
72
8
73
4
74
0
42
0.000000001
43
0.0000000001
44
0.0000000001
40
0
40
0
40
0
40
0
40
1
40
1
40
1
40
1
41
1
41
1
41
1
41
1
10
100.39054806739814
20
-19.443755198033404
30
0
10
100.39054806739814
20
-19.168251943037809
30
0
10
100.16601299051646
20
-18.943716775264427
30
0
10
99.890509799317499
20
-18.943716775264427
30
0
0
SPLINE
5
118
100
AcDbEntity
8
0
100
AcDbSpline
70
4
71
3
72
8
73
4
74
0
42
0.000000001
43
0.0000000001
44
0.0000000001
40
0
40
0
40
0
40
0
40
1
40
1
40
1
40
1
41
1
41
1
41
1
41
1
10
100.39054806739814
20
-20.943869959675094
30
0
10
100.39054806739814
20
-21.219372959402069
30
0
10
100.61370553696243
20
-21.442530695401452
30
0
10
100.88920870714217
20
-21.442530695401452
30
0
0
SPLINE
5
119
100
AcDbEntity
8
0
100
AcDbSpline
70
4
71
3
72
8
73
4
74
0
42
0.000000001
43
0.0000000001
44
0.0000000001
40
0
40
0
40
0
40
0
40
1
40
1
40
1
40
1
41
1
41
1
41
1
41
1
10
26.018467277362301
20
-42.431739717834759
30
0
10
26.018467277362301
20
-43.039224022705497
30
0
10
25.526694112002431
20
-43.530997433707
30
0
10
24.919209705832994
20
-43.530997433707
30
0
0
SPLINE
5
120
100
AcDbEntity
8
0
100
AcDbSpline
70
4
71
3
72
8
73
4
74
0
42
0.000000001
43
0.0000000001
44
0.0000000001
40
0
40
0
40
0
40
0
40
1
40
1
40
1
40
1
41
1
41
1
41
1
41
1
10
24.919209705832994
20
-43.530997433707
30
0
10
24.311725383740459
20
-43.530997433707
30
0
10
23.818574540964931
20
-43.039224022705497
30
0
10
23.818574540964931
20
-42.431739717834759
30
0
0
SPLINE
5
121
100
AcDbEntity
8
0
100
AcDbSpline
70
4
71
3
72
8
73
4
74
0
42
0.000000001
43
0.0000000001
44
0.0000000001
40
0
40
0
40
0
40
0
40
1
40
1
40
1
40
1
41
1
41
1
41
1
41
1
10
23.818574540964931
20
-42.431739717834759
30
0
10
23.818574540964931
20
-41.824255210366623
30
0
10
24.311725383740459
20
-41.332482135672677
30
0
10
24.919209705832994
20
-41.332482135672677
30
0
0
SPLINE
5
122
100
AcDbEntity
8
0
100
AcDbSpline
70
4
71
3
72
8
73
4
74
0
42
0.000000001
43
0.0000000001
44
0.0000000001
40
0
40
0
40
0
40
0
40
1
40
1
40
1
40
1
41
1
41
1
41
1
41
1
10
24.919209705832994
20
-41.332482135672677
30
0
10
25.526694112002431
20
-41.332482135672677
30
0
10
26.018467277362301
20
-41.824255210366623
30
0
10
26.018467277362301
20
-42.431739717834759
30
0
0
SPLINE
5
123
100
AcDbEntity
8
0
100
AcDbSpline
70
4
71
3
72
8
73
4
74
0
42
0.000000001
43
0.0000000001
44
0.0000000001
40
0
40
0
40
0
40
0
40
1
40
1
40
1
40
1
41
1
41
1
41
1
41
1
10
24.919209628333867
20
-60.074962736146198
30
0
10
25.525316702693772
20
-60.074962736146198
30
0
10
26.018467209161717
20
-60.5667357334857
30
0
10
26.018467209161717
20
-61.174220475962713
30
0
0
SPLINE
5
124
100
AcDbEntity
8
0
100
AcDbSpline
70
4
71
3
72
8
73
4
74
0
42
0.000000001
43
0.0000000001
44
0.0000000001
40
0
40
0
40
0
40
0
40
1
40
1
40
1
40
1
41
1
41
1
41
1
41
1
10
26.018467209161717
20
-61.174220475962713
30
0
10
26.018467209161717
20
-61.781704882132154
30
0
10
25.525316702693772
20
-62.274855388600095
30
0
10
24.919209628333867
20
-62.274855388600095
30
0
0
SPLINE
5
125
100
AcDbEntity
8
0
100
AcDbSpline
70
4
71
3
72
8
73
4
74
0
42
0.000000001
43
0.0000000001
44
0.0000000001
40
0
40
0
40
0
40
0
40
1
40
1
40
1
40
1
41
1
41
1
41
1
41
1
10
24.919209628333867
20
-62.274855388600095
30
0
10
24.311724943782881
20
-62.274855388600095
30
0
10
23.818574479353384
20
-61.781704882132154
30
0
10
23.818574479353384
20
-61.174220475962713
30
0
0
SPLINE
5
126
100
AcDbEntity
8
0
100
AcDbSpline
70
4
71
3
72
8
73
4
74
0
42
0.000000001
43
0.0000000001
44
0.0000000001
40
0
40
0
40
0
40
0
40
1
40
1
40
1
40
1
41
1
41
1
41
1
41
1
10
23.818574479353384
20
-61.174220475962713
30
0
10
23.818574479353384
20
-60.5667357334857
30
0
10
24.311724943782881
20
-60.074962736146198
30
0
10
24.919209628333867
20
-60.074962736146198
30
0
0
SPLINE
5
127
100
AcDbEntity
8
0
100
AcDbSpline
70
4
71
3
72
8
73
4
74
0
42
0.000000001
43
0.0000000001
44
0.0000000001
40
0
40
0
40
0
40
0
40
1
40
1
40
1
40
1
41
1
41
1
41
1
41
1
10
100.89058632128094
20
-37.584261438509245
30
0
10
101.49669348493148
20
-37.584261438509245
30
0
10
101.98984399139944
20
-38.076034673228442
30
0
10
101.98984399139944
20
-38.683519121436326
30
0
0
SPLINE
5
128
100
AcDbEntity
8
0
100
AcDbSpline
70
4
71
3
72
8
73
4
74
0
42
0.000000001
43
0.0000000001
44
0.0000000001
40
0
40
0
40
0
40
0
40
1
40
1
40
1
40
1
41
1
41
1
41
1
41
1
10
101.98984399139944
20
-38.683519121436326
30
0
10
101.98984399139944
20
-39.291003443528865
30
0
10
101.49669348493148
20
-39.782776602299698
30
0
10
100.89058632128094
20
-39.782776602299698
30
0
0
SPLINE
5
129
100
AcDbEntity
8
0
100
AcDbSpline
70
4
71
3
72
8
73
4
74
0
42
0.000000001
43
0.0000000001
44
0.0000000001
40
0
40
0
40
0
40
0
40
1
40
1
40
1
40
1
41
1
41
1
41
1
41
1
10
100.89058632128094
20
-39.782776602299698
30
0
10
100.2831017260206
20
-39.782776602299698
30
0
10
99.789951261591114
20
-39.291003443528865
30
0
10
99.789951261591114
20
-38.683519121436326
30
0
0
SPLINE
5
130
100
AcDbEntity
8
0
100
AcDbSpline
70
4
71
3
72
8
73
4
74
0
42
0.000000001
43
0.0000000001
44
0.0000000001
40
0
40
0
40
0
40
0
40
1
40
1
40
1
40
1
41
1
41
1
41
1
41
1
10
99.789951261591114
20
-38.683519121436326
30
0
10
99.789951261591114
20
-38.076034673228442
30
0
10
100.2831017260206
20
-37.584261438509245
30
0
10
100.89058632128094
20
-37.584261438509245
30
0
0
SPLINE
5
131
100
AcDbEntity
8
0
100
AcDbSpline
70
4
71
3
72
8
73
4
74
0
42
0.000000001
43
0.0000000001
44
0.0000000001
40
0
40
0
40
0
40
0
40
1
40
1
40
1
40
1
41
1
41
1
41
1
41
1
10
68.152544608800824
20
-77.318706157682286
30
0
10
68.760029020286652
20
-77.318706157682286
30
0
10
69.25180247332662
20
-77.811856725032101
30
0
10
69.25180247332662
20
-78.417963741465968
30
0
0
SPLINE
5
132
100
AcDbEntity
8
0
100
AcDbSpline
70
4
71
3
72
8
73
4
74
0
42
0.000000001
43
0.0000000001
44
0.0000000001
40
0
40
0
40
0
40
0
40
1
40
1
40
1
40
1
41
1
41
1
41
1
41
1
10
69.25180247332662
20
-78.417963741465968
30
0
10
69.25180247332662
20
-79.025448147635402
30
0
10
68.760029020286652
20
-79.518598990410936
30
0
10
68.152544608800824
20
-79.518598990410936
30
0
0
SPLINE
5
133
100
AcDbEntity
8
0
100
AcDbSpline
70
4
71
3
72
8
73
4
74
0
42
0.000000001
43
0.0000000001
44
0.0000000001
40
0
40
0
40
0
40
0
40
1
40
1
40
1
40
1
41
1
41
1
41
1
41
1
10
68.152544608800824
20
-79.518598990410936
30
0
10
67.545060207947785
20
-79.518598990410936
30
0
10
67.053287175292283
20
-79.025448147635402
30
0
10
67.053287175292283
20
-78.417963741465968
30
0
0
SPLINE
5
134
100
AcDbEntity
8
0
100
AcDbSpline
70
4
71
3
72
8
73
4
74
0
42
0.000000001
43
0.0000000001
44
0.0000000001
40
0
40
0
40
0
40
0
40
1
40
1
40
1
40
1
41
1
41
1
41
1
41
1
10
67.053287175292283
20
-78.417963741465968
30
0
10
67.053287175292283
20
-77.811856725032101
30
0
10
67.545060207947785
20
-77.318706157682286
30
0
10
68.152544608800824
20
-77.318706157682286
30
0
0
SPLINE
5
135
100
AcDbEntity
8
0
100
AcDbSpline
70
4
71
3
72
8
73
4
74
0
42
0.000000001
43
0.0000000001
44
0.0000000001
40
0
40
0
40
0
40
0
40
1
40
1
40
1
40
1
41
1
41
1
41
1
41
1
10
114.63543948152963
20
-85.065855303147714
30
0
10
115.24154645908615
20
-85.065855303147714
30
0
10
115.73469734390014
20
-85.557628462657505
30
0
10
115.73469734390014
20
-86.165112826788501
30
0
0
SPLINE
5
136
100
AcDbEntity
8
0
100
AcDbSpline
70
4
71
3
72
8
73
4
74
0
42
0.000000001
43
0.0000000001
44
0.0000000001
40
0
40
0
40
0
40
0
40
1
40
1
40
1
40
1
41
1
41
1
41
1
41
1
10
115.73469734390014
20
-86.165112826788501
30
0
10
115.73469734390014
20
-86.772597317034837
30
0
10
115.24154645908615
20
-87.264370643959452
30
0
10
114.63543948152963
20
-87.264370643959452
30
0
0
SPLINE
5
137
100
AcDbEntity
8
0
100
AcDbSpline
70
4
71
3
72
8
73
4
74
0
42
0.000000001
43
0.0000000001
44
0.0000000001
40
0
40
0
40
0
40
0
40
1
40
1
40
1
40
1
41
1
41
1
41
1
41
1
10
114.63543948152963
20
-87.264370643959452
30
0
10
114.0279550785213
20
-87.264370643959452
30
0
10
113.53480419370732
20
-86.772597317034837
30
0
10
113.53480419370732
20
-86.165112826788501
30
0
0
SPLINE
5
138
100
AcDbEntity
8
0
100
AcDbSpline
70
4
71
3
72
8
73
4
74
0
42
0.000000001
43
0.0000000001
44
0.0000000001
40
0
40
0
40
0
40
0
40
1
40
1
40
1
40
1
41
1
41
1
41
1
41
1
10
113.53480419370732
20
-86.165112826788501
30
0
10
113.53480419370732
20
-85.557628462657505
30
0
10
114.0279550785213
20
-85.065855303147714
30
0
10
114.63543948152963
20
-85.065855303147714
30
0
0
LWPOLYLINE
5
139
100
AcDbEntity
8
0
100
AcDbPolyline
90
4
70
1
43
0.0
10
8.4344774406429384
20
-39.807571677490891
10
22.428660969922873
20
-39.807571677490891
10
22.428660969922873
20
-25.813388148210951
10
8.4344774406429384
20
-25.813388148210954
0
LWPOLYLINE
5
140
100
AcDbEntity
8
0
100
AcDbPolyline
90
4
70
1
43
0.0
10
8.4344774406429384
20
-58.800760229682218
10
22.428660969922873
20
-58.800760229682218
10
22.428660969922873
20
-44.805199184551384
10
8.4344774406429384
20
-44.805199184551384
0
LWPOLYLINE
5
141
100
AcDbEntity
8
0
100
AcDbPolyline
90
4
70
1
43
0.0
10
8.4344774406429384
20
-77.792571266022648
10
22.428660969922873
20
-77.792571266022648
10
22.428660969922873
20
-63.798387736742718
10
8.4344774406429384
20
-63.798387736742718
0
LWPOLYLINE
5
142
100
AcDbEntity
8
0
100
AcDbPolyline
90
4
70
1
43
0.0
10
27.424910961132476
20
-39.806194161639986
10
41.419094490412405
20
-39.806194161639986
10
41.419094490412405
20
-25.812010632360053
10
27.424910961132476
20
-25.81201063236005
0
LWPOLYLINE
5
143
100
AcDbEntity
8
0
100
AcDbPolyline
90
4
70
1
43
0.0
10
27.424910961132476
20
-58.799382713831321
10
41.419094490412405
20
-58.799382713831321
10
41.419094490412405
20
-44.805199184551384
10
27.424910961132476
20
-44.805199184551384
0
LWPOLYLINE
5
144
100
AcDbEntity
8
0
100
AcDbPolyline
90
4
70
1
43
0.0
10
27.424910961132476
20
-77.792571266022648
10
41.419094490412405
20
-77.792571266022648
10
41.419094490412405
20
-63.798387736742718
10
27.424910961132476
20
-63.798387736742718
0
LWPOLYLINE
5
145
100
AcDbEntity
8
0
100
AcDbPolyline
90
4
70
1
43
0.0
10
46.418099513323803
20
-35.063407086995745
10
60.412283042603732
20
-35.063407086995745
10
60.412283042603732
20
-21.069223557715816
10
46.418099513323803
20
-21.069223557715809
0
LWPOLYLINE
5
146
100
AcDbEntity
8
0
100
AcDbPolyline
90
4
70
1
43
0.0
10
46.418099513323803
20
-54.05659563918708
10
60.412283042603732
20
-54.05659563918708
10
60.412283042603732
20
-40.061034594056252
10
46.418099513323803
20
-40.061034594056252
0
LWPOLYLINE
5
147
100
AcDbEntity
8
0
100
AcDbPolyline
90
4
70
1
43
0.0
10
46.418099513323803
20
-73.049784191378407
10
60.412283042603732
20
-73.049784191378407
10
60.412283042603732
20
-59.05422314624758
10
46.418099513323803
20
-59.05422314624758
0
LWPOLYLINE
5
148
100
AcDbEntity
8
0
100
AcDbPolyline
90
4
70
1
43
0.0
10
65.412665581366042
20
-32.685814728344589
10
79.406849110645965
20
-32.685814728344589
10
79.406849110645965
20
-18.691631199064652
10
65.412665581366042
20
-18.691631199064652
0
LWPOLYLINE
5
149
100
AcDbEntity
8
0
100
AcDbPolyline
90
4
70
1
43
0.0
10
65.412665581366042
20
-51.679003280535916
10
79.406849110645965
20
-51.679003280535916
10
79.406849110645965
20
-37.683442235405089
10
65.412665581366042
20
-37.683442235405089
0
LWPOLYLINE
5
150
100
AcDbEntity
8
0
100
AcDbPolyline
90
4
70
1
43
0.0
10
65.412665581366042
20
-70.670814316876346
10
79.406849110645965
20
-70.670814316876346
10
79.406849110645965
20
-56.676630787596416
10
65.412665581366042
20
-56.676630787596416
0
LWPOLYLINE
5
151
100
AcDbEntity
8
0
100
AcDbPolyline
90
4
70
1
43
0.0
10
84.405854133557369
20
-35.059274539443052
10
98.401415178688211
20
-35.059274539443052
10
98.401415178688211
20
-21.065091010163115
10
84.405854133557369
20
-21.065091010163115
0
LWPOLYLINE
5
152
100
AcDbEntity
8
0
100
AcDbPolyline
90
4
70
1
43
0.0
10
84.405854133557369
20
-54.052463091634387
10
98.401415178688211
20
-54.052463091634387
10
98.401415178688211
20
-40.056902046503552
10
84.405854133557369
20
-40.056902046503559
0
LWPOLYLINE
5
153
100
AcDbEntity
8
0
100
AcDbPolyline
90
4
70
1
43
0.0
10
84.405854133557369
20
-73.045651643825721
10
98.401415178688211
20
-73.045651643825721
10
98.401415178688211
20
-59.050090598694887
10
84.405854133557369
20
-59.050090598694887
0
LWPOLYLINE
5
154
100
AcDbEntity
8
0
100
AcDbPolyline
90
4
70
1
43
0.0
10
103.40042020159959
20
-37.443754477348712
10
117.39598124673043
20
-37.443754477348712
10
117.39598124673043
20
-23.448193432217877
10
103.40042020159959
20
-23.448193432217881
0
LWPOLYLINE
5
155
100
AcDbEntity
8
0
100
AcDbPolyline
90
4
70
1
43
0.0
10
103.40042020159959
20
-56.436943029540039
10
117.39598124673043
20
-56.436943029540039
10
117.39598124673043
20
-42.441381984409212
10
103.40042020159959
20
-42.441381984409212
0
LWPOLYLINE
5
156
100
AcDbEntity
8
0
100
AcDbPolyline
90
4
70
1
43
0.0
10
103.40042020159959
20
-75.428754065880469
10
117.39598124673043
20
-75.428754065880469
10
117.39598124673043
20
-61.434570536600539
10
103.40042020159959
20
-61.434570536600539
0
LWPOLYLINE
5
157
100
AcDbEntity
8
0
100
AcDbPolyline
90
4
70
1
43
0.0
10
74.928545079374288
20
-92.695915256895745
10
88.922728608654211
20
-92.695915256895745
10
88.922728608654211
20
-78.700354211764903
10
74.928545079374288
20
-78.700354211764903
0
LWPOLYLINE
5
158
100
AcDbEntity
8
0
100
AcDbPolyline
90
4
70
1
43
0.0
10
94.310193260794293
20
-93.355745562560713
10
107.82913366222787
20
-96.977234865861448
10
111.45062299352688
20
-83.459671689704436
10
97.933059948657899
20
-79.83818251769172
0
LWPOLYLINE
5
159
100
AcDbEntity
8
0
100
AcDbPolyline
90
4
70
1
43
0.0
10
115.5721508240611
20
-94.707088562787845
10
127.69153471635127
20
-101.70486926615143
10
134.68793761436726
20
-89.585484629146492
10
122.56855349446803
20
-82.587704106581072
0
LINE
5
160
100
AcDbEntity
8
0
100
AcDbLine
10
62.258154282810956
20
-80.066850280249383
30
0
11
72.79752805804246
21
-94.51836907200537
31
0
0
LINE
5
161
100
AcDbEntity
8
0
100
AcDbLine
10
73.150172125684236
20
-94.665763267353611
30
0
11
109.80724649556122
21
-99.433345537250815
31
0
0
LINE
5
162
100
AcDbEntity
8
0
100
AcDbLine
10
110.46156645330557
20
-99.562832118003897
30
0
11
124.75053837467584
21
-107.82103964413605
31
0
0
LINE
5
163
100
AcDbEntity
8
0
100
AcDbLine
10
126.67492805820291
20
-107.44635515936511
30
0
11
139.02573513754109
21
-85.992923470782046
31
0
0
LINE
5
164
100
AcDbEntity
8
0
100
AcDbLine
10
138.64554058189489
20
-84.06577867755216
30
0
11
119.73224812696242
21
-73.148965683748258
31
0
0
LINE
5
165
100
AcDbEntity
8
0
100
AcDbLine
10
119.38098158785694
20
-72.483625521041716
30
0
11
119.38235910371711
21
-21.942568951565491
31
0
0
LINE
5
166
100
AcDbEntity
8
0
100
AcDbLine
10
6.4260593300346631
20
-79.420795346172312
30
0
11
6.4260591597937307
21
-24.192052354780856
31
0
0
LINE
5
167
100
AcDbEntity
8
0
100
AcDbLine
10
6.9260975839174623
20
-23.69201408220491
30
0
11
43.911020664706029
21
-23.69201408220491
31
0
0
LINE
5
168
100
AcDbEntity
8
0
100
AcDbLine
10
44.911097172441515
20
-18.943716944162755
30
0
11
62.904209216878456
21
-18.943716944162755
31
0
0
LINE
5
169
100
AcDbEntity
8
0
100
AcDbLine
10
63.904285724641483
20
-16.694233559632167
30
0
11
80.897321255399362
21
-16.694233465743437
31
0
0
LINE
5
170
100
AcDbEntity
8
0
100
AcDbLine
10
81.897397931305591
20
-18.943716772237661
30
0
11
99.890509799317499
21
-18.943716775264427
31
0
0
LINE
5
171
100
AcDbEntity
8
0
100
AcDbLine
10
100.88920870714216
20
-21.442530695401448
30
0
11
118.88369838527413
21
-21.442530698428225
31
0
0
LINE
5
172
100
AcDbEntity
8
0
100
AcDbLine
10
44.411058812829289
20
-23.191975636836165
30
0
11
44.411058828635745
21
-19.443755090684945
31
0
0
LINE
5
173
100
AcDbEntity
8
0
100
AcDbLine
10
63.404247398785913
20
-18.443678793124722
30
0
11
63.404247385333591
21
-17.19427183382972
31
0
0
LINE
5
174
100
AcDbEntity
8
0
100
AcDbLine
10
81.39735951519495
20
-18.44367869029211
30
0
11
81.39735951519495
21
-17.194271813508269
31
0
0
LINE
5
175
100
AcDbEntity
8
0
100
AcDbLine
10
100.39054806739814
20
-20.943869959675094
30
0
11
100.39054806739814
21
-19.443755198033404
31
0
0
LINE
5
176
100
AcDbEntity
8
0
100
AcDbLine
10
6.9260975044730069
20
-79.920833594793734
30
0
11
61.904132714507945
21
-79.920833603789958
31
0
0
LWPOLYLINE
5
177
100
AcDbEntity
8
0
100
AcDbPolyline
90
4
70
1
43
0.0
10
83.875202291030902
20
-141.88355526823915
10
69.881018761750994
20
-141.88355526823915
10
69.881018761750994
20
-127.88799422310836
10
83.875202291030902
20
-127.88799422310836
0
LWPOLYLINE
5
178
100
AcDbEntity
8
0
100
AcDbPolyline
90
4
70
1
43
0.0
10
69.881018761750994
20
-146.88118277529966
10
83.875202291030902
20
-146.88118277529966
10
83.875202291030902
20
-160.87536630457959
10
69.881018761750994
20
-160.87536630457959
0
LWPOLYLINE
5
179
100
AcDbEntity
8
0
100
AcDbPolyline
90
4
70
1
43
0.0
10
69.881018761750994
20
-108.89618318676796
10
83.875202291030902
20
-108.89618318676796
10
83.875202291030902
20
-122.89036671604788
10
69.881018761750994
20
-122.89036671604788
0
LINE
5
180
100
AcDbEntity
8
0
100
AcDbLine
10
85.383582147755476
20
-106.89878554733546
30
0
11
68.390546616997611
21
-106.89878545344672
31
0
0
LWPOLYLINE
5
181
100
AcDbEntity
8
0
100
AcDbPolyline
90
4
70
1
43
0.0
10
74.359322793022628
20
-182.90046724459893
10
60.365139263742748
20
-182.90046724459893
10
60.365139263742776
20
-168.90490619946809
10
74.359322793022656
20
-168.90490619946809
0
LWPOLYLINE
5
182
100
AcDbEntity
8
0
100
AcDbPolyline
90
4
70
1
43
0.0
10
21.596333156045713
20
-191.90942125385462
10
14.599930258029783
20
-179.79003661684968
10
26.719314377928978
20
-172.79225609428426
10
33.715717048335904
20
-184.91164055049103
0
SPLINE
5
183
100
AcDbEntity
8
0
100
AcDbSpline
70
4
71
3
72
8
73
4
74
0
42
0.000000001
43
0.0000000001
44
0.0000000001
40
0
40
0
40
0
40
0
40
1
40
1
40
1
40
1
41
1
41
1
41
1
41
1
10
48.397281551116066
20
-129.98732859000296
30
0
10
49.004766146376383
20
-129.98732859000296
30
0
10
49.497916610805873
20
-129.49555543123213
30
0
10
49.497916610805873
20
-128.88807110913959
30
0
0
LWPOLYLINE
5
184
100
AcDbEntity
8
0
100
AcDbPolyline
90
4
70
1
43
0.0
10
140.85339043175392
20
-116.01794013591427
10
140.85339043175392
20
-130.01212366519417
10
126.85920690247401
20
-130.01212366519417
10
126.85920690247401
20
-116.01794013591424
0
LWPOLYLINE
5
185
100
AcDbEntity
8
0
100
AcDbPolyline
90
4
70
1
43
0.0
10
54.977674611602666
20
-183.5602975502639
10
41.458734210169141
20
-187.18178685356463
10
37.837244878870123
20
-173.66422367740762
10
51.354807923739102
20
-170.04273450539495
0
LWPOLYLINE
5
186
100
AcDbEntity
8
0
100
AcDbPolyline
90
4
70
1
43
0.0
10
140.85339043175392
20
-149.00531221738547
10
126.85920690247401
20
-149.00531221738547
10
126.85920690247401
20
-135.00975117225465
10
140.85339043175392
20
-135.00975117225465
0
LINE
5
187
100
AcDbEntity
8
0
100
AcDbLine
10
10.636817227098536
20
-174.27446338096183
30
0
11
10.642327290502127
21
-174.27033066525536
31
0
0
SPLINE
5
188
100
AcDbEntity
8
0
100
AcDbSpline
70
4
71
3
72
8
73
4
74
0
42
0.000000001
43
0.0000000001
44
0.0000000001
40
0
40
0
40
0
40
0
40
1
40
1
40
1
40
1
41
1
41
1
41
1
41
1
10
35.753063678689671
20
-176.36966481449167
30
0
10
35.753063678689671
20
-175.76218045036072
30
0
10
35.259912793875699
20
-175.2704072908509
30
0
10
34.652428390867357
20
-175.2704072908509
30
0
0
LWPOLYLINE
5
189
100
AcDbEntity
8
0
100
AcDbPolyline
90
4
70
1
43
0.0
10
50.886452693708776
20
-149.25464258639812
10
64.882013738839618
20
-149.25464258639812
10
64.882013738839618
20
-163.25020363152896
10
50.886452693708776
20
-163.2502036315289
0
LWPOLYLINE
5
190
100
AcDbEntity
8
0
100
AcDbPolyline
90
4
70
1
43
0.0
10
121.8629569112644
20
-135.00975117225465
10
121.8629569112644
20
-149.00393470153458
10
107.86877338198452
20
-149.00393470153458
10
107.86877338198452
20
-135.00975117225465
0
LWPOLYLINE
5
191
100
AcDbEntity
8
0
100
AcDbPolyline
90
4
70
1
43
0.0
10
45.8874476707974
20
-127.64830646505197
10
31.89188662566659
20
-127.64830646505196
10
31.89188662566659
20
-113.65274541992115
10
45.8874476707974
20
-113.65274541992116
0
SPLINE
5
192
100
AcDbEntity
8
0
100
AcDbSpline
70
4
71
3
72
8
73
4
74
0
42
0.000000001
43
0.0000000001
44
0.0000000001
40
0
40
0
40
0
40
0
40
1
40
1
40
1
40
1
41
1
41
1
41
1
41
1
10
10.262132734855935
20
-176.19747545848523
30
0
10
9.8351028337217095
20
-175.56381817536453
30
0
10
10.00178214658435
20
-174.70149312658663
30
0
10
10.636817227098536
20
-174.27446338096183
30
0
0
SPLINE
5
193
100
AcDbEntity
8
0
100
AcDbSpline
70
4
71
3
72
8
73
4
74
0
42
0.000000001
43
0.0000000001
44
0.0000000001
40
0
40
0
40
0
40
0
40
1
40
1
40
1
40
1
41
1
41
1
41
1
41
1
10
22.612939814194082
20
-197.6509071470683
30
0
10
22.612939814194082
20
-197.64952971529425
30
0
10
22.611562466496959
20
-197.64815228352029
30
0
10
22.610184950646097
20
-197.64677485174622
30
0
0
SPLINE
5
194
100
AcDbEntity
8
0
100
AcDbSpline
70
4
71
3
72
8
73
4
74
0
42
0.000000001
43
0.0000000001
44
0.0000000001
40
0
40
0
40
0
40
0
40
1
40
1
40
1
40
1
41
1
41
1
41
1
41
1
10
142.36177028847939
20
-113.89656606990823
30
0
10
142.63865097660374
20
-113.89656606990823
30
0
10
142.86180871260311
20
-114.1211011512852
30
0
10
142.86180871260311
20
-114.39660434248417
30
0
0
SPLINE
5
195
100
AcDbEntity
8
0
100
AcDbSpline
70
4
71
3
72
8
73
4
74
0
42
0.000000001
43
0.0000000001
44
0.0000000001
40
0
40
0
40
0
40
0
40
1
40
1
40
1
40
1
41
1
41
1
41
1
41
1
10
124.36865824406303
20
-152.47940737630333
30
0
10
124.97614292861401
20
-152.47940737630333
30
0
10
125.4692933930435
20
-151.98625686983542
30
0
10
125.4692933930435
20
-151.37877246366597
30
0
0
SPLINE
5
196
100
AcDbEntity
8
0
100
AcDbSpline
70
4
71
3
72
8
73
4
74
0
42
0.000000001
43
0.0000000001
44
0.0000000001
40
0
40
0
40
0
40
0
40
1
40
1
40
1
40
1
41
1
41
1
41
1
41
1
10
49.497916610805873
20
-128.88807110913959
30
0
10
49.497916610805873
20
-128.2805866609317
30
0
10
49.004766146376383
20
-127.7888134262125
30
0
10
48.397281551116066
20
-127.7888134262125
30
0
0
SPLINE
5
197
100
AcDbEntity
8
0
100
AcDbSpline
70
4
71
3
72
8
73
4
74
0
42
0.000000001
43
0.0000000001
44
0.0000000001
40
0
40
0
40
0
40
0
40
1
40
1
40
1
40
1
41
1
41
1
41
1
41
1
10
123.26940059503458
20
-132.63629170553804
30
0
10
123.26940059503458
20
-133.24377601040877
30
0
10
123.76117376039447
20
-133.73554942141027
30
0
10
124.36865816656388
20
-133.73554942141027
30
0
0
LWPOLYLINE
5
198
100
AcDbEntity
8
0
100
AcDbPolyline
90
4
70
1
43
0.0
10
50.886452693708776
20
-111.26964299786641
10
64.882013738839618
20
-111.26964299786641
10
64.882013738839618
20
-125.26382652714632
10
50.886452693708776
20
-125.26382652714632
0
LINE
5
199
100
AcDbEntity
8
0
100
AcDbLine
10
85.883620473611032
20
-108.64823078082802
30
0
11
85.883620487063382
21
-107.39882382153303
31
0
0
LINE
5
200
100
AcDbEntity
8
0
100
AcDbLine
10
104.37677069995543
20
-109.14826893186607
30
0
11
86.383658655518488
21
-109.14826893186606
31
0
0
LINE
5
201
100
AcDbEntity
8
0
100
AcDbLine
10
76.13769574671268
20
-184.87031525505677
30
0
11
39.480621376835771
21
-189.63789752495398
31
0
0
SPLINE
5
202
100
AcDbEntity
8
0
100
AcDbSpline
70
4
71
3
72
8
73
4
74
0
42
0.000000001
43
0.0000000001
44
0.0000000001
40
0
40
0
40
0
40
0
40
1
40
1
40
1
40
1
41
1
41
1
41
1
41
1
10
34.652428390867357
20
-177.46892263166262
30
0
10
35.259912793875699
20
-177.46892263166262
30
0
10
35.753063678689671
20
-176.97714930473802
30
0
10
35.753063678689671
20
-176.36966481449167
30
0
0
LWPOLYLINE
5
203
100
AcDbEntity
8
0
100
AcDbPolyline
90
4
70
1
43
0.0
10
88.87558482979324
20
-163.2543361790816
10
88.87558482979324
20
-149.25877513395082
10
102.86976835907312
20
-149.25877513395082
10
102.86976835907312
20
-163.25433617908163
0
SPLINE
5
204
100
AcDbEntity
8
0
100
AcDbSpline
70
4
71
3
72
8
73
4
74
0
42
0.000000001
43
0.0000000001
44
0.0000000001
40
0
40
0
40
0
40
0
40
1
40
1
40
1
40
1
41
1
41
1
41
1
41
1
10
125.4692933930435
20
-151.37877246366597
30
0
10
125.4692933930435
20
-150.77128772118894
30
0
10
124.97614292861401
20
-150.27951472384945
30
0
10
124.36865824406303
20
-150.27951472384945
30
0
0
LWPOLYLINE
5
205
100
AcDbEntity
8
0
100
AcDbPolyline
90
4
70
1
43
0.0
10
102.86976835907312
20
-130.26558658175952
10
102.86976835907312
20
-144.26114762689033
10
88.87558482979324
20
-144.26114762689031
10
88.87558482979324
20
-130.26558658175952
0
LINE
5
206
100
AcDbEntity
8
0
100
AcDbLine
10
22.612939814194082
20
-197.6509071470683
30
0
11
10.262132734855935
21
-176.19747545848523
31
0
0
LWPOLYLINE
5
207
100
AcDbEntity
8
0
100
AcDbPolyline
90
4
70
1
43
0.0
10
126.85920690247401
20
-154.00293972444598
10
140.85339043175392
20
-154.00293972444598
10
140.85339043175392
20
-167.99712325372587
10
126.85920690247401
20
-167.99712325372587
0
SPLINE
5
208
100
AcDbEntity
8
0
100
AcDbSpline
70
4
71
3
72
8
73
4
74
0
42
0.000000001
43
0.0000000001
44
0.0000000001
40
0
40
0
40
0
40
0
40
1
40
1
40
1
40
1
41
1
41
1
41
1
41
1
10
124.36865816656388
20
-131.53703412337595
30
0
10
123.76117376039447
20
-131.53703412337595
30
0
10
123.26940059503458
20
-132.0288071980699
30
0
10
123.26940059503458
20
-132.63629170553804
30
0
0
SPLINE
5
209
100
AcDbEntity
8
0
100
AcDbSpline
70
4
71
3
72
8
73
4
74
0
42
0.000000001
43
0.0000000001
44
0.0000000001
40
0
40
0
40
0
40
0
40
1
40
1
40
1
40
1
41
1
41
1
41
1
41
1
10
34.652428390867357
20
-175.2704072908509
30
0
10
34.046321413310835
20
-175.2704072908509
30
0
10
33.553170528496864
20
-175.76218045036072
30
0
10
33.553170528496864
20
-176.36966481449167
30
0
0
LWPOLYLINE
5
210
100
AcDbEntity
8
0
100
AcDbPolyline
90
4
70
1
43
0.0
10
31.89188662566659
20
-132.64593397211246
10
45.8874476707974
20
-132.64593397211246
10
45.8874476707974
20
-146.64149501724327
10
31.89188662566659
20
-146.64149501724327
0
SPLINE
5
211
100
AcDbEntity
8
0
100
AcDbSpline
70
4
71
3
72
8
73
4
74
0
42
0.000000001
43
0.0000000001
44
0.0000000001
40
0
40
0
40
0
40
0
40
1
40
1
40
1
40
1
41
1
41
1
41
1
41
1
10
123.26940066323517
20
-151.37877246366597
30
0
10
123.26940066323517
20
-151.98625686983542
30
0
10
123.76255116970312
20
-152.47940737630333
30
0
10
124.36865824406303
20
-152.47940737630333
30
0
0
SPLINE
5
212
100
AcDbEntity
8
0
100
AcDbSpline
70
4
71
3
72
8
73
4
74
0
42
0.000000001
43
0.0000000001
44
0.0000000001
40
0
40
0
40
0
40
0
40
1
40
1
40
1
40
1
41
1
41
1
41
1
41
1
10
38.82630141909145
20
-189.76738410570704
30
0
10
39.039816283529007
20
-189.70401828579719
30
0
10
39.258841408918016
20
-189.65993777856838
30
0
10
39.480621376835771
20
-189.63789752495401
30
0
0
SPLINE
5
213
100
AcDbEntity
8
0
100
AcDbSpline
70
4
71
3
72
8
73
4
74
0
42
0.000000001
43
0.0000000001
44
0.0000000001
40
0
40
0
40
0
40
0
40
1
40
1
40
1
40
1
41
1
41
1
41
1
41
1
10
124.36865816656388
20
-133.73554942141027
30
0
10
124.97614248865644
20
-133.73554942141027
30
0
10
125.46929333143196
20
-133.24377601040877
30
0
10
125.46929333143196
20
-132.63629170553804
30
0
0
LWPOLYLINE
5
214
100
AcDbEntity
8
0
100
AcDbPolyline
90
4
70
1
43
0.0
10
102.86976835907312
20
-111.27377554541911
10
102.86976835907312
20
-125.26795907469904
10
88.87558482979324
20
-125.26795907469904
10
88.87558482979324
20
-111.27377554541911
0
LWPOLYLINE
5
215
100
AcDbEntity
8
0
100
AcDbPolyline
90
4
70
1
43
0.0
10
107.86877338198452
20
-167.99712325372585
10
107.86877338198452
20
-154.00293972444595
10
121.8629569112644
20
-154.00293972444598
10
121.8629569112644
20
-167.99712325372587
0
LWPOLYLINE
5
216
100
AcDbEntity
8
0
100
AcDbPolyline
90
4
70
1
43
0.0
10
50.886452693708776
20
-144.25701507933763
10
50.886452693708776
20
-130.26145403420682
10
64.882013738839618
20
-130.26145403420682
10
64.882013738839618
20
-144.25701507933763
0
SPLINE
5
217
100
AcDbEntity
8
0
100
AcDbSpline
70
4
71
3
72
8
73
4
74
0
42
0.000000001
43
0.0000000001
44
0.0000000001
40
0
40
0
40
0
40
0
40
1
40
1
40
1
40
1
41
1
41
1
41
1
41
1
10
48.897319804998872
20
-111.14842194737838
30
0
10
48.897319804998872
20
-111.42392494710535
30
0
10
48.674162335434573
20
-111.64708268310474
30
0
10
48.398659165254813
20
-111.64708268310474
30
0
0
SPLINE
5
218
100
AcDbEntity
8
0
100
AcDbSpline
70
4
71
3
72
8
73
4
74
0
42
0.000000001
43
0.0000000001
44
0.0000000001
40
0
40
0
40
0
40
0
40
1
40
1
40
1
40
1
41
1
41
1
41
1
41
1
10
33.553170528496864
20
-176.36966481449167
30
0
10
33.553170528496864
20
-176.97714930473802
30
0
10
34.046321413310835
20
-177.46892263166262
30
0
10
34.652428390867357
20
-177.46892263166262
30
0
0
SPLINE
5
219
100
AcDbEntity
8
0
100
AcDbSpline
70
4
71
3
72
8
73
4
74
0
42
0.000000001
43
0.0000000001
44
0.0000000001
40
0
40
0
40
0
40
0
40
1
40
1
40
1
40
1
41
1
41
1
41
1
41
1
10
105.37684720769091
20
-113.8965660699082
30
0
10
105.09996643824023
20
-113.8965660699082
30
0
10
104.87680905956763
20
-113.67340858382001
30
0
10
104.87680905956763
20
-113.39652762453946
30
0
0
SPLINE
5
220
100
AcDbEntity
8
0
100
AcDbSpline
70
4
71
3
72
8
73
4
74
0
42
0.000000001
43
0.0000000001
44
0.0000000001
40
0
40
0
40
0
40
0
40
1
40
1
40
1
40
1
41
1
41
1
41
1
41
1
10
80.036065399070338
20
-168.62251572916918
30
0
10
80.036065399070338
20
-169.23000013533857
30
0
10
80.527838852110293
20
-169.72315097811415
30
0
10
81.135323263596121
20
-169.72315097811415
30
0
0
SPLINE
5
221
100
AcDbEntity
8
0
100
AcDbSpline
70
4
71
3
72
8
73
4
74
0
42
0.000000001
43
0.0000000001
44
0.0000000001
40
0
40
0
40
0
40
0
40
1
40
1
40
1
40
1
41
1
41
1
41
1
41
1
10
87.029713589585981
20
-170.27140226795262
30
0
10
87.123384756655668
20
-170.17773101516389
30
0
10
87.250116204428721
20
-170.12538559149317
30
0
10
87.383735157889021
20
-170.12538559149317
30
0
0
LINE
5
222
100
AcDbEntity
8
0
100
AcDbLine
10
142.86180854236218
20
-169.62534733387554
30
0
11
142.86180871260311
21
-114.39660434248417
31
0
0
SPLINE
5
223
100
AcDbEntity
8
0
100
AcDbSpline
70
4
71
3
72
8
73
4
74
0
42
0.000000001
43
0.0000000001
44
0.0000000001
40
0
40
0
40
0
40
0
40
1
40
1
40
1
40
1
41
1
41
1
41
1
41
1
10
48.397281551116066
20
-127.7888134262125
30
0
10
47.791174387465517
20
-127.7888134262125
30
0
10
47.298023880997548
20
-128.2805866609317
30
0
10
47.298023880997548
20
-128.88807110913959
30
0
0
LINE
5
224
100
AcDbEntity
8
0
100
AcDbLine
10
38.82630141909145
20
-189.76738410570704
30
0
11
24.537329497721156
21
-198.02559163183923
31
0
0
SPLINE
5
225
100
AcDbEntity
8
0
100
AcDbSpline
70
4
71
3
72
8
73
4
74
0
42
0.000000001
43
0.0000000001
44
0.0000000001
40
0
40
0
40
0
40
0
40
1
40
1
40
1
40
1
41
1
41
1
41
1
41
1
10
81.135323263596121
20
-169.72315097811415
30
0
10
81.742807664449174
20
-169.72315097811415
30
0
10
82.23458069710469
20
-169.23000013533857
30
0
10
82.23458069710469
20
-168.62251572916918
30
0
0
LWPOLYLINE
5
226
100
AcDbEntity
8
0
100
AcDbPolyline
90
4
70
1
43
0.0
10
107.86877338198452
20
-116.01656262006335
10
121.8629569112644
20
-116.01656262006335
10
121.8629569112644
20
-130.01074614934328
10
107.86877338198452
20
-130.01074614934328
0
SPLINE
5
227
100
AcDbEntity
8
0
100
AcDbSpline
70
4
71
3
72
8
73
4
74
0
42
0.000000001
43
0.0000000001
44
0.0000000001
40
0
40
0
40
0
40
0
40
1
40
1
40
1
40
1
41
1
41
1
41
1
41
1
10
85.383582147755476
20
-106.89878554733546
30
0
10
85.66046275106396
20
-106.89878554733546
30
0
10
85.883620487063382
20
-107.12332063033406
30
0
10
85.883620487063382
20
-107.39882382153303
30
0
0
LINE
5
228
100
AcDbEntity
8
0
100
AcDbLine
10
142.36177028847939
20
-113.89656606990823
30
0
11
105.37684720769091
21
-113.8965660699082
31
0
0
SPLINE
5
229
100
AcDbEntity
8
0
100
AcDbSpline
70
4
71
3
72
8
73
4
74
0
42
0.000000001
43
0.0000000001
44
0.0000000001
40
0
40
0
40
0
40
0
40
1
40
1
40
1
40
1
41
1
41
1
41
1
41
1
10
125.46929333143196
20
-132.63629170553804
30
0
10
125.46929333143196
20
-132.0288071980699
30
0
10
124.97614248865644
20
-131.53703412337595
30
0
10
124.36865816656388
20
-131.53703412337595
30
0
0
SPLINE
5
230
100
AcDbEntity
8
0
100
AcDbSpline
70
4
71
3
72
8
73
4
74
0
42
0.000000001
43
0.0000000001
44
0.0000000001
40
0
40
0
40
0
40
0
40
1
40
1
40
1
40
1
41
1
41
1
41
1
41
1
10
81.135323263596121
20
-167.52325814538551
30
0
10
80.527838852110293
20
-167.52325814538551
30
0
10
80.036065399070338
20
-168.01640871273531
30
0
10
80.036065399070338
20
-168.62251572916918
30
0
0
SPLINE
5
231
100
AcDbEntity
8
0
100
AcDbSpline
70
4
71
3
72
8
73
4
74
0
42
0.000000001
43
0.0000000001
44
0.0000000001
40
0
40
0
40
0
40
0
40
1
40
1
40
1
40
1
41
1
41
1
41
1
41
1
10
48.897319804998872
20
-109.64830718573668
30
0
10
48.897319804998872
20
-109.3728039307411
30
0
10
49.121854881880523
20
-109.14826876296772
30
0
10
49.397358073079488
20
-109.14826876296772
30
0
0
SPLINE
5
232
100
AcDbEntity
8
0
100
AcDbSpline
70
4
71
3
72
8
73
4
74
0
42
0.000000001
43
0.0000000001
44
0.0000000001
40
0
40
0
40
0
40
0
40
1
40
1
40
1
40
1
41
1
41
1
41
1
41
1
10
29.906886284540111
20
-162.68817750874493
30
0
10
29.899998705531932
20
-162.95266045374382
30
0
10
29.769134786400837
20
-163.19785846437682
30
0
10
29.555619745434658
20
-163.35351767145144
30
0
0
SPLINE
5
233
100
AcDbEntity
8
0
100
AcDbSpline
70
4
71
3
72
8
73
4
74
0
42
0.000000001
43
0.0000000001
44
0.0000000001
40
0
40
0
40
0
40
0
40
1
40
1
40
1
40
1
41
1
41
1
41
1
41
1
10
104.37677069995543
20
-109.14826893186607
30
0
10
104.65227387598779
20
-109.14826893186607
30
0
10
104.87680904376118
20
-109.37280392922773
30
0
10
104.87680904376118
20
-109.64830707838826
30
0
0
LWPOLYLINE
5
234
100
AcDbEntity
8
0
100
AcDbPolyline
90
4
70
1
43
0.0
10
45.8874476707974
20
-165.63330605358368
10
31.89188662566659
20
-165.63330605358368
10
31.89188662566659
20
-151.63912252430376
10
45.8874476707974
20
-151.63912252430376
0
SPLINE
5
235
100
AcDbEntity
8
0
100
AcDbSpline
70
4
71
3
72
8
73
4
74
0
42
0.000000001
43
0.0000000001
44
0.0000000001
40
0
40
0
40
0
40
0
40
1
40
1
40
1
40
1
41
1
41
1
41
1
41
1
10
82.23458069710469
20
-168.62251572916918
30
0
10
82.23458069710469
20
-168.01640871273531
30
0
10
81.742807664449174
20
-167.52325814538551
30
0
10
81.135323263596121
20
-167.52325814538551
30
0
0
LINE
5
236
100
AcDbEntity
8
0
100
AcDbLine
10
142.36177036792387
20
-170.12538558249696
30
0
11
87.383735157889021
21
-170.12538559149317
31
0
0
LINE
5
237
100
AcDbEntity
8
0
100
AcDbLine
10
48.897319804998872
20
-111.14842194737838
30
0
11
48.897319804998872
21
-109.64830718573668
31
0
0
SPLINE
5
238
100
AcDbEntity
8
0
100
AcDbSpline
70
4
71
3
72
8
73
4
74
0
42
0.000000001
43
0.0000000001
44
0.0000000001
40
0
40
0
40
0
40
0
40
1
40
1
40
1
40
1
41
1
41
1
41
1
41
1
10
86.383658655518488
20
-109.14826893186606
30
0
10
86.108155305076849
20
-109.14826893186606
30
0
10
85.883620473611032
20
-108.92511136176255
30
0
10
85.883620473611032
20
-108.64823078082802
30
0
0
LINE
5
239
100
AcDbEntity
8
0
100
AcDbLine
10
48.398659165254841
20
-111.64708268310474
30
0
11
30.404169487122896
21
-111.64708268613151
31
0
0
SPLINE
5
240
100
AcDbEntity
8
0
100
AcDbSpline
70
4
71
3
72
8
73
4
74
0
42
0.000000001
43
0.0000000001
44
0.0000000001
40
0
40
0
40
0
40
0
40
1
40
1
40
1
40
1
41
1
41
1
41
1
41
1
10
142.86180854236218
20
-169.62534733387554
30
0
10
142.86180854236218
20
-169.90222784649757
30
0
10
142.6386509698776
20
-170.12538558249696
30
0
10
142.36177036792387
20
-170.12538558249696
30
0
0
LINE
5
241
100
AcDbEntity
8
0
100
AcDbLine
10
67.390469941091368
20
-109.14826875994095
30
0
11
49.397358073079488
21
-109.14826876296772
31
0
0
SPLINE
5
242
100
AcDbEntity
8
0
100
AcDbSpline
70
4
71
3
72
8
73
4
74
0
42
0.000000001
43
0.0000000001
44
0.0000000001
40
0
40
0
40
0
40
0
40
1
40
1
40
1
40
1
41
1
41
1
41
1
41
1
10
29.90550876867994
20
-112.14712093926877
30
0
10
29.90550876867994
20
-111.87161785390488
30
0
10
30.128666337962375
20
-111.64708268613151
30
0
10
30.404169487122896
20
-111.64708268613151
30
0
0
LINE
5
243
100
AcDbEntity
8
0
100
AcDbLine
10
104.87680905956763
20
-113.39652762453946
30
0
11
104.87680904376118
21
-109.64830707838826
31
0
0
LINE
5
244
100
AcDbEntity
8
0
100
AcDbLine
10
10.642327290502127
20
-174.27033066525536
30
0
11
29.555619745434623
21
-163.35351767145144
31
0
0
SPLINE
5
245
100
AcDbEntity
8
0
100
AcDbSpline
70
4
71
3
72
8
73
4
74
0
42
0.000000001
43
0.0000000001
44
0.0000000001
40
0
40
0
40
0
40
0
40
1
40
1
40
1
40
1
41
1
41
1
41
1
41
1
10
24.537329497721156
20
-198.02559163183923
30
0
10
23.903672124447706
20
-198.4539989722191
30
0
10
23.041347411977373
20
-198.28594220656328
30
0
10
22.612939814194082
20
-197.6509071470683
30
0
0
LINE
5
246
100
AcDbEntity
8
0
100
AcDbLine
10
87.029713589585981
20
-170.27140226795262
30
0
11
76.490339814354456
21
-184.7229210597086
31
0
0
LINE
5
247
100
AcDbEntity
8
0
100
AcDbLine
10
67.890508357202023
20
-108.64823067799541
30
0
11
67.890508357202023
21
-107.39882380121158
31
0
0
SPLINE
5
248
100
AcDbEntity
8
0
100
AcDbSpline
70
4
71
3
72
8
73
4
74
0
42
0.000000001
43
0.0000000001
44
0.0000000001
40
0
40
0
40
0
40
0
40
1
40
1
40
1
40
1
41
1
41
1
41
1
41
1
10
67.890508357202023
20
-108.64823067799541
30
0
10
67.890508357202023
20
-108.92511136024915
30
0
10
67.667350879352682
20
-109.14826875994095
30
0
10
67.390469941091368
20
-109.14826875994095
30
0
0
SPLINE
5
249
100
AcDbEntity
8
0
100
AcDbSpline
70
4
71
3
72
8
73
4
74
0
42
0.000000001
43
0.0000000001
44
0.0000000001
40
0
40
0
40
0
40
0
40
1
40
1
40
1
40
1
41
1
41
1
41
1
41
1
10
47.298023880997548
20
-128.88807110913959
30
0
10
47.298023880997548
20
-129.49555543123213
30
0
10
47.791174387465517
20
-129.98732859000296
30
0
10
48.397281551116066
20
-129.98732859000296
30
0
0
SPLINE
5
250
100
AcDbEntity
8
0
100
AcDbSpline
70
4
71
3
72
8
73
4
74
0
42
0.000000001
43
0.0000000001
44
0.0000000001
40
0
40
0
40
0
40
0
40
1
40
1
40
1
40
1
41
1
41
1
41
1
41
1
10
76.490339814354456
20
-184.7229210597086
30
0
10
76.396668737191277
20
-184.81659205279485
30
0
10
76.269937268398976
20
-184.87031525505677
30
0
10
76.13769574671268
20
-184.87031525505677
30
0
0
SPLINE
5
251
100
AcDbEntity
8
0
100
AcDbSpline
70
4
71
3
72
8
73
4
74
0
42
0.000000001
43
0.0000000001
44
0.0000000001
40
0
40
0
40
0
40
0
40
1
40
1
40
1
40
1
41
1
41
1
41
1
41
1
10
124.36865824406303
20
-150.27951472384945
30
0
10
123.76255116970312
20
-150.27951472384945
30
0
10
123.26940066323517
20
-150.77128772118894
30
0
10
123.26940066323517
20
-151.37877246366597
30
0
0
SPLINE
5
252
100
AcDbEntity
8
0
100
AcDbSpline
70
4
71
3
72
8
73
4
74
0
42
0.000000001
43
0.0000000001
44
0.0000000001
40
0
40
0
40
0
40
0
40
1
40
1
40
1
40
1
41
1
41
1
41
1
41
1
10
67.890508357202023
20
-107.39882380121158
30
0
10
67.890508357202023
20
-107.12332062122013
30
0
10
68.113666015043833
20
-106.89878545344672
30
0
10
68.390546616997611
20
-106.89878545344672
30
0
0
LINE
5
253
100
AcDbEntity
8
0
100
AcDbLine
10
29.906886284540111
20
-162.68817750874493
30
0
11
29.90550876867994
21
-112.14712093926877
31
0
0
ENDSEC
0
SECTION
2
OBJECTS
0
DICTIONARY
5
C
100
AcDbDictionary
3
ACAD_GROUP
350
D
3
ACAD_MLINESTYLE
350
17
0
DICTIONARY
5
D
100
AcDbDictionary
0
DICTIONARY
5
1A
330
C
100
AcDbDictionary
0
DICTIONARY
5
17
100
AcDbDictionary
0
ENDSEC
0
EOF
