0
SECTION
2
HEADER
9
$INSUNITS
70
4
9
$ACADVER
1
AC1014
9
$HANDSEED
5
FFFF
0
ENDSEC
0
SECTION
2
TABLES
0
TABLE
2
VPORT
5
8
100
AcDbSymbolTable
0
ENDTAB
0
TABLE
2
LTYPE
5
5
100
AcDbSymbolTable
0
LTYPE
5
14
100
AcDbSymbolTableRecord
100
AcDbLinetypeTableRecord
2
BYBLOCK
70
0
0
LTYPE
5
15
100
AcDbSymbolTableRecord
100
AcDbLinetypeTableRecord
2
BYLAYER
70
0
0
ENDTAB
0
TABLE
2
LAYER
5
2
100
AcDbSymbolTable
70
2
0
LAYER
5
50
100
AcDbSymbolTableRecord
100
AcDbLayerTableRecord
2
0
70
0
6
CONTINUOUS
0
ENDTAB
0
TABLE
2
STYLE
5
3
100
AcDbSymbolTable
70
1
0
STYLE
5
11
100
AcDbSymbolTableRecord
100
AcDbTextStyleTableRecord
2
STANDARD
70
0
0
ENDTAB
0
TABLE
2
VIEW
5
6
100
AcDbSymbolTable
70
0
0
ENDTAB
0
TABLE
2
UCS
5
7
100
AcDbSymbolTable
70
0
0
ENDTAB
0
TABLE
2
APPID
5
9
100
AcDbSymbolTable
70
2
0
APPID
5
12
100
AcDbSymbolTableRecord
100
AcDbRegAppTableRecord
2
ACAD
70
0
0
ENDTAB
0
TABLE
2
DIMSTYLE
5
A
100
AcDbSymbolTable
70
1
0
ENDTAB
0
TABLE
2
BLOCK_RECORD
5
1
100
AcDbSymbolTable
70
1
0
BLOCK_RECORD
5
1F
100
AcDbSymbolTableRecord
100
AcDbBlockTableRecord
2
*MODEL_SPACE
0
BLOCK_RECORD
5
1B
100
AcDbSymbolTableRecord
100
AcDbBlockTableRecord
2
*PAPER_SPACE
0
ENDTAB
0
ENDSEC
0
SECTION
2
BLOCKS
0
BLOCK
5
20
100
AcDbEntity
100
AcDbBlockBegin
2
*MODEL_SPACE
0
ENDBLK
5
21
100
AcDbEntity
100
AcDbBlockEnd
0
BLOCK
5
1C
100
AcDbEntity
100
AcDbBlockBegin
2
*PAPER_SPACE
0
ENDBLK
5
1D
100
AcDbEntity
100
AcDbBlockEnd
0
ENDSEC
0
SECTION
2
ENTITIES
0
LWPOLYLINE
5
100
100
AcDbEntity
8
0
100
AcDbPolyline
90
5
43
0.0
10
119.38098158785694
20
-72.48362552104172
10
119.40874712935036
20
-72.67727408789115
10
119.4791295591754
20
-72.85710450411658
10
119.58825463811758
20
-73.01653046948121
10
119.73224812696239
20
-73.14896568374824
0
LWPOLYLINE
5
101
100
AcDbEntity
8
0
100
AcDbPolyline
90
9
43
0.0
10
139.0257351375411
20
-85.99292347078205
10
139.15828606201023
20
-85.74587999096538
10
139.2366457333665
20
-85.48517972533095
10
139.26228313730928
20
-85.21860349109143
10
139.23666725953794
20
-84.95393210545939
10
139.16126708575183
20
-84.69894638564747
10
139.0375516016503
20
-84.46142714886828
10
138.86698979293274
20
-84.24915521233447
10
138.65105064529848
20
-84.06991139325864
0
LINE
5
102
100
AcDbEntity
8
0
100
AcDbLine
10
138.65105064529848
20
-84.069911393258622
30
0
11
138.64554058189489
21
-84.06577867755216
31
0
0
LWPOLYLINE
5
103
100
AcDbEntity
8
0
100
AcDbPolyline
90
9
43
0.0
10
124.75053837467584
20
-107.82103964413604
10
124.99758456091674
20
-107.95398604378502
10
125.25830364863839
20
-108.03253134535484
10
125.52493097627186
20
-108.05819296070716
10
125.78970188224818
20
-108.03248830170365
10
126.0448517049984
20
-107.95693478020603
10
126.28261578295356
20
-107.83304980807594
10
126.49522945454471
20
-107.66235079717507
10
126.67492805820291
20
-107.44635515936511
0
LWPOLYLINE
5
104
100
AcDbEntity
8
0
100
AcDbPolyline
90
2
43
0.0
10
126.67492805820291
20
-107.44635515936511
10
126.67768292175091
20
-107.44222286404309
0
LWPOLYLINE
5
105
100
AcDbEntity
8
0
100
AcDbPolyline
90
3
43
0.0
10
110.46156645330557
20
-99.5628321180039
10
110.13750588823848
20
-99.48259174026656
10
109.8072464955612
20
-99.43334553725083
0
LWPOLYLINE
5
106
100
AcDbEntity
8
0
100
AcDbPolyline
90
3
43
0.0
10
72.79752805804246
20
-94.51836907200537
10
72.9593861751672
20
-94.62719279208684
10
73.15017212568424
20
-94.6657632673536
0
LWPOLYLINE
5
107
100
AcDbEntity
8
0
100
AcDbPolyline
90
7
43
0.0
10
119.3823591037171
20
-21.94256895156549
10
119.37223220982379
20
-21.8419834142266
10
119.34318599681109
20
-21.7482101103749
10
119.23634242543082
20
-21.589236167985398
10
119.07784201358294
20
-21.48191905410162
10
118.98422474998573
20
-21.45271678588208
10
118.88369838527413
20
-21.44253069842822
0
LWPOLYLINE
5
108
100
AcDbEntity
8
0
100
AcDbPolyline
90
3
43
0.0
10
62.258154282810956
20
-80.06685028024937
10
62.09612391855594
20
-79.95871522222392
10
61.90413271450795
20
-79.92083360378996
0
LWPOLYLINE
5
109
100
AcDbEntity
8
0
100
AcDbPolyline
90
7
43
0.0
10
6.426059330034663
20
-79.42079534617231
10
6.436188914403052
20
-79.52177635559636
10
6.46525396014091
20
-79.61573528878182
10
6.572248191521181
20
-79.77464466271628
10
6.73115753576778
20
-79.8816389405341
10
6.825116472588546
20
-79.9107040035738
10
6.926097504473006
20
-79.92083359479373
0
LWPOLYLINE
5
110
100
AcDbEntity
8
0
100
AcDbPolyline
90
7
43
0.0
10
6.926097583917461
20
-23.69201408220491
10
6.825116516563942
20
-23.702200166153137
10
6.731157539845667
20
-23.731402426032545
10
6.572248113808963
20
-23.838719521793273
10
6.465253816795576
20
-23.997693465903804
10
6.436188751356446
20
-24.091466786220465
10
6.42605915979373
20
-24.192052354780856
0
LWPOLYLINE
5
111
100
AcDbEntity
8
0
100
AcDbPolyline
90
7
43
0.0
10
43.91102066470603
20
-23.69201408220491
10
44.0120017435497
20
-23.681884500850963
10
44.105960699962296
20
-23.65281946001487
10
44.26487002731166
20
-23.545825219250744
10
44.37186421038903
20
-23.38691579862151
10
44.40092923646161
20
-23.29295678295404
10
44.41105881282928
20
-23.191975636836162
0
LWPOLYLINE
5
112
100
AcDbEntity
8
0
100
AcDbPolyline
90
7
43
0.0
10
44.911097172441515
20
-18.943716944162755
10
44.81051160517494
20
-18.953903024418846
10
44.7167382788332
20
-18.98310527420615
10
44.55776430952648
20
-19.090422336488654
10
44.45044718572584
20
-19.249396239238756
10
44.421244916266694
20
-19.34316953961056
10
44.411058828635745
20
-19.44375509068494
0
LWPOLYLINE
5
113
100
AcDbEntity
8
0
100
AcDbPolyline
90
7
43
0.0
10
62.90420921687845
20
-18.943716944162755
10
63.004794827263
20
-18.933587359937732
10
63.09856815876906
20
-18.904522314756978
10
63.2575420642478
20
-18.797528086494182
10
63.364859091518724
20
-18.638618749306165
10
63.39406132526503
20
-18.544659817968885
10
63.404247398785905
20
-18.44367879312472
0
LWPOLYLINE
5
114
100
AcDbEntity
8
0
100
AcDbPolyline
90
7
43
0.0
10
63.904285724641475
20
-16.694233559632167
10
63.80330468528382
20
-16.704419643650073
10
63.70934572960385
20
-16.73362190371318
10
63.55043632874685
20
-16.84093900003133
10
63.44344204101019
20
-16.99991294469929
10
63.41437697673065
20
-17.09368626519965
10
63.40424738533359
20
-17.194271833829717
0
LWPOLYLINE
5
115
100
AcDbEntity
8
0
100
AcDbPolyline
90
7
43
0.0
10
81.39735951519494
20
-17.194271813508266
10
81.38722992715886
20
-17.09368624493489
10
81.35816487175163
20
-16.99991291761112
10
81.25117061102979
20
-16.840938947129057
10
81.09226123744165
20
-16.73362182289539
10
80.9983022909515
20
-16.704419553382117
10
80.89732125539935
20
-16.694233465743434
0
LWPOLYLINE
5
116
100
AcDbEntity
8
0
100
AcDbPolyline
90
7
43
0.0
10
81.39735951519494
20
-18.44367869029211
10
81.40748909615382
20
-18.544659741257156
10
81.43655413576923
20
-18.638618678421903
10
81.54354837140227
20
-18.79752798711004
10
81.70245778295931
20
-18.9045221678756
10
81.79641679247972
20
-18.933587195137125
10
81.89739793130559
20
-18.943716772237657
0
LWPOLYLINE
5
117
100
AcDbEntity
8
0
100
AcDbPolyline
90
7
43
0.0
10
100.39054806739814
20
-19.4437551980334
10
100.38036198364307
20
-19.343169604702798
10
100.35115972427289
20
-19.249396258774485
10
100.24384263005743
20
-19.090422266025566
10
100.08486868749216
20
-18.983105133588325
10
99.99109536768474
20
-18.953902863049603
10
99.8905097993175
20
-18.943716775264427
0
LWPOLYLINE
5
118
100
AcDbEntity
8
0
100
AcDbPolyline
90
7
43
0.0
10
100.39054806739814
20
-20.943869959675094
10
100.40067495704773
20
-21.04439628222557
10
100.42972115905161
20
-21.138013527642155
10
100.53656469845275
20
-21.296513952435888
10
100.69506508226257
20
-21.403357564780812
10
100.78868233977734
20
-21.432403794636386
10
100.88920870714216
20
-21.44253069540145
0
LWPOLYLINE
5
119
100
AcDbEntity
8
0
100
AcDbPolyline
90
9
43
0.0
10
26.018467277362298
20
-42.43173971783475
10
25.996149906182442
20
-42.65338788690739
10
25.932135776428424
20
-42.85978117705714
10
25.83083186377856
20
-43.046512605661356
10
25.696645143911184
20
-43.209175190097405
10
25.533982592504614
20
-43.343361947742636
10
25.347251185237177
20
-43.44466589597442
10
25.140857897787196
20
-43.50868005217008
10
24.919209705832994
20
-43.530997433707
0
LWPOLYLINE
5
120
100
AcDbEntity
8
0
100
AcDbPolyline
90
9
43
0.0
10
24.919209705832994
20
-43.530997433707
10
24.69750234455428
20
-43.50868005217008
10
24.49095301293957
20
-43.44466589597442
10
24.304000976966886
20
-43.343361947742636
10
24.141085502614263
20
-43.209175190097405
10
24.006645855859723
20
-43.046512605661356
10
23.9051213026813
20
-42.85978117705714
10
23.840951109057027
20
-42.65338788690739
10
23.818574540964928
20
-42.43173971783475
0
LWPOLYLINE
5
121
100
AcDbEntity
8
0
100
AcDbPolyline
90
9
43
0.0
10
23.818574540964928
20
-42.43173971783475
10
23.840951109057027
20
-42.210091496339864
10
23.9051213026813
20
-42.00369819403381
10
24.006645855859723
20
-41.81696678328283
10
24.141085502614263
20
-41.654304236453164
10
24.304000976966886
20
-41.520117525911076
10
24.49095301293957
20
-41.41881362402279
10
24.69750234455428
20
-41.35479950315458
10
24.919209705832994
20
-41.33248213567268
0
LWPOLYLINE
5
122
100
AcDbEntity
8
0
100
AcDbPolyline
90
9
43
0.0
10
24.919209705832994
20
-41.33248213567268
10
25.140857897787196
20
-41.35479950315458
10
25.347251185237177
20
-41.41881362402279
10
25.533982592504614
20
-41.520117525911076
10
25.696645143911184
20
-41.654304236453164
10
25.830831863778563
20
-41.81696678328283
10
25.932135776428424
20
-42.00369819403381
10
25.996149906182442
20
-42.21009149633987
10
26.018467277362298
20
-42.43173971783475
0
LWPOLYLINE
5
123
100
AcDbEntity
8
0
100
AcDbPolyline
90
9
43
0.0
10
24.919209628333867
20
-60.07496273614619
10
25.14046237581261
20
-60.09728010076328
10
25.3466700473338
20
-60.1612942160817
10
25.533377245179743
20
-60.26259811430221
10
25.696128571632755
20
-60.396784827625574
10
25.830468628975147
20
-60.55944738825255
10
25.931942019489227
20
-60.74617882838389
10
25.99609334545731
20
-60.95257218022036
10
26.018467209161717
20
-61.17422047596271
0
LWPOLYLINE
5
124
100
AcDbEntity
8
0
100
AcDbPolyline
90
9
43
0.0
10
26.018467209161717
20
-61.17422047596271
10
25.99609334545731
20
-61.395927850542655
10
25.931942019489227
20
-61.60247716491503
10
25.830468628975147
20
-61.789429161969316
10
25.696128571632755
20
-61.95234458459494
10
25.533377245179743
20
-62.08678417568138
10
25.3466700473338
20
-62.188308678118084
10
25.14046237581261
20
-62.252478834794495
10
24.919209628333867
20
-62.274855388600095
0
LWPOLYLINE
5
125
100
AcDbEntity
8
0
100
AcDbPolyline
90
9
43
0.0
10
24.919209628333867
20
-62.274855388600095
10
24.697502163672603
20
-62.252478834794495
10
24.490952785010716
20
-62.188308678118084
10
24.30400074521119
20
-62.08678417568138
10
24.141085297137003
20
-61.95234458459494
10
24.006645693651144
20
-61.789429161969316
10
23.9051211876166
20
-61.60247716491503
10
23.84095103189635
20
-61.395927850542655
10
23.81857447935338
20
-61.17422047596271
0
LWPOLYLINE
5
126
100
AcDbEntity
8
0
100
AcDbPolyline
90
9
43
0.0
10
23.81857447935338
20
-61.17422047596271
10
23.840951031896353
20
-60.95257218022036
10
23.9051211876166
20
-60.74617882838389
10
24.006645693651144
20
-60.55944738825255
10
24.141085297137003
20
-60.396784827625574
10
24.30400074521119
20
-60.26259811430221
10
24.490952785010716
20
-60.1612942160817
10
24.697502163672603
20
-60.09728010076328
10
24.919209628333867
20
-60.07496273614619
0
LWPOLYLINE
5
127
100
AcDbEntity
8
0
100
AcDbPolyline
90
9
43
0.0
10
100.89058632128094
20
-37.58426143850924
10
101.11183909823256
20
-37.606578812751486
10
101.31804679190203
20
-37.67059295093736
10
101.50475400561798
20
-37.771896876255575
10
101.66750534270913
20
-37.90608361189482
10
101.80184540650417
20
-38.06874618104382
10
101.90331880033177
20
-38.25547760689127
10
101.96747012752063
20
-38.46187091262587
10
101.98984399139943
20
-38.683519121436326
0
LWPOLYLINE
5
128
100
AcDbEntity
8
0
100
AcDbPolyline
90
9
43
0.0
10
101.98984399139943
20
-38.683519121436326
10
101.96747012752063
20
-38.90516728535546
10
101.90331880033177
20
-39.111560551204015
10
101.80184540650417
20
-39.29829194247282
10
101.66750534270913
20
-39.46095448265272
10
101.50475400561798
20
-39.59514119523451
10
101.31804679190203
20
-39.69644510370906
10
101.11183909823256
20
-39.760459231567175
10
100.89058632128094
20
-39.7827766022997
0
LWPOLYLINE
5
129
100
AcDbEntity
8
0
100
AcDbPolyline
90
9
43
0.0
10
100.89058632128094
20
-39.7827766022997
10
100.66887888609256
20
-39.760459231567175
10
100.46232952957894
20
-39.69644510370906
10
100.27537750564943
20
-39.59514119523451
10
100.1124620682134
20
-39.46095448265272
10
99.97802247118018
20
-39.29829194247282
10
99.87649796845916
20
-39.111560551204015
10
99.81232781395968
20
-38.90516728535546
10
99.7899512615911
20
-38.683519121436326
0
LWPOLYLINE
5
130
100
AcDbEntity
8
0
100
AcDbPolyline
90
9
43
0.0
10
99.7899512615911
20
-38.683519121436326
10
99.81232781395968
20
-38.46187091262587
10
99.87649796845916
20
-38.25547760689127
10
99.97802247118018
20
-38.06874618104382
10
100.1124620682134
20
-37.90608361189482
10
100.27537750564943
20
-37.771896876255575
10
100.46232952957894
20
-37.67059295093736
10
100.66887888609256
20
-37.606578812751486
10
100.89058632128094
20
-37.58426143850924
0
LWPOLYLINE
5
131
100
AcDbEntity
8
0
100
AcDbPolyline
90
9
43
0.0
10
68.15254460880082
20
-77.31870615768229
10
68.37419281487111
20
-77.34108002388957
10
68.58058613622856
20
-77.40523135596247
10
68.76731759051466
20
-77.50670475407756
10
68.9299801953709
20
-77.64104481841142
10
69.06416696843874
20
-77.80379614914061
10
69.16547092735965
20
-77.99050334644173
10
69.22948508977512
20
-78.19671101049131
10
69.25180247332662
20
-78.41796374146597
0
LWPOLYLINE
5
132
100
AcDbEntity
8
0
100
AcDbPolyline
90
9
43
0.0
10
69.25180247332662
20
-78.41796374146597
10
69.22948508977512
20
-78.63967113049662
10
69.16547092735965
20
-78.84622048296634
10
69.06416696843874
20
-79.03317253388238
10
68.9299801953709
20
-79.19608801825198
10
68.76731759051466
20
-79.3305276710824
10
68.58058613622856
20
-79.43205222738085
10
68.37419281487111
20
-79.49622242215462
10
68.15254460880082
20
-79.51859899041092
0
LWPOLYLINE
5
133
100
AcDbEntity
8
0
100
AcDbPolyline
90
9
43
0.0
10
68.15254460880082
20
-79.51859899041092
10
67.93089642430358
20
-79.49622242215462
10
67.72450315320523
20
-79.43205222738085
10
67.53777176813614
20
-79.3305276710824
10
67.37510924172666
20
-79.19608801825198
10
67.24092254660717
20
-79.03317253388238
10
67.13961865540803
20
-78.84622048296634
10
67.07560454075961
20
-78.63967113049662
10
67.05328717529228
20
-78.41796374146597
0
LWPOLYLINE
5
134
100
AcDbEntity
8
0
100
AcDbPolyline
90
9
43
0.0
10
67.05328717529228
20
-78.41796374146597
10
67.07560454075961
20
-78.19671101049131
10
67.13961865540803
20
-77.99050334644173
10
67.24092254660717
20
-77.80379614914061
10
67.37510924172666
20
-77.64104481841142
10
67.53777176813614
20
-77.50670475407756
10
67.72450315320523
20
-77.40523135596247
10
67.93089642430358
20
-77.34108002388957
10
68.15254460880082
20
-77.31870615768229
0
LWPOLYLINE
5
135
100
AcDbEntity
8
0
100
AcDbPolyline
90
9
43
0.0
10
114.63543948152963
20
-85.0658553031477
10
114.85669221331275
20
-85.0881726739941
10
115.06289990368168
20
-85.15218680251067
10
115.24960714491681
20
-85.25349071266358
10
115.41235852929856
20
-85.38767742841898
10
115.54669864910737
20
-85.55033997374302
10
115.64817209662361
20
-85.73707137260186
10
115.71232346412773
20
-85.94346464896164
10
115.73469734390012
20
-86.1651128267885
0
LWPOLYLINE
5
136
100
AcDbEntity
8
0
100
AcDbPolyline
90
9
43
0.0
10
115.73469734390012
20
-86.1651128267885
10
115.71232346412773
20
-86.38676105343687
10
115.64817209662361
20
-86.59315438004413
10
115.54669864910737
20
-86.77988582813052
10
115.41235852929856
20
-86.94254841921635
10
115.24960714491681
20
-87.07673517482186
10
115.06289990368168
20
-87.17803911646737
10
114.85669221331275
20
-87.24205326567315
10
114.63543948152963
20
-87.26437064395945
0
LWPOLYLINE
5
137
100
AcDbEntity
8
0
100
AcDbPolyline
90
9
43
0.0
10
114.63543948152963
20
-87.26437064395945
10
114.41373209173605
20
-87.24205326567315
10
114.20718273528824
20
-87.17803911646737
10
114.02023067820133
20
-87.07673517482186
10
113.85731518649034
20
-86.94254841921635
10
113.72287552617038
20
-86.77988582813052
10
113.62135096325649
20
-86.59315438004413
10
113.55718076376378
20
-86.38676105343687
10
113.5348041937073
20
-86.1651128267885
0
LWPOLYLINE
5
138
100
AcDbEntity
8
0
100
AcDbPolyline
90
9
43
0.0
10
113.5348041937073
20
-86.1651128267885
10
113.55718076376378
20
-85.94346464896164
10
113.62135096325649
20
-85.73707137260186
10
113.72287552617038
20
-85.55033997374302
10
113.85731518649034
20
-85.38767742841898
10
114.02023067820133
20
-85.25349071266358
10
114.20718273528824
20
-85.15218680251067
10
114.41373209173605
20
-85.0881726739941
10
114.63543948152963
20
-85.0658553031477
0
LWPOLYLINE
5
139
100
AcDbEntity
8
0
100
AcDbPolyline
90
4
70
1
43
0.0
10
8.4344774406429384
20
-39.807571677490891
10
22.428660969922873
20
-39.807571677490891
10
22.428660969922873
20
-25.813388148210951
10
8.4344774406429384
20
-25.813388148210954
0
LWPOLYLINE
5
140
100
AcDbEntity
8
0
100
AcDbPolyline
90
4
70
1
43
0.0
10
8.4344774406429384
20
-58.800760229682218
10
22.428660969922873
20
-58.800760229682218
10
22.428660969922873
20
-44.805199184551384
10
8.4344774406429384
20
-44.805199184551384
0
LWPOLYLINE
5
141
100
AcDbEntity
8
0
100
AcDbPolyline
90
4
70
1
43
0.0
10
8.4344774406429384
20
-77.792571266022648
10
22.428660969922873
20
-77.792571266022648
10
22.428660969922873
20
-63.798387736742718
10
8.4344774406429384
20
-63.798387736742718
0
LWPOLYLINE
5
142
100
AcDbEntity
8
0
100
AcDbPolyline
90
4
70
1
43
0.0
10
27.424910961132476
20
-39.806194161639986
10
41.419094490412405
20
-39.806194161639986
10
41.419094490412405
20
-25.812010632360053
10
27.424910961132476
20
-25.81201063236005
0
LWPOLYLINE
5
143
100
AcDbEntity
8
0
100
AcDbPolyline
90
4
70
1
43
0.0
10
27.424910961132476
20
-58.799382713831321
10
41.419094490412405
20
-58.799382713831321
10
41.419094490412405
20
-44.805199184551384
10
27.424910961132476
20
-44.805199184551384
0
LWPOLYLINE
5
144
100
AcDbEntity
8
0
100
AcDbPolyline
90
4
70
1
43
0.0
10
27.424910961132476
20
-77.792571266022648
10
41.419094490412405
20
-77.792571266022648
10
41.419094490412405
20
-63.798387736742718
10
27.424910961132476
20
-63.798387736742718
0
LWPOLYLINE
5
145
100
AcDbEntity
8
0
100
AcDbPolyline
90
4
70
1
43
0.0
10
46.418099513323803
20
-35.063407086995745
10
60.412283042603732
20
-35.063407086995745
10
60.412283042603732
20
-21.069223557715816
10
46.418099513323803
20
-21.069223557715809
0
LWPOLYLINE
5
146
100
AcDbEntity
8
0
100
AcDbPolyline
90
4
70
1
43
0.0
10
46.418099513323803
20
-54.05659563918708
10
60.412283042603732
20
-54.05659563918708
10
60.412283042603732
20
-40.061034594056252
10
46.418099513323803
20
-40.061034594056252
0
LWPOLYLINE
5
147
100
AcDbEntity
8
0
100
AcDbPolyline
90
4
70
1
43
0.0
10
46.418099513323803
20
-73.049784191378407
10
60.412283042603732
20
-73.049784191378407
10
60.412283042603732
20
-59.05422314624758
10
46.418099513323803
20
-59.05422314624758
0
LWPOLYLINE
5
148
100
AcDbEntity
8
0
100
AcDbPolyline
90
4
70
1
43
0.0
10
65.412665581366042
20
-32.685814728344589
10
79.406849110645965
20
-32.685814728344589
10
79.406849110645965
20
-18.691631199064652
10
65.412665581366042
20
-18.691631199064652
0
LWPOLYLINE
5
149
100
AcDbEntity
8
0
100
AcDbPolyline
90
4
70
1
43
0.0
10
65.412665581366042
20
-51.679003280535916
10
79.406849110645965
20
-51.679003280535916
10
79.406849110645965
20
-37.683442235405089
10
65.412665581366042
20
-37.683442235405089
0
LWPOLYLINE
5
150
100
AcDbEntity
8
0
100
AcDbPolyline
90
4
70
1
43
0.0
10
65.412665581366042
20
-70.670814316876346
10
79.406849110645965
20
-70.670814316876346
10
79.406849110645965
20
-56.676630787596416
10
65.412665581366042
20
-56.676630787596416
0
LWPOLYLINE
5
151
100
AcDbEntity
8
0
100
AcDbPolyline
90
4
70
1
43
0.0
10
84.405854133557369
20
-35.059274539443052
10
98.401415178688211
20
-35.059274539443052
10
98.401415178688211
20
-21.065091010163115
10
84.405854133557369
20
-21.065091010163115
0
LWPOLYLINE
5
152
100
AcDbEntity
8
0
100
AcDbPolyline
90
4
70
1
43
0.0
10
84.405854133557369
20
-54.052463091634387
10
98.401415178688211
20
-54.052463091634387
10
98.401415178688211
20
-40.056902046503552
10
84.405854133557369
20
-40.056902046503559
0
LWPOLYLINE
5
153
100
AcDbEntity
8
0
100
AcDbPolyline
90
4
70
1
43
0.0
10
84.405854133557369
20
-73.045651643825721
10
98.401415178688211
20
-73.045651643825721
10
98.401415178688211
20
-59.050090598694887
10
84.405854133557369
20
-59.050090598694887
0
LWPOLYLINE
5
154
100
AcDbEntity
8
0
100
AcDbPolyline
90
4
70
1
43
0.0
10
103.40042020159959
20
-37.443754477348712
10
117.39598124673043
20
-37.443754477348712
10
117.39598124673043
20
-23.448193432217877
10
103.40042020159959
20
-23.448193432217881
0
LWPOLYLINE
5
155
100
AcDbEntity
8
0
100
AcDbPolyline
90
4
70
1
43
0.0
10
103.40042020159959
20
-56.436943029540039
10
117.39598124673043
20
-56.436943029540039
10
117.39598124673043
20
-42.441381984409212
10
103.40042020159959
20
-42.441381984409212
0
LWPOLYLINE
5
156
100
AcDbEntity
8
0
100
AcDbPolyline
90
4
70
1
43
0.0
10
103.40042020159959
20
-75.428754065880469
10
117.39598124673043
20
-75.428754065880469
10
117.39598124673043
20
-61.434570536600539
10
103.40042020159959
20
-61.434570536600539
0
LWPOLYLINE
5
157
100
AcDbEntity
8
0
100
AcDbPolyline
90
4
70
1
43
0.0
10
74.928545079374288
20
-92.695915256895745
10
88.922728608654211
20
-92.695915256895745
10
88.922728608654211
20
-78.700354211764903
10
74.928545079374288
20
-78.700354211764903
0
LWPOLYLINE
5
158
100
AcDbEntity
8
0
100
AcDbPolyline
90
4
70
1
43
0.0
10
94.310193260794293
20
-93.355745562560713
10
107.82913366222787
20
-96.977234865861448
10
111.45062299352688
20
-83.459671689704436
10
97.933059948657899
20
-79.83818251769172
0
LWPOLYLINE
5
159
100
AcDbEntity
8
0
100
AcDbPolyline
90
4
70
1
43
0.0
10
115.5721508240611
20
-94.707088562787845
10
127.69153471635127
20
-101.70486926615143
10
134.68793761436726
20
-89.585484629146492
10
122.56855349446803
20
-82.587704106581072
0
LINE
5
160
100
AcDbEntity
8
0
100
AcDbLine
10
62.258154282810956
20
-80.066850280249383
30
0
11
72.79752805804246
21
-94.51836907200537
31
0
0
LINE
5
161
100
AcDbEntity
8
0
100
AcDbLine
10
73.150172125684236
20
-94.665763267353611
30
0
11
109.80724649556122
21
-99.433345537250815
31
0
0
LINE
5
162
100
AcDbEntity
8
0
100
AcDbLine
10
110.46156645330557
20
-99.562832118003897
30
0
11
124.75053837467584
21
-107.82103964413605
31
0
0
LINE
5
163
100
AcDbEntity
8
0
100
AcDbLine
10
126.67492805820291
20
-107.44635515936511
30
0
11
139.02573513754109
21
-85.992923470782046
31
0
0
LINE
5
164
100
AcDbEntity
8
0
100
AcDbLine
10
138.64554058189489
20
-84.06577867755216
30
0
11
119.73224812696242
21
-73.148965683748258
31
0
0
LINE
5
165
100
AcDbEntity
8
0
100
AcDbLine
10
119.38098158785694
20
-72.483625521041716
30
0
11
119.38235910371711
21
-21.942568951565491
31
0
0
LINE
5
166
100
AcDbEntity
8
0
100
AcDbLine
10
6.4260593300346631
20
-79.420795346172312
30
0
11
6.4260591597937307
21
-24.192052354780856
31
0
0
LINE
5
167
100
AcDbEntity
8
0
100
AcDbLine
10
6.9260975839174623
20
-23.69201408220491
30
0
11
43.911020664706029
21
-23.69201408220491
31
0
0
LINE
5
168
100
AcDbEntity
8
0
100
AcDbLine
10
44.911097172441515
20
-18.943716944162755
30
0
11
62.904209216878456
21
-18.943716944162755
31
0
0
LINE
5
169
100
AcDbEntity
8
0
100
AcDbLine
10
63.904285724641483
20
-16.694233559632167
30
0
11
80.897321255399362
21
-16.694233465743437
31
0
0
LINE
5
170
100
AcDbEntity
8
0
100
AcDbLine
10
81.897397931305591
20
-18.943716772237661
30
0
11
99.890509799317499
21
-18.943716775264427
31
0
0
LINE
5
171
100
AcDbEntity
8
0
100
AcDbLine
10
100.88920870714216
20
-21.442530695401448
30
0
11
118.88369838527413
21
-21.442530698428225
31
0
0
LINE
5
172
100
AcDbEntity
8
0
100
AcDbLine
10
44.411058812829289
20
-23.191975636836165
30
0
11
44.411058828635745
21
-19.443755090684945
31
0
0
LINE
5
173
100
AcDbEntity
8
0
100
AcDbLine
10
63.404247398785913
20
-18.443678793124722
30
0
11
63.404247385333591
21
-17.19427183382972
31
0
0
LINE
5
174
100
AcDbEntity
8
0
100
AcDbLine
10
81.39735951519495
20
-18.44367869029211
30
0
11
81.39735951519495
21
-17.194271813508269
31
0
0
LINE
5
175
100
AcDbEntity
8
0
100
AcDbLine
10
100.39054806739814
20
-20.943869959675094
30
0
11
100.39054806739814
21
-19.443755198033404
31
0
0
LINE
5
176
100
AcDbEntity
8
0
100
AcDbLine
10
6.9260975044730069
20
-79.920833594793734
30
0
11
61.904132714507945
21
-79.920833603789958
31
0
0
LWPOLYLINE
5
177
100
AcDbEntity
8
0
100
AcDbPolyline
90
4
70
1
43
0.0
10
83.875202291030902
20
-141.88355526823915
10
69.881018761750994
20
-141.88355526823915
10
69.881018761750994
20
-127.88799422310836
10
83.875202291030902
20
-127.88799422310836
0
LWPOLYLINE
5
178
100
AcDbEntity
8
0
100
AcDbPolyline
90
4
70
1
43
0.0
10
69.881018761750994
20
-146.88118277529966
10
83.875202291030902
20
-146.88118277529966
10
83.875202291030902
20
-160.87536630457959
10
69.881018761750994
20
-160.87536630457959
0
LWPOLYLINE
5
179
100
AcDbEntity
8
0
100
AcDbPolyline
90
4
70
1
43
0.0
10
69.881018761750994
20
-108.89618318676796
10
83.875202291030902
20
-108.89618318676796
10
83.875202291030902
20
-122.89036671604788
10
69.881018761750994
20
-122.89036671604788
0
LINE
5
180
100
AcDbEntity
8
0
100
AcDbLine
10
85.383582147755476
20
-106.89878554733546
30
0
11
68.390546616997611
21
-106.89878545344672
31
0
0
LWPOLYLINE
5
181
100
AcDbEntity
8
0
100
AcDbPolyline
90
4
70
1
43
0.0
10
74.359322793022628
20
-182.90046724459893
10
60.365139263742748
20
-182.90046724459893
10
60.365139263742776
20
-168.90490619946809
10
74.359322793022656
20
-168.90490619946809
0
LWPOLYLINE
5
182
100
AcDbEntity
8
0
100
AcDbPolyline
90
4
70
1
43
0.0
10
21.596333156045713
20
-191.90942125385462
10
14.599930258029783
20
-179.79003661684968
10
26.719314377928978
20
-172.79225609428426
10
33.715717048335904
20
-184.91164055049103
0
LWPOLYLINE
5
183
100
AcDbEntity
8
0
100
AcDbPolyline
90
9
43
0.0
10
48.39728155111606
20
-129.98732859000293
10
48.61898898630443
20
-129.96501121927042
10
48.82553834281804
20
-129.9009970914123
10
49.01249036674754
20
-129.79969318293777
10
49.17540580418358
20
-129.66550647035595
10
49.30984540121679
20
-129.50284393017606
10
49.41136990393782
20
-129.31611253890728
10
49.475540058437296
20
-129.10971927305872
10
49.497916610805866
20
-128.8880711091396
0
LWPOLYLINE
5
184
100
AcDbEntity
8
0
100
AcDbPolyline
90
4
70
1
43
0.0
10
140.85339043175392
20
-116.01794013591427
10
140.85339043175392
20
-130.01212366519417
10
126.85920690247401
20
-130.01212366519417
10
126.85920690247401
20
-116.01794013591424
0
LWPOLYLINE
5
185
100
AcDbEntity
8
0
100
AcDbPolyline
90
4
70
1
43
0.0
10
54.977674611602666
20
-183.5602975502639
10
41.458734210169141
20
-187.18178685356463
10
37.837244878870123
20
-173.66422367740762
10
51.354807923739102
20
-170.04273450539495
0
LWPOLYLINE
5
186
100
AcDbEntity
8
0
100
AcDbPolyline
90
4
70
1
43
0.0
10
140.85339043175392
20
-149.00531221738547
10
126.85920690247401
20
-149.00531221738547
10
126.85920690247401
20
-135.00975117225465
10
140.85339043175392
20
-135.00975117225465
0
LINE
5
187
100
AcDbEntity
8
0
100
AcDbLine
10
10.636817227098536
20
-174.27446338096183
30
0
11
10.642327290502127
21
-174.27033066525536
31
0
0
LWPOLYLINE
5
188
100
AcDbEntity
8
0
100
AcDbPolyline
90
9
43
0.0
10
35.753063678689664
20
-176.36966481449167
10
35.73068710863319
20
-176.14801663666483
10
35.666516909140476
20
-175.94162336030507
10
35.5649923462266
20
-175.75489196144622
10
35.43055268590664
20
-175.5922294161222
10
35.267637194195665
20
-175.45804270036675
10
35.08068513710874
20
-175.35673879021383
10
34.87413578066094
20
-175.2927246616973
10
34.65242839086736
20
-175.2704072908509
0
LWPOLYLINE
5
189
100
AcDbEntity
8
0
100
AcDbPolyline
90
4
70
1
43
0.0
10
50.886452693708776
20
-149.25464258639812
10
64.882013738839618
20
-149.25464258639812
10
64.882013738839618
20
-163.25020363152896
10
50.886452693708776
20
-163.2502036315289
0
LWPOLYLINE
5
190
100
AcDbEntity
8
0
100
AcDbPolyline
90
4
70
1
43
0.0
10
121.8629569112644
20
-135.00975117225465
10
121.8629569112644
20
-149.00393470153458
10
107.86877338198452
20
-149.00393470153458
10
107.86877338198452
20
-135.00975117225465
0
LWPOLYLINE
5
191
100
AcDbEntity
8
0
100
AcDbPolyline
90
4
70
1
43
0.0
10
45.8874476707974
20
-127.64830646505197
10
31.89188662566659
20
-127.64830646505196
10
31.89188662566659
20
-113.65274541992115
10
45.8874476707974
20
-113.65274541992116
0
LWPOLYLINE
5
192
100
AcDbEntity
8
0
100
AcDbPolyline
90
9
43
0.0
10
10.262132734855935
20
-176.1974754584852
10
10.129581810386808
20
-175.95043197866852
10
10.051222139030532
20
-175.68973171303415
10
10.025584735087742
20
-175.4231554787946
10
10.05120061285908
20
-175.15848409316254
10
10.12660078664519
20
-174.90349837335063
10
10.250316270746707
20
-174.66597913657145
10
10.420878079464275
20
-174.45370720003766
10
10.636817227098536
20
-174.2744633809618
0
LWPOLYLINE
5
193
100
AcDbEntity
8
0
100
AcDbPolyline
90
2
43
0.0
10
22.612939814194082
20
-197.6509071470683
10
22.610184950646097
20
-197.64677485174622
0
LWPOLYLINE
5
194
100
AcDbEntity
8
0
100
AcDbPolyline
90
7
43
0.0
10
142.3617702884794
20
-113.89656606990822
10
142.4627513558329
20
-113.90675215385644
10
142.55671033255118
20
-113.93595441373586
10
142.71561975858788
20
-114.04327150949658
10
142.82261405560126
20
-114.2022454536071
10
142.85167912104038
20
-114.29601877392376
10
142.8618087126031
20
-114.39660434248417
0
LWPOLYLINE
5
195
100
AcDbEntity
8
0
100
AcDbPolyline
90
9
43
0.0
10
124.36865824406301
20
-152.47940737630333
10
124.59036570872428
20
-152.45703082249773
10
124.79691508738615
20
-152.3928606658213
10
124.9838671271857
20
-152.2913361633846
10
125.14678257525988
20
-152.15689657229817
10
125.28122217874575
20
-151.99398114967255
10
125.38274668478027
20
-151.80702915261827
10
125.44691684050053
20
-151.6004798382459
10
125.4692933930435
20
-151.37877246366594
0
LWPOLYLINE
5
196
100
AcDbEntity
8
0
100
AcDbPolyline
90
9
43
0.0
10
49.497916610805866
20
-128.8880711091396
10
49.475540058437296
20
-128.66642290032914
10
49.41136990393782
20
-128.46002959459452
10
49.30984540121679
20
-128.2732981687471
10
49.17540580418358
20
-128.11063559959808
10
49.01249036674754
20
-127.97644886395884
10
48.82553834281804
20
-127.87514493864062
10
48.61898898630443
20
-127.81113080045475
10
48.39728155111606
20
-127.7888134262125
0
LWPOLYLINE
5
197
100
AcDbEntity
8
0
100
AcDbPolyline
90
9
43
0.0
10
123.26940059503458
20
-132.63629170553804
10
123.29171796621445
20
-132.85793987461065
10
123.35573209596846
20
-133.0643331647604
10
123.45703600861833
20
-133.25106459336462
10
123.59122272848569
20
-133.41372717780067
10
123.75388527989226
20
-133.5479139354459
10
123.9406166871597
20
-133.64921788367766
10
124.14700997460969
20
-133.71323203987333
10
124.36865816656388
20
-133.73554942141027
0
LWPOLYLINE
5
198
100
AcDbEntity
8
0
100
AcDbPolyline
90
4
70
1
43
0.0
10
50.886452693708776
20
-111.26964299786641
10
64.882013738839618
20
-111.26964299786641
10
64.882013738839618
20
-125.26382652714632
10
50.886452693708776
20
-125.26382652714632
0
LINE
5
199
100
AcDbEntity
8
0
100
AcDbLine
10
85.883620473611032
20
-108.64823078082802
30
0
11
85.883620487063382
21
-107.39882382153303
31
0
0
LINE
5
200
100
AcDbEntity
8
0
100
AcDbLine
10
104.37677069995543
20
-109.14826893186607
30
0
11
86.383658655518488
21
-109.14826893186606
31
0
0
LINE
5
201
100
AcDbEntity
8
0
100
AcDbLine
10
76.13769574671268
20
-184.87031525505677
30
0
11
39.480621376835771
21
-189.63789752495398
31
0
0
LWPOLYLINE
5
202
100
AcDbEntity
8
0
100
AcDbPolyline
90
9
43
0.0
10
34.65242839086736
20
-177.46892263166262
10
34.87413578066094
20
-177.4466052533763
10
35.08068513710874
20
-177.38259110417053
10
35.267637194195665
20
-177.28128716252505
10
35.43055268590664
20
-177.1471004069195
10
35.5649923462266
20
-176.9844378158337
10
35.666516909140476
20
-176.79770636774728
10
35.73068710863319
20
-176.59131304114004
10
35.753063678689664
20
-176.36966481449167
0
LWPOLYLINE
5
203
100
AcDbEntity
8
0
100
AcDbPolyline
90
4
70
1
43
0.0
10
88.87558482979324
20
-163.2543361790816
10
88.87558482979324
20
-149.25877513395082
10
102.86976835907312
20
-149.25877513395082
10
102.86976835907312
20
-163.25433617908163
0
LWPOLYLINE
5
204
100
AcDbEntity
8
0
100
AcDbPolyline
90
9
43
0.0
10
125.4692933930435
20
-151.37877246366594
10
125.44691684050053
20
-151.1571241679236
10
125.38274668478027
20
-150.95073081608712
10
125.28122217874575
20
-150.7639993759558
10
125.14678257525988
20
-150.6013368153288
10
124.9838671271857
20
-150.46715010200546
10
124.79691508738615
20
-150.36584620378494
10
124.59036570872428
20
-150.3018320884665
10
124.36865824406301
20
-150.27951472384945
0
LWPOLYLINE
5
205
100
AcDbEntity
8
0
100
AcDbPolyline
90
4
70
1
43
0.0
10
102.86976835907312
20
-130.26558658175952
10
102.86976835907312
20
-144.26114762689033
10
88.87558482979324
20
-144.26114762689031
10
88.87558482979324
20
-130.26558658175952
0
LINE
5
206
100
AcDbEntity
8
0
100
AcDbLine
10
22.612939814194082
20
-197.6509071470683
30
0
11
10.262132734855935
21
-176.19747545848523
31
0
0
LWPOLYLINE
5
207
100
AcDbEntity
8
0
100
AcDbPolyline
90
4
70
1
43
0.0
10
126.85920690247401
20
-154.00293972444598
10
140.85339043175392
20
-154.00293972444598
10
140.85339043175392
20
-167.99712325372587
10
126.85920690247401
20
-167.99712325372587
0
LWPOLYLINE
5
208
100
AcDbEntity
8
0
100
AcDbPolyline
90
9
43
0.0
10
124.36865816656388
20
-131.53703412337595
10
124.14700997460969
20
-131.55935149085784
10
123.9406166871597
20
-131.62336561172606
10
123.75388527989226
20
-131.72466951361434
10
123.59122272848569
20
-131.85885622415645
10
123.45703600861833
20
-132.0215187709861
10
123.35573209596846
20
-132.20825018173707
10
123.29171796621445
20
-132.41464348404315
10
123.26940059503458
20
-132.63629170553804
0
LWPOLYLINE
5
209
100
AcDbEntity
8
0
100
AcDbPolyline
90
9
43
0.0
10
34.65242839086736
20
-175.2704072908509
10
34.43117565908423
20
-175.2927246616973
10
34.22496796871531
20
-175.35673879021383
10
34.03826072748017
20
-175.45804270036675
10
33.875509343098415
20
-175.5922294161222
10
33.74116922328962
20
-175.75489196144622
10
33.63969577577337
20
-175.94162336030507
10
33.57554440826925
20
-176.14801663666483
10
33.553170528496864
20
-176.36966481449167
0
LWPOLYLINE
5
210
100
AcDbEntity
8
0
100
AcDbPolyline
90
4
70
1
43
0.0
10
31.89188662566659
20
-132.64593397211246
10
45.8874476707974
20
-132.64593397211246
10
45.8874476707974
20
-146.64149501724327
10
31.89188662566659
20
-146.64149501724327
0
LWPOLYLINE
5
211
100
AcDbEntity
8
0
100
AcDbPolyline
90
9
43
0.0
10
123.26940066323517
20
-151.37877246366594
10
123.29177452693958
20
-151.6004798382459
10
123.35592585290766
20
-151.80702915261827
10
123.45739924342173
20
-151.99398114967255
10
123.59173930076412
20
-152.15689657229817
10
123.75449062721714
20
-152.2913361633846
10
123.94119782506309
20
-152.3928606658213
10
124.14740549658427
20
-152.45703082249773
10
124.36865824406301
20
-152.47940737630333
0
LWPOLYLINE
5
212
100
AcDbEntity
8
0
100
AcDbPolyline
90
3
43
0.0
10
38.82630141909144
20
-189.76738410570704
10
39.15036198415853
20
-189.6871437279697
10
39.480621376835764
20
-189.637897524954
0
LWPOLYLINE
5
213
100
AcDbEntity
8
0
100
AcDbPolyline
90
9
43
0.0
10
124.36865816656388
20
-133.73554942141027
10
124.5903655278426
20
-133.71323203987333
10
124.7969148594573
20
-133.64921788367766
10
124.98386689543
20
-133.5479139354459
10
125.14678236978263
20
-133.41372717780067
10
125.28122201653716
20
-133.25106459336462
10
125.38274656971556
20
-133.0643331647604
10
125.44691676333984
20
-132.85793987461065
10
125.46929333143194
20
-132.63629170553804
0
LWPOLYLINE
5
214
100
AcDbEntity
8
0
100
AcDbPolyline
90
4
70
1
43
0.0
10
102.86976835907312
20
-111.27377554541911
10
102.86976835907312
20
-125.26795907469904
10
88.87558482979324
20
-125.26795907469904
10
88.87558482979324
20
-111.27377554541911
0
LWPOLYLINE
5
215
100
AcDbEntity
8
0
100
AcDbPolyline
90
4
70
1
43
0.0
10
107.86877338198452
20
-167.99712325372585
10
107.86877338198452
20
-154.00293972444595
10
121.8629569112644
20
-154.00293972444598
10
121.8629569112644
20
-167.99712325372587
0
LWPOLYLINE
5
216
100
AcDbEntity
8
0
100
AcDbPolyline
90
4
70
1
43
0.0
10
50.886452693708776
20
-144.25701507933763
10
50.886452693708776
20
-130.26145403420682
10
64.882013738839618
20
-130.26145403420682
10
64.882013738839618
20
-144.25701507933763
0
LWPOLYLINE
5
217
100
AcDbEntity
8
0
100
AcDbPolyline
90
7
43
0.0
10
48.897319804998865
20
-111.14842194737837
10
48.88719291534927
20
-111.24894826992886
10
48.858146713345384
20
-111.34256551534543
10
48.751303173944244
20
-111.50106594013916
10
48.59280279013441
20
-111.60790955248409
10
48.499185532619634
20
-111.63695578233965
10
48.398659165254806
20
-111.64708268310473
0
LWPOLYLINE
5
218
100
AcDbEntity
8
0
100
AcDbPolyline
90
9
43
0.0
10
33.553170528496864
20
-176.36966481449167
10
33.57554440826925
20
-176.59131304114004
10
33.63969577577337
20
-176.79770636774728
10
33.74116922328962
20
-176.9844378158337
10
33.875509343098415
20
-177.1471004069195
10
34.03826072748017
20
-177.28128716252505
10
34.22496796871531
20
-177.38259110417053
10
34.43117565908423
20
-177.4466052533763
10
34.65242839086736
20
-177.46892263166262
0
LWPOLYLINE
5
219
100
AcDbEntity
8
0
100
AcDbPolyline
90
7
43
0.0
10
105.3768472076909
20
-113.8965660699082
10
105.27586612884723
20
-113.88643648855425
10
105.18190717243463
20
-113.85737144771817
10
105.02299784508526
20
-113.75037720695404
10
104.91600366200788
20
-113.5914677863248
10
104.8869386359353
20
-113.49750877065733
10
104.87680905956762
20
-113.39652762453946
0
LWPOLYLINE
5
220
100
AcDbEntity
8
0
100
AcDbPolyline
90
9
43
0.0
10
80.03606539907034
20
-168.62251572916918
10
80.05838278262183
20
-168.8442231181998
10
80.1223969450373
20
-169.05077247066956
10
80.2237009039582
20
-169.2377245215856
10
80.35788767702606
20
-169.40064000595518
10
80.52055028188228
20
-169.5350796587856
10
80.70728173616838
20
-169.63660421508408
10
80.91367505752584
20
-169.70077440985781
10
81.13532326359612
20
-169.72315097811412
0
LWPOLYLINE
5
221
100
AcDbEntity
8
0
100
AcDbPolyline
90
3
43
0.0
10
87.02971358958597
20
-170.2714022679526
10
87.19174395384101
20
-170.1632672099271
10
87.38373515788902
20
-170.12538559149314
0
LINE
5
222
100
AcDbEntity
8
0
100
AcDbLine
10
142.86180854236218
20
-169.62534733387554
30
0
11
142.86180871260311
21
-114.39660434248417
31
0
0
LWPOLYLINE
5
223
100
AcDbEntity
8
0
100
AcDbPolyline
90
9
43
0.0
10
48.39728155111606
20
-127.7888134262125
10
48.17602877416442
20
-127.81113080045475
10
47.96982108049497
20
-127.87514493864062
10
47.783113866779004
20
-127.97644886395884
10
47.620362529687846
20
-128.11063559959808
10
47.4860224658928
20
-128.2732981687471
10
47.384549072065205
20
-128.46002959459452
10
47.32039774487634
20
-128.66642290032914
10
47.29802388099754
20
-128.8880711091396
0
LINE
5
224
100
AcDbEntity
8
0
100
AcDbLine
10
38.82630141909145
20
-189.76738410570704
30
0
11
24.537329497721156
21
-198.02559163183923
31
0
0
LWPOLYLINE
5
225
100
AcDbEntity
8
0
100
AcDbPolyline
90
9
43
0.0
10
81.13532326359612
20
-169.72315097811412
10
81.35697144809336
20
-169.70077440985781
10
81.56336471919171
20
-169.63660421508408
10
81.75009610426082
20
-169.5350796587856
10
81.9127586306703
20
-169.40064000595518
10
82.04694532578979
20
-169.2377245215856
10
82.14824921698893
20
-169.05077247066956
10
82.21226333163736
20
-168.8442231181998
10
82.23458069710469
20
-168.62251572916918
0
LWPOLYLINE
5
226
100
AcDbEntity
8
0
100
AcDbPolyline
90
4
70
1
43
0.0
10
107.86877338198452
20
-116.01656262006335
10
121.8629569112644
20
-116.01656262006335
10
121.8629569112644
20
-130.01074614934328
10
107.86877338198452
20
-130.01074614934328
0
LWPOLYLINE
5
227
100
AcDbEntity
8
0
100
AcDbPolyline
90
7
43
0.0
10
85.38358214775546
20
-106.89878554733546
10
85.48456318711312
20
-106.90897163135337
10
85.5785221427931
20
-106.93817389141647
10
85.73743154365012
20
-107.04549098773462
10
85.84442583138677
20
-107.2044649324026
10
85.87349089566632
20
-107.29823825290296
10
85.88362048706338
20
-107.39882382153301
0
LINE
5
228
100
AcDbEntity
8
0
100
AcDbLine
10
142.36177028847939
20
-113.89656606990823
30
0
11
105.37684720769091
21
-113.8965660699082
31
0
0
LWPOLYLINE
5
229
100
AcDbEntity
8
0
100
AcDbPolyline
90
9
43
0.0
10
125.46929333143194
20
-132.63629170553804
10
125.44691676333984
20
-132.41464348404315
10
125.38274656971556
20
-132.20825018173707
10
125.28122201653716
20
-132.0215187709861
10
125.14678236978263
20
-131.85885622415645
10
124.98386689543
20
-131.72466951361434
10
124.7969148594573
20
-131.62336561172606
10
124.5903655278426
20
-131.55935149085784
10
124.36865816656388
20
-131.53703412337595
0
LWPOLYLINE
5
230
100
AcDbEntity
8
0
100
AcDbPolyline
90
9
43
0.0
10
81.13532326359612
20
-167.5232581453855
10
80.91367505752584
20
-167.54563201159277
10
80.70728173616838
20
-167.6097833436657
10
80.52055028188228
20
-167.7112567417808
10
80.35788767702606
20
-167.84559680611466
10
80.2237009039582
20
-168.0083481368438
10
80.1223969450373
20
-168.1950553341449
10
80.05838278262183
20
-168.4012629981945
10
80.03606539907034
20
-168.62251572916918
0
LWPOLYLINE
5
231
100
AcDbEntity
8
0
100
AcDbPolyline
90
7
43
0.0
10
48.897319804998865
20
-109.64830718573668
10
48.90750588875393
20
-109.54772159240608
10
48.93670814812411
20
-109.45394824647778
10
49.044025242339565
20
-109.29497425372884
10
49.202999184904826
20
-109.18765712129161
10
49.29677250471226
20
-109.15845485075289
10
49.39735807307949
20
-109.14826876296772
0
LWPOLYLINE
5
232
100
AcDbEntity
8
0
100
AcDbPolyline
90
5
43
0.0
10
29.90688628454011
20
-162.68817750874493
10
29.879120743046677
20
-162.88182607559438
10
29.80873831322163
20
-163.06165649181978
10
29.699613234279465
20
-163.22108245718442
10
29.555619745434658
20
-163.35351767145144
0
LWPOLYLINE
5
233
100
AcDbEntity
8
0
100
AcDbPolyline
90
7
43
0.0
10
104.37677069995542
20
-109.14826893186607
10
104.47735626722199
20
-109.15845501212215
10
104.57112959356373
20
-109.18765726190945
10
104.73010356287044
20
-109.29497432419197
10
104.83742068667108
20
-109.45394822694206
10
104.86662295613023
20
-109.54772152731387
10
104.87680904376117
20
-109.64830707838824
0
LWPOLYLINE
5
234
100
AcDbEntity
8
0
100
AcDbPolyline
90
4
70
1
43
0.0
10
45.8874476707974
20
-165.63330605358368
10
31.89188662566659
20
-165.63330605358368
10
31.89188662566659
20
-151.63912252430376
10
45.8874476707974
20
-151.63912252430376
0
LWPOLYLINE
5
235
100
AcDbEntity
8
0
100
AcDbPolyline
90
9
43
0.0
10
82.23458069710469
20
-168.62251572916918
10
82.21226333163736
20
-168.4012629981945
10
82.14824921698893
20
-168.1950553341449
10
82.04694532578979
20
-168.0083481368438
10
81.9127586306703
20
-167.84559680611466
10
81.75009610426082
20
-167.7112567417808
10
81.56336471919171
20
-167.6097833436657
10
81.35697144809336
20
-167.54563201159277
10
81.13532326359612
20
-167.5232581453855
0
LINE
5
236
100
AcDbEntity
8
0
100
AcDbLine
10
142.36177036792387
20
-170.12538558249696
30
0
11
87.383735157889021
21
-170.12538559149317
31
0
0
LINE
5
237
100
AcDbEntity
8
0
100
AcDbLine
10
48.897319804998872
20
-111.14842194737838
30
0
11
48.897319804998872
21
-109.64830718573668
31
0
0
LWPOLYLINE
5
238
100
AcDbEntity
8
0
100
AcDbPolyline
90
7
43
0.0
10
86.38365865551849
20
-109.14826893186604
10
86.28307304513395
20
-109.13813934764103
10
86.18929971362789
20
-109.10907430246027
10
86.03032580814914
20
-109.0020800741975
10
85.92300878087822
20
-108.84317073700946
10
85.8938065471319
20
-108.74921180567218
10
85.88362047361103
20
-108.64823078082802
0
LINE
5
239
100
AcDbEntity
8
0
100
AcDbLine
10
48.398659165254841
20
-111.64708268310474
30
0
11
30.404169487122896
21
-111.64708268613151
31
0
0
LWPOLYLINE
5
240
100
AcDbEntity
8
0
100
AcDbPolyline
90
7
43
0.0
10
142.86180854236218
20
-169.6253473338755
10
142.8516789579938
20
-169.72632834329957
10
142.82261391225595
20
-169.82028727648503
10
142.71561968087568
20
-169.97919665041948
10
142.55671033662907
20
-170.0861909282373
10
142.4627513998083
20
-170.115255991277
10
142.36177036792384
20
-170.12538558249693
0
LINE
5
241
100
AcDbEntity
8
0
100
AcDbLine
10
67.390469941091368
20
-109.14826875994095
30
0
11
49.397358073079488
21
-109.14826876296772
31
0
0
LWPOLYLINE
5
242
100
AcDbEntity
8
0
100
AcDbPolyline
90
7
43
0.0
10
29.90550876867994
20
-112.14712093926877
10
29.915635662573248
20
-112.04653540192987
10
29.94468187558595
20
-111.95276209807818
10
30.05152544696622
20
-111.79378815568867
10
30.210025858814088
20
-111.6864710418049
10
30.303643122411287
20
-111.65726877358537
10
30.404169487122896
20
-111.6470826861315
0
LINE
5
243
100
AcDbEntity
8
0
100
AcDbLine
10
104.87680905956763
20
-113.39652762453946
30
0
11
104.87680904376118
21
-109.64830707838826
31
0
0
LINE
5
244
100
AcDbEntity
8
0
100
AcDbLine
10
10.642327290502127
20
-174.27033066525536
30
0
11
29.555619745434623
21
-163.35351767145144
31
0
0
LWPOLYLINE
5
245
100
AcDbEntity
8
0
100
AcDbPolyline
90
9
43
0.0
10
24.537329497721156
20
-198.0255916318392
10
24.290283311480252
20
-198.15853803148818
10
24.029564223758587
20
-198.23708333305797
10
23.762936896125122
20
-198.26274494841033
10
23.49816599014881
20
-198.23704028940682
10
23.243016167398594
20
-198.1614867679092
10
23.005252089443434
20
-198.0376017957791
10
22.792638417852277
20
-197.86690278487825
10
22.612939814194082
20
-197.6509071470683
0
LINE
5
246
100
AcDbEntity
8
0
100
AcDbLine
10
87.029713589585981
20
-170.27140226795262
30
0
11
76.490339814354456
21
-184.7229210597086
31
0
0
LINE
5
247
100
AcDbEntity
8
0
100
AcDbLine
10
67.890508357202023
20
-108.64823067799541
30
0
11
67.890508357202023
21
-107.39882380121158
31
0
0
LWPOLYLINE
5
248
100
AcDbEntity
8
0
100
AcDbPolyline
90
7
43
0.0
10
67.89050835720201
20
-108.64823067799541
10
67.88037877624313
20
-108.74921172896045
10
67.85131373662772
20
-108.84317066612519
10
67.74431950099469
20
-109.00207997481333
10
67.58541008943764
20
-109.10907415557888
10
67.49145107991724
20
-109.13813918284042
10
67.39046994109135
20
-109.14826875994095
0
LWPOLYLINE
5
249
100
AcDbEntity
8
0
100
AcDbPolyline
90
9
43
0.0
10
47.29802388099754
20
-128.8880711091396
10
47.32039774487634
20
-129.10971927305872
10
47.384549072065205
20
-129.31611253890728
10
47.4860224658928
20
-129.50284393017606
10
47.620362529687846
20
-129.66550647035595
10
47.783113866779004
20
-129.79969318293777
10
47.96982108049497
20
-129.9009970914123
10
48.17602877416442
20
-129.96501121927042
10
48.39728155111606
20
-129.98732859000293
0
LWPOLYLINE
5
250
100
AcDbEntity
8
0
100
AcDbPolyline
90
3
43
0.0
10
76.49033981435446
20
-184.72292105970857
10
76.32848169722973
20
-184.83174477979
10
76.13769574671268
20
-184.87031525505677
0
LWPOLYLINE
5
251
100
AcDbEntity
8
0
100
AcDbPolyline
90
9
43
0.0
10
124.36865824406301
20
-150.27951472384945
10
124.14740549658427
20
-150.3018320884665
10
123.94119782506309
20
-150.36584620378494
10
123.75449062721714
20
-150.46715010200546
10
123.59173930076412
20
-150.6013368153288
10
123.45739924342173
20
-150.7639993759558
10
123.35592585290766
20
-150.95073081608712
10
123.29177452693958
20
-151.1571241679236
10
123.26940066323517
20
-151.37877246366594
0
LWPOLYLINE
5
252
100
AcDbEntity
8
0
100
AcDbPolyline
90
7
43
0.0
10
67.89050835720201
20
-107.39882380121156
10
67.9006379452381
20
-107.29823823263818
10
67.92970300064532
20
-107.20446490531441
10
68.03669726136714
20
-107.04549093483234
10
68.1956066349553
20
-106.93817381059868
10
68.28956558144544
20
-106.9089715410854
10
68.3905466169976
20
-106.89878545344672
0
LINE
5
253
100
AcDbEntity
8
0
100
AcDbLine
10
29.906886284540111
20
-162.68817750874493
30
0
11
29.90550876867994
21
-112.14712093926877
31
0
0
ENDSEC
0
SECTION
2
OBJECTS
0
DICTIONARY
5
C
100
AcDbDictionary
3
ACAD_GROUP
350
D
3
ACAD_MLINESTYLE
350
17
0
DICTIONARY
5
D
100
AcDbDictionary
0
DICTIONARY
5
1A
330
C
100
AcDbDictionary
0
DICTIONARY
5
17
100
AcDbDictionary
0
ENDSEC
0
EOF
