0
SECTION
2
HEADER
9
$INSUNITS
70
4
9
$ACADVER
1
AC1014
9
$HANDSEED
5
FFFF
0
ENDSEC
0
SECTION
2
TABLES
0
TABLE
2
VPORT
5
8
100
AcDbSymbolTable
0
ENDTAB
0
TABLE
2
LTYPE
5
5
100
AcDbSymbolTable
0
LTYPE
5
14
100
AcDbSymbolTableRecord
100
AcDbLinetypeTableRecord
2
BYBLOCK
70
0
0
LTYPE
5
15
100
AcDbSymbolTableRecord
100
AcDbLinetypeTableRecord
2
BYLAYER
70
0
0
ENDTAB
0
TABLE
2
LAYER
5
2
100
AcDbSymbolTable
70
2
0
LAYER
5
50
100
AcDbSymbolTableRecord
100
AcDbLayerTableRecord
2
0
70
0
6
CONTINUOUS
0
ENDTAB
0
TABLE
2
STYLE
5
3
100
AcDbSymbolTable
70
1
0
STYLE
5
11
100
AcDbSymbolTableRecord
100
AcDbTextStyleTableRecord
2
STANDARD
70
0
0
ENDTAB
0
TABLE
2
VIEW
5
6
100
AcDbSymbolTable
70
0
0
ENDTAB
0
TABLE
2
UCS
5
7
100
AcDbSymbolTable
70
0
0
ENDTAB
0
TABLE
2
APPID
5
9
100
AcDbSymbolTable
70
2
0
APPID
5
12
100
AcDbSymbolTableRecord
100
AcDbRegAppTableRecord
2
ACAD
70
0
0
ENDTAB
0
TABLE
2
DIMSTYLE
5
A
100
AcDbSymbolTable
70
1
0
ENDTAB
0
TABLE
2
BLOCK_RECORD
5
1
100
AcDbSymbolTable
70
1
0
BLOCK_RECORD
5
1F
100
AcDbSymbolTableRecord
100
AcDbBlockTableRecord
2
*MODEL_SPACE
0
BLOCK_RECORD
5
1B
100
AcDbSymbolTableRecord
100
AcDbBlockTableRecord
2
*PAPER_SPACE
0
ENDTAB
0
ENDSEC
0
SECTION
2
BLOCKS
0
BLOCK
5
20
100
AcDbEntity
100
AcDbBlockBegin
2
*MODEL_SPACE
0
ENDBLK
5
21
100
AcDbEntity
100
AcDbBlockEnd
0
BLOCK
5
1C
100
AcDbEntity
100
AcDbBlockBegin
2
*PAPER_SPACE
0
ENDBLK
5
1D
100
AcDbEntity
100
AcDbBlockEnd
0
ENDSEC
0
SECTION
2
ENTITIES
0
LWPOLYLINE
5
100
100
AcDbEntity
8
0
100
AcDbPolyline
90
5
43
0.0
10
139.8547086034441
20
-84.56001771485342
10
139.95464548699712
20
-84.35455325826925
10
140.0263293153851
20
-84.13900836574356
10
140.06860334206962
20
-83.91586242817844
10
140.08031082051218
20
-83.68759483647605
0
LWPOLYLINE
5
101
100
AcDbEntity
8
0
100
AcDbPolyline
90
9
43
0.0
10
124.71327359333728
20
-107.85467295999304
10
124.96049746978805
20
-107.98702643828058
10
125.22116751625072
20
-108.06518301320085
10
125.48757969488709
20
-108.09062996632107
10
125.75202996785893
20
-108.06485457920839
10
126.00681429732803
20
-107.98934413343002
10
126.24422864545616
20
-107.86558591055312
10
126.4565689744051
20
-107.6950671921449
10
126.63613124633663
20
-107.4792752597725
0
LWPOLYLINE
5
102
100
AcDbEntity
8
0
100
AcDbPolyline
90
2
43
0.0
10
126.63613124633663
20
-107.4792752597725
10
126.63965964263639
20
-107.47574686347275
0
LWPOLYLINE
5
103
100
AcDbEntity
8
0
100
AcDbPolyline
90
3
43
0.0
10
110.43015325506171
20
-99.59923680532543
10
110.1065250889648
20
-99.5190417629783
10
109.77628117980586
20
-99.47057404940121
0
LINE
5
104
100
AcDbEntity
8
0
100
AcDbLine
10
73.134380442981652
20
-94.703075967398945
30
0
11
109.77628117980588
21
-99.470574049401222
31
0
0
LWPOLYLINE
5
105
100
AcDbEntity
8
0
100
AcDbPolyline
90
3
43
0.0
10
72.78188504679211
20
-94.55678736593465
10
72.94359222911427
20
-94.66562239028954
10
73.13438044298165
20
-94.70307596739895
0
LINE
5
106
100
AcDbEntity
8
0
100
AcDbLine
10
119.34829323304037
20
-22.011473590238136
30
0
11
119.34829323304037
21
-23.261070468954905
31
0
0
LWPOLYLINE
5
107
100
AcDbEntity
8
0
100
AcDbPolyline
90
7
43
0.0
10
119.34829323304037
20
-22.011473590238133
10
119.33813474360073
20
-21.911102012782397
10
119.30899494607056
20
-21.8175461760329
10
119.20178545147057
20
-21.6589781940486
10
119.04269279870456
20
-21.551962583077227
10
118.94869905346685
20
-21.522847210093882
10
118.84774503723669
20
-21.51269228191077
0
LWPOLYLINE
5
108
100
AcDbEntity
8
0
100
AcDbPolyline
90
7
43
0.0
10
119.34829323304037
20
-23.261070468954905
10
119.35837591709074
20
-23.36202386800566
10
119.38731586404924
20
-23.456016822728476
10
119.49391891553522
20
-23.61510768961364
10
119.65240512518722
20
-23.722315650457134
10
119.74619901985328
20
-23.751454972627858
10
119.8470772306942
20
-23.76161328610569
0
LINE
5
109
100
AcDbEntity
8
0
100
AcDbLine
10
139.58152682285839
20
-23.761613286105693
30
0
11
119.8470772306942
21
-23.761613286105693
31
0
0
LWPOLYLINE
5
110
100
AcDbEntity
8
0
100
AcDbPolyline
90
7
43
0.0
10
6.438728197342645
20
-79.46646031564525
10
6.448883097949657
20
-79.56683200865798
10
6.477998403962468
20
-79.66038815005774
10
6.585013857356119
20
-79.81895705649801
10
6.743581807824874
20
-79.92597359192534
10
6.837137735181564
20
-79.95508926955895
10
6.937509505670006
20
-79.96524431329905
0
LWPOLYLINE
5
111
100
AcDbEntity
8
0
100
AcDbPolyline
90
7
43
0.0
10
6.937509505670006
20
-23.76161328610569
10
6.837137735181564
20
-23.77169590975127
10
6.743581807824874
20
-23.800635686000586
10
6.585013857356119
20
-23.90723812818603
10
6.477998403962468
20
-24.06572347641314
10
6.448883097949657
20
-24.15951688521455
10
6.438728197342645
20
-24.260394594433052
0
LWPOLYLINE
5
112
100
AcDbEntity
8
0
100
AcDbPolyline
90
7
43
0.0
10
43.90898854335728
20
-23.76161328610569
10
44.009360120813014
20
-23.751454972627858
10
44.10291595756251
20
-23.722315650457134
10
44.261483939546814
20
-23.61510768961364
10
44.368499550518194
20
-23.456016822728476
10
44.39761492350153
20
-23.36202386800566
10
44.40776985168464
20
-23.261070468954905
0
LWPOLYLINE
5
113
100
AcDbEntity
8
0
100
AcDbPolyline
90
7
43
0.0
10
44.90655116001201
20
-19.01526272262711
10
44.80617958255627
20
-19.025417623234123
10
44.71262374580677
20
-19.054532929246932
10
44.554055763822475
20
-19.161548382640586
10
44.447040152851095
20
-19.32011633310934
10
44.417924779867754
20
-19.41367226046603
10
44.40776985168464
20
-19.514044030954473
0
LWPOLYLINE
5
114
100
AcDbEntity
8
0
100
AcDbPolyline
90
7
43
0.0
10
62.892629288448184
20
-19.01526272262711
10
62.99358307356436
20
-19.00510440783613
10
63.087576209501556
20
-18.975965076473372
10
63.24666701335563
20
-18.86875704209361
10
63.35387465904368
20
-18.709665975609997
10
63.38301384727335
20
-18.615672854117424
10
63.39317210559898
20
-18.51471923314471
0
LWPOLYLINE
5
115
100
AcDbEntity
8
0
100
AcDbPolyline
90
7
43
0.0
10
63.89195072459989
20
-16.766342390763803
10
63.79157926270115
20
-16.776497290057666
10
63.69802373060191
20
-16.805612586878446
10
63.53945667307358
20
-16.912627966735826
10
63.432441986558175
20
-17.071195717606134
10
63.40332691822509
20
-17.164751478193068
10
63.39317210559898
20
-17.265123026759554
0
LWPOLYLINE
5
116
100
AcDbEntity
8
0
100
AcDbPolyline
90
7
43
0.0
10
81.37748872521172
20
-17.265123026759554
10
81.36740604116135
20
-17.164751478193068
10
81.33846609420283
20
-17.071195717606134
10
81.23186304271687
20
-16.912627966735826
10
81.07337683306487
20
-16.805612586878446
10
80.97958293839883
20
-16.77649729005767
10
80.87870472755792
20
-16.766342390763803
0
LWPOLYLINE
5
117
100
AcDbEntity
8
0
100
AcDbPolyline
90
7
43
0.0
10
81.37748872521172
20
-18.51471923314471
10
81.38764698353734
20
-18.615672854117424
10
81.41678617176701
20
-18.709665975609997
10
81.52399381745505
20
-18.86875704209361
10
81.68308462130913
20
-18.975965076473372
10
81.77707775724635
20
-19.00510440783613
10
81.87803154236252
20
-19.01526272262711
0
LWPOLYLINE
5
118
100
AcDbEntity
8
0
100
AcDbPolyline
90
7
43
0.0
10
100.36288560047313
20
-19.514044030954473
10
100.35273101896102
20
-19.41367226046603
10
100.32361655992845
20
-19.32011633310934
10
100.21660372232499
20
-19.161548382640586
10
100.0580385137086
20
-19.054532929246932
10
99.96448359090988
20
-19.025417623234123
10
99.86411236012515
20
-19.01526272262711
0
LWPOLYLINE
5
119
100
AcDbEntity
8
0
100
AcDbPolyline
90
7
43
0.0
10
100.36288560047313
20
-21.012149464759986
10
100.37304408991277
20
-21.11310286381074
10
100.40218388744294
20
-21.207095818533556
10
100.50939338204294
20
-21.36618668541872
10
100.66848603480895
20
-21.473394646262214
10
100.76247978004668
20
-21.50253396843294
10
100.86343379627685
20
-21.51269228191077
0
LWPOLYLINE
5
120
100
AcDbEntity
8
0
100
AcDbPolyline
90
7
43
0.0
10
140.08031082051218
20
-24.260394594433052
10
140.0702281364618
20
-24.15951688521455
10
140.0412881895033
20
-24.06572347641314
10
139.93468513801733
20
-23.90723812818603
10
139.77619892836535
20
-23.800635686000586
10
139.6824050336993
20
-23.77169590975127
10
139.58152682285836
20
-23.76161328610569
0
LINE
5
121
100
AcDbEntity
8
0
100
AcDbLine
10
118.84774503723669
20
-21.512692281910766
30
0
11
100.86343379627685
21
-21.512692281910773
31
0
0
LINE
5
122
100
AcDbEntity
8
0
100
AcDbLine
10
7.5085516709913458
20
-103.13123680251445
30
0
11
66.214899473265106
21
-103.13123680251445
31
0
0
LWPOLYLINE
5
123
100
AcDbEntity
8
0
100
AcDbPolyline
90
9
43
0.0
10
66.2148994732651
20
-103.13123680251445
10
66.35172161411695
20
-103.11271368841746
10
66.47175208386597
20
-103.06104101206672
10
66.57158298064348
20
-102.98206377237254
10
66.64780640258083
20
-102.88162696824526
10
66.69701444780937
20
-102.7655755985952
10
66.71579921446042
20
-102.63975466233272
10
66.70075280066531
20
-102.51000915836809
10
66.64846730455541
20
-102.3821840856117
0
LINE
5
124
100
AcDbEntity
8
0
100
AcDbLine
10
66.648467304555425
20
-102.3821840856117
30
0
11
55.853295796250997
21
-83.678779224379582
31
0
0
LWPOLYLINE
5
125
100
AcDbEntity
8
0
100
AcDbPolyline
90
5
43
0.0
10
55.853295796251
20
-83.67877922437958
10
55.77368131225082
20
-83.57424241602018
10
55.671099308053286
20
-83.49548280166466
10
55.55166329500628
20
-83.44580421885436
10
55.42148678445765
20
-83.42851050513063
0
LINE
5
126
100
AcDbEntity
8
0
100
AcDbLine
10
55.421486784457656
20
-83.428510505130632
30
0
11
7.5120767056330351
21
-83.428510505130632
31
0
0
LWPOLYLINE
5
127
100
AcDbEntity
8
0
100
AcDbPolyline
90
7
43
0.0
10
7.512076705633035
20
-83.42851050513063
10
7.411123277693027
20
-83.43866876345625
10
7.317130246807646
20
-83.46780795168593
10
7.158039148808489
20
-83.57501559737396
10
7.050830956851005
20
-83.73410640122806
10
7.021691558517716
20
-83.82809953716524
10
7.011533216150634
20
-83.92905332228142
0
LINE
5
128
100
AcDbEntity
8
0
100
AcDbLine
10
7.0115332161506352
20
-83.929053322281419
30
0
11
7.0097710349955964
21
-102.63246356216644
31
0
0
LWPOLYLINE
5
129
100
AcDbEntity
8
0
100
AcDbPolyline
90
7
43
0.0
10
7.009771034995596
20
-102.63246356216644
10
7.0199259342894615
20
-102.73333822225604
10
7.0490412311102375
20
-102.827129448606
10
7.15605661096762
20
-102.98561246468283
10
7.314624361837927
20
-103.09221433958847
10
7.408180122424861
20
-103.12115413947446
10
7.508551670991346
20
-103.13123680251445
0
LWPOLYLINE
5
130
100
AcDbEntity
8
0
100
AcDbPolyline
90
9
43
0.0
10
24.92358628944296
20
-60.12856266554139
10
25.14491500920748
20
-60.15087940025387
10
25.351207599749532
20
-60.21489668379619
10
25.538002783647368
20
-60.3162151352756
10
25.700839283479223
20
-60.450435373799394
10
25.835255821823353
20
-60.61315801847483
10
25.936791121258
20
-60.7999836884092
10
26.000983904361405
20
-61.00651300270976
10
26.02337289371182
20
-61.2283465804838
0
LWPOLYLINE
5
131
100
AcDbEntity
8
0
100
AcDbPolyline
90
9
43
0.0
10
26.02337289371182
20
-61.2283465804838
10
26.000983904361405
20
-61.44959961041606
10
25.936791121258
20
-61.65569265503672
10
25.835255821823353
20
-61.84220572228705
10
25.700839283479223
20
-62.00471882010835
10
25.538002783647368
20
-62.13881195644193
10
25.351207599749532
20
-62.240065139229074
10
25.14491500920748
20
-62.30405837641108
10
24.92358628944296
20
-62.32637167592924
0
LWPOLYLINE
5
132
100
AcDbEntity
8
0
100
AcDbPolyline
90
9
43
0.0
10
24.92358628944296
20
-62.32637167592924
10
24.702257685235434
20
-62.30405837641108
10
24.495965399343643
20
-62.240065139229074
10
24.30917064615825
20
-62.13881195644193
10
24.146334640069917
20
-62.00471882010835
10
24.011918595469314
20
-61.84220572228705
10
23.91038372674711
20
-61.65569265503672
10
23.846191248293962
20
-61.44959961041606
10
23.823802374500545
20
-61.2283465804838
0
LWPOLYLINE
5
133
100
AcDbEntity
8
0
100
AcDbPolyline
90
9
43
0.0
10
23.823802374500545
20
-61.2283465804838
10
23.846191248293962
20
-61.00651300270976
10
23.91038372674711
20
-60.7999836884092
10
24.011918595469314
20
-60.61315801847483
10
24.146334640069917
20
-60.450435373799394
10
24.30917064615825
20
-60.3162151352756
10
24.495965399343643
20
-60.21489668379619
10
24.702257685235434
20
-60.15087940025387
10
24.92358628944296
20
-60.12856266554139
0
LWPOLYLINE
5
134
100
AcDbEntity
8
0
100
AcDbPolyline
90
9
43
0.0
10
24.92358628944296
20
-41.39343450952891
10
25.14491500920748
20
-41.41575113393699
10
25.351207599749532
20
-41.47976814959718
10
25.538002783647368
20
-41.581086270163375
10
25.700839283479223
20
-41.715306209289494
10
25.835255821823353
20
-41.87802868062944
10
25.936791121258
20
-42.064854397837124
10
26.000983904361405
20
-42.27138407456645
10
26.02337289371182
20
-42.49321842447132
0
LWPOLYLINE
5
135
100
AcDbEntity
8
0
100
AcDbPolyline
90
9
43
0.0
10
26.02337289371182
20
-42.49321842447132
10
26.000983904361405
20
-42.714471338846586
10
25.936791121258
20
-42.92056407881697
10
25.835255821823353
20
-43.10707671535487
10
25.700839283479223
20
-43.26958931943265
10
25.538002783647368
20
-43.4036819620227
10
25.351207599749532
20
-43.5049347140974
10
25.14491500920748
20
-43.56892764662915
10
24.92358628944296
20
-43.59124083059031
0
LWPOLYLINE
5
136
100
AcDbEntity
8
0
100
AcDbPolyline
90
9
43
0.0
10
24.92358628944296
20
-43.59124083059031
10
24.702257685235434
20
-43.56892764662915
10
24.495965399343643
20
-43.5049347140974
10
24.30917064615825
20
-43.4036819620227
10
24.146334640069917
20
-43.26958931943265
10
24.011918595469314
20
-43.10707671535487
10
23.91038372674711
20
-42.92056407881697
10
23.846191248293962
20
-42.714471338846586
10
23.823802374500545
20
-42.49321842447132
0
LWPOLYLINE
5
137
100
AcDbEntity
8
0
100
AcDbPolyline
90
9
43
0.0
10
23.823802374500545
20
-42.49321842447132
10
23.846191248293962
20
-42.27138407456645
10
23.91038372674711
20
-42.064854397837124
10
24.011918595469314
20
-41.87802868062944
10
24.146334640069917
20
-41.715306209289494
10
24.30917064615825
20
-41.581086270163375
10
24.495965399343643
20
-41.47976814959718
10
24.702257685235434
20
-41.41575113393699
10
24.92358628944296
20
-41.39343450952891
0
LWPOLYLINE
5
138
100
AcDbEntity
8
0
100
AcDbPolyline
90
9
43
0.0
10
100.86343379627685
20
-37.64640672686525
10
101.08468659509512
20
-37.66872346683033
10
101.29077903041524
20
-37.73274078714078
10
101.47729123624069
20
-37.834059338419415
10
101.63980334657495
20
-37.96827977128906
10
101.77389549542146
20
-38.13100273637254
10
101.87514781678374
20
-38.31782888429265
10
101.93914044466521
20
-38.52435886567224
10
101.96145351306939
20
-38.746193331134116
0
LWPOLYLINE
5
139
100
AcDbEntity
8
0
100
AcDbPolyline
90
9
43
0.0
10
101.96145351306939
20
-38.746193331134116
10
101.93914044466521
20
-38.967446245509386
10
101.87514781678374
20
-39.17353898547977
10
101.77389549542146
20
-39.360051622017664
10
101.63980334657495
20
-39.52256422609544
10
101.47729123624069
20
-39.656656868685495
10
101.29077903041524
20
-39.757909620760195
10
101.08468659509512
20
-39.821902553291935
10
100.86343379627685
20
-39.8442157372531
0
LWPOLYLINE
5
140
100
AcDbEntity
8
0
100
AcDbPolyline
90
9
43
0.0
10
100.86343379627685
20
-39.8442157372531
10
100.64159867424114
20
-39.821902553291935
10
100.43506863508306
20
-39.757909620760195
10
100.24824287060206
20
-39.656656868685495
10
100.0855205725976
20
-39.52256422609544
10
99.95130093286915
20
-39.360051622017664
10
99.84998314321616
20
-39.17353898547977
10
99.78596639543811
20
-38.967446245509386
10
99.76364988133443
20
-38.746193331134116
0
LWPOLYLINE
5
141
100
AcDbEntity
8
0
100
AcDbPolyline
90
9
43
0.0
10
99.76364988133443
20
-38.746193331134116
10
99.78596639543811
20
-38.52435886567224
10
99.84998314321616
20
-38.31782888429265
10
99.95130093286915
20
-38.13100273637254
10
100.0855205725976
20
-37.96827977128906
10
100.24824287060206
20
-37.834059338419415
10
100.43506863508306
20
-37.73274078714078
10
100.64159867424114
20
-37.66872346683033
10
100.86343379627685
20
-37.64640672686525
0
LWPOLYLINE
5
142
100
AcDbEntity
8
0
100
AcDbPolyline
90
9
43
0.0
10
68.13952132441433
20
-77.36559076640125
10
68.36077435434659
20
-77.38790383480541
10
68.56686739896725
20
-77.4518964626869
10
68.75338046621758
20
-77.55314878404917
10
68.91589356403888
20
-77.68724093289569
10
69.04998670037246
20
-77.84975304322994
10
69.1512398831596
20
-78.03626524905539
10
69.21523312034161
20
-78.24235768437552
10
69.23754641985977
20
-78.4636104831938
0
LWPOLYLINE
5
143
100
AcDbEntity
8
0
100
AcDbPolyline
90
9
43
0.0
10
69.23754641985977
20
-78.4636104831938
10
69.21523312034161
20
-78.6854458363435
10
69.1512398831596
20
-78.8919764848021
10
69.04998670037246
20
-79.07880311070798
10
68.91589356403888
20
-79.24152639619949
10
68.75338046621758
20
-79.37574702341499
10
68.56686739896725
20
-79.47706567449285
10
68.36077435434659
20
-79.54108303157145
10
68.13952132441433
20
-79.56339977678911
0
LWPOLYLINE
5
144
100
AcDbEntity
8
0
100
AcDbPolyline
90
9
43
0.0
10
68.13952132441433
20
-79.56339977678911
10
67.91768774664028
20
-79.54108303157145
10
67.71115843233973
20
-79.47706567449285
10
67.52433276240535
20
-79.37574702341499
10
67.36161011772992
20
-79.24152639619949
10
67.22738987920613
20
-79.07880311070798
10
67.12607142772671
20
-78.8919764848021
10
67.0620541441844
20
-78.6854458363435
10
67.03973740947191
20
-78.4636104831938
0
LWPOLYLINE
5
145
100
AcDbEntity
8
0
100
AcDbPolyline
90
9
43
0.0
10
67.03973740947191
20
-78.4636104831938
10
67.0620541441844
20
-78.24235768437552
10
67.12607142772671
20
-78.03626524905539
10
67.22738987920613
20
-77.84975304322994
10
67.36161011772992
20
-77.68724093289569
10
67.52433276240535
20
-77.55314878404917
10
67.71115843233973
20
-77.4518964626869
10
67.91768774664028
20
-77.38790383480541
10
68.13952132441433
20
-77.36559076640125
0
LWPOLYLINE
5
146
100
AcDbEntity
8
0
100
AcDbPolyline
90
9
43
0.0
10
114.60194401422501
20
-85.10815085282765
10
114.82319681304328
20
-85.13046758754012
10
115.02928924836341
20
-85.19448487108244
10
115.21580145418885
20
-85.29580332256185
10
115.37831356452311
20
-85.43002356108563
10
115.51240571336963
20
-85.59274620576107
10
115.6136580347319
20
-85.77957187569545
10
115.67765066261339
20
-85.98610118999602
10
115.69996373101755
20
-86.20793476777006
0
LWPOLYLINE
5
147
100
AcDbEntity
8
0
100
AcDbPolyline
90
9
43
0.0
10
115.69996373101755
20
-86.20793476777006
10
115.67765066261339
20
-86.42918779770231
10
115.6136580347319
20
-86.63528084232297
10
115.51240571336963
20
-86.8217939095733
10
115.37831356452311
20
-86.9843070073946
10
115.21580145418885
20
-87.1184001437282
10
115.02928924836341
20
-87.21965332651533
10
114.82319681304328
20
-87.28364656369735
10
114.60194401422501
20
-87.30595986321549
0
LWPOLYLINE
5
148
100
AcDbEntity
8
0
100
AcDbPolyline
90
9
43
0.0
10
114.60194401422501
20
-87.30595986321549
10
114.38010889218931
20
-87.28364656369735
10
114.17357885303122
20
-87.21965332651533
10
113.98675308855022
20
-87.1184001437282
10
113.82403079054578
20
-86.9843070073946
10
113.68981115081732
20
-86.8217939095733
10
113.58849336116432
20
-86.63528084232297
10
113.52447661338627
20
-86.42918779770231
10
113.5021600992826
20
-86.20793476777006
0
LWPOLYLINE
5
149
100
AcDbEntity
8
0
100
AcDbPolyline
90
9
43
0.0
10
113.5021600992826
20
-86.20793476777006
10
113.52447661338627
20
-85.98610118999602
10
113.58849336116432
20
-85.77957187569545
10
113.68981115081732
20
-85.59274620576107
10
113.82403079054578
20
-85.43002356108563
10
113.98675308855022
20
-85.29580332256185
10
114.17357885303122
20
-85.19448487108244
10
114.38010889218931
20
-85.13046758754012
10
114.60194401422501
20
-85.10815085282765
0
LWPOLYLINE
5
150
100
AcDbEntity
8
0
100
AcDbPolyline
90
9
43
0.0
10
54.45565284123619
20
-87.17377408964441
10
54.676981445443715
20
-87.15146079012627
10
54.88327373133551
20
-87.08746755294425
10
55.0700684845209
20
-86.98621437015711
10
55.23290449060923
20
-86.85212123382352
10
55.367320535209835
20
-86.68960813600224
10
55.46885540393204
20
-86.5030950687519
10
55.53304788238518
20
-86.29700202413123
10
55.5554367561786
20
-86.07574899419897
0
LWPOLYLINE
5
151
100
AcDbEntity
8
0
100
AcDbPolyline
90
9
43
0.0
10
55.5554367561786
20
-86.07574899419897
10
55.53304788238518
20
-85.85391541642494
10
55.46885540393204
20
-85.64738610212439
10
55.367320535209835
20
-85.46056043219001
10
55.23290449060923
20
-85.29783778751458
10
55.0700684845209
20
-85.16361754899077
10
54.88327373133551
20
-85.06229909751137
10
54.676981445443715
20
-84.99828181396904
10
54.45565284123619
20
-84.97596507925657
0
LWPOLYLINE
5
152
100
AcDbEntity
8
0
100
AcDbPolyline
90
9
43
0.0
10
54.45565284123619
20
-84.97596507925657
10
54.23432400591467
20
-84.99828181396904
10
54.02803111072236
20
-85.06229909751137
10
53.841235496112084
20
-85.16361754899077
10
53.6783985025367
20
-85.29783778751458
10
53.54398147044905
20
-85.46056043219001
10
53.44244574030196
20
-85.64738610212439
10
53.37825265254829
20
-85.85391541642494
10
53.35586354764088
20
-86.07574899419897
0
LWPOLYLINE
5
153
100
AcDbEntity
8
0
100
AcDbPolyline
90
9
43
0.0
10
53.35586354764088
20
-86.07574899419897
10
53.37825265254829
20
-86.29700202413123
10
53.44244574030196
20
-86.5030950687519
10
53.54398147044905
20
-86.68960813600224
10
53.6783985025367
20
-86.85212123382352
10
53.841235496112084
20
-86.98621437015711
10
54.02803111072236
20
-87.08746755294425
10
54.23432400591467
20
-87.15146079012627
10
54.45565284123619
20
-87.17377408964441
0
LWPOLYLINE
5
154
100
AcDbEntity
8
0
100
AcDbPolyline
90
9
43
0.0
10
62.970178705902114
20
-101.59436203863487
10
63.191431504720384
20
-101.57204850800272
10
63.397523940040514
20
-101.50805466152019
10
63.584036145865966
20
-101.40680061730816
10
63.746548256200214
20
-101.27270649348755
10
63.88064040504674
20
-101.11019240817919
10
63.981892726409
20
-100.92367847950396
10
64.04588535429049
20
-100.7175848255828
10
64.06819842269465
20
-100.49633156453655
0
LWPOLYLINE
5
155
100
AcDbEntity
8
0
100
AcDbPolyline
90
9
43
0.0
10
64.06819842269465
20
-100.49633156453655
10
64.04588535429049
20
-100.2744982178765
10
63.981892726409
20
-100.06796951287645
10
63.88064040504674
20
-99.88114470436696
10
63.746548256200214
20
-99.71842304717858
10
63.584036145865966
20
-99.58420379614184
10
63.397523940040514
20
-99.4828862060873
10
63.191431504720384
20
-99.41886953184552
10
62.970178705902114
20
-99.39655302824701
0
LWPOLYLINE
5
156
100
AcDbEntity
8
0
100
AcDbPolyline
90
9
43
0.0
10
62.970178705902114
20
-99.39655302824701
10
62.748343352752414
20
-99.41886953184552
10
62.5418127042938
20
-99.4828862060873
10
62.35498607838793
20
-99.58420379614184
10
62.192262792896415
20
-99.71842304717858
10
62.05804216568092
20
-99.88114470436696
10
61.95672351460305
20
-100.06796951287645
10
61.892706157524465
20
-100.2744982178765
10
61.8703894123068
20
-100.49633156453655
0
LWPOLYLINE
5
157
100
AcDbEntity
8
0
100
AcDbPolyline
90
9
43
0.0
10
61.8703894123068
20
-100.49633156453655
10
61.892706157524465
20
-100.7175848255828
10
61.95672351460305
20
-100.92367847950396
10
62.05804216568092
20
-101.11019240817919
10
62.192262792896415
20
-101.27270649348755
10
62.35498607838793
20
-101.40680061730816
10
62.5418127042938
20
-101.50805466152019
10
62.748343352752414
20
-101.57204850800272
10
62.970178705902114
20
-101.59436203863487
0
LINE
5
158
100
AcDbEntity
8
0
100
AcDbLine
10
140.08031082051215
20
-83.68759483647608
30
0
11
140.08031082051218
21
-24.260394594433055
31
0
0
LINE
5
159
100
AcDbEntity
8
0
100
AcDbLine
10
126.63965964263639
20
-107.47574686347276
30
0
11
139.8547086034441
21
-84.560017714853416
31
0
0
LINE
5
160
100
AcDbEntity
8
0
100
AcDbLine
10
124.71327359333728
20
-107.85467295999304
30
0
11
110.43015325506173
21
-99.599236805325432
31
0
0
LWPOLYLINE
5
161
100
AcDbEntity
8
0
100
AcDbPolyline
90
3
43
0.0
10
62.24581616878873
20
-80.10979041650533
10
62.083846603867066
20
-80.00289392677861
10
61.89330247364358
20
-79.96524431329905
0
LINE
5
162
100
AcDbEntity
8
0
100
AcDbLine
10
62.245816168788728
20
-80.109790416505348
30
0
11
72.781885046792127
21
-94.556787365934667
31
0
0
LINE
5
163
100
AcDbEntity
8
0
100
AcDbLine
10
6.9375095056700067
20
-79.965244313299053
30
0
11
61.893302473643587
21
-79.965244313299053
31
0
0
LINE
5
164
100
AcDbEntity
8
0
100
AcDbLine
10
6.4387281973426447
20
-79.46646031564525
30
0
11
6.4387281973426438
21
-24.260394594433055
31
0
0
LINE
5
165
100
AcDbEntity
8
0
100
AcDbLine
10
6.9375095056700067
20
-23.761613286105693
30
0
11
43.908988543357282
21
-23.761613286105693
31
0
0
LINE
5
166
100
AcDbEntity
8
0
100
AcDbLine
10
44.407769851684634
20
-23.261070468954905
30
0
11
44.407769851684655
21
-19.514044030954473
31
0
0
LINE
5
167
100
AcDbEntity
8
0
100
AcDbLine
10
44.906551160012008
20
-19.01526272262711
30
0
11
62.892629288448191
21
-19.01526272262711
31
0
0
LINE
5
168
100
AcDbEntity
8
0
100
AcDbLine
10
63.393172105598985
20
-17.265123026759557
30
0
11
63.393172105598978
21
-18.51471923314471
31
0
0
LINE
5
169
100
AcDbEntity
8
0
100
AcDbLine
10
63.891950724599894
20
-16.766342390763803
30
0
11
80.878704727557931
21
-16.766342390763807
31
0
0
LINE
5
170
100
AcDbEntity
8
0
100
AcDbLine
10
81.37748872521172
20
-17.265123026759554
30
0
11
81.37748872521172
21
-18.51471923314471
31
0
0
LINE
5
171
100
AcDbEntity
8
0
100
AcDbLine
10
81.878031542362521
20
-19.01526272262711
30
0
11
99.864112360125148
21
-19.015262722627114
31
0
0
LINE
5
172
100
AcDbEntity
8
0
100
AcDbLine
10
100.36288560047313
20
-21.012149464759986
30
0
11
100.36288560047313
21
-19.514044030954473
31
0
0
LWPOLYLINE
5
173
100
AcDbEntity
8
0
100
AcDbPolyline
90
5
43
0.0
10
8.071700560685002
20
-175.6004739863332
10
7.971763677131968
20
-175.39500952974907
10
7.900079848743986
20
-175.1794646372234
10
7.8578058220594915
20
-174.95631869965825
10
7.846098343616923
20
-174.7280511079559
0
LINE
5
174
100
AcDbEntity
8
0
100
AcDbLine
10
103.01985800411688
20
-110.05571899410711
30
0
11
85.03377987568075
21
-110.05571899410711
31
0
0
LWPOLYLINE
5
175
100
AcDbEntity
8
0
100
AcDbPolyline
90
9
43
0.0
10
23.213135570791792
20
-198.8951292314728
10
22.96591169434102
20
-199.02748270976033
10
22.70524164787834
20
-199.10563928468065
10
22.438829469241973
20
-199.13108623780084
10
22.17437919627013
20
-199.10531085068817
10
21.919594866801035
20
-199.0298004049098
10
21.68218051867291
20
-198.90604218203288
10
21.46984018972397
20
-198.73552346362465
10
21.290277917792437
20
-198.5197315312523
0
LWPOLYLINE
5
176
100
AcDbEntity
8
0
100
AcDbPolyline
90
9
43
0.0
10
94.57054561648799
20
-177.11620526567884
10
94.54815651158059
20
-177.3374582956111
10
94.4839634238269
20
-177.54355134023174
10
94.38242769367983
20
-177.73006440748208
10
94.24801066159219
20
-177.8925775053034
10
94.0851736680168
20
-178.02667064163694
10
93.89837805340655
20
-178.1279238244241
10
93.69208515821423
20
-178.19191706160612
10
93.47075632289271
20
-178.21423036112427
0
LWPOLYLINE
5
177
100
AcDbEntity
8
0
100
AcDbPolyline
90
9
43
0.0
10
32.22644543311148
20
-177.24839103924987
10
32.248758501515645
20
-177.46964406918215
10
32.31275112939713
20
-177.6757371138028
10
32.41400345075939
20
-177.86225018105313
10
32.548095599605915
20
-178.02476327887442
10
32.71060770994017
20
-178.158856415208
10
32.897119915765614
20
-178.26010959799513
10
33.103212351085745
20
-178.32410283517717
10
33.324465149904015
20
-178.34641613469532
0
LWPOLYLINE
5
178
100
AcDbEntity
8
0
100
AcDbPolyline
90
9
43
0.0
10
47.06297536785218
20
-128.6868629983452
10
46.84172256903391
20
-128.70917973831027
10
46.63563013371378
20
-128.77319705862072
10
46.44911792788833
20
-128.87451560989936
10
46.28660581755408
20
-129.00873604276902
10
46.152513668707556
20
-129.1714590078525
10
46.051261347345296
20
-129.3582851557726
10
45.987268719463806
20
-129.56481513715218
10
45.96495565105965
20
-129.78664960261406
0
LWPOLYLINE
5
179
100
AcDbEntity
8
0
100
AcDbPolyline
90
7
43
0.0
10
103.01985800411688
20
-110.05571899410711
10
103.12022958157262
20
-110.06587389471413
10
103.21378541832212
20
-110.09498920072694
10
103.37235340030641
20
-110.20200465412057
10
103.47936901127777
20
-110.36057260458934
10
103.50848438426112
20
-110.45412853194603
10
103.51863931244424
20
-110.55450030243446
0
LWPOLYLINE
5
180
100
AcDbEntity
8
0
100
AcDbPolyline
90
9
43
0.0
10
93.47075632289271
20
-176.01642135073638
10
93.69208515821423
20
-176.0387380854489
10
93.89837805340655
20
-176.10275536899118
10
94.0851736680168
20
-176.20407382047063
10
94.24801066159219
20
-176.3382940589944
10
94.38242769367983
20
-176.50101670366985
10
94.4839634238269
20
-176.6878423736042
10
94.54815651158059
20
-176.8943716879048
10
94.57054561648799
20
-177.11620526567884
0
LINE
5
181
100
AcDbEntity
8
0
100
AcDbLine
10
28.578115931088703
20
-113.05192986171811
30
0
11
28.578115931088703
21
-114.30152674043487
31
0
0
LWPOLYLINE
5
182
100
AcDbEntity
8
0
100
AcDbPolyline
90
7
43
0.0
10
66.54892043891728
20
-109.5551755046247
10
66.53876218059165
20
-109.65612912559742
10
66.50962299236198
20
-109.75012224708999
10
66.40241534667393
20
-109.9092133135736
10
66.24332454281986
20
-110.01642134795337
10
66.14933140688265
20
-110.04556067931613
10
66.04837762176646
20
-110.05571899410711
0
LINE
5
183
100
AcDbEntity
8
0
100
AcDbLine
10
23.213135570791792
20
-198.89512923147279
30
0
11
37.496255909067315
21
-190.63969307680523
31
0
0
LINE
5
184
100
AcDbEntity
8
0
100
AcDbLine
10
81.277941859573488
20
-193.4226403570915
30
0
11
92.073113367877895
21
-174.71923549585944
31
0
0
LWPOLYLINE
5
185
100
AcDbEntity
8
0
100
AcDbPolyline
90
9
43
0.0
10
47.06297536785218
20
-130.88467200873302
10
47.28481048988789
20
-130.86235882477186
10
47.49134052904598
20
-130.79836589224013
10
47.678166293526964
20
-130.6971131401654
10
47.84088859153142
20
-130.56302049757537
10
47.975108231259874
20
-130.40050789349758
10
48.076426020912855
20
-130.2139952569597
10
48.14044276869092
20
-130.0079025169893
10
48.162759282794596
20
-129.78664960261406
0
LINE
5
186
100
AcDbEntity
8
0
100
AcDbLine
10
141.48768096678617
20
-170.50691658712512
30
0
11
141.4876809667862
21
-115.30085086591305
31
0
0
LINE
5
187
100
AcDbEntity
8
0
100
AcDbLine
10
21.286749521492681
20
-198.51620313495255
30
0
11
8.0717005606850023
21
-175.60047398633321
31
0
0
LINE
5
188
100
AcDbEntity
8
0
100
AcDbLine
10
103.51863931244426
20
-114.30152674043489
30
0
11
103.51863931244424
21
-110.55450030243448
31
0
0
LINE
5
189
100
AcDbEntity
8
0
100
AcDbLine
10
66.548920438917278
20
-108.30557929823955
30
0
11
66.548920438917278
21
-109.55517550462471
31
0
0
LWPOLYLINE
5
190
100
AcDbEntity
8
0
100
AcDbPolyline
90
7
43
0.0
10
66.54892043891728
20
-108.30557929823955
10
66.55900312296764
20
-108.20520774967306
10
66.58794306992615
20
-108.11165198908613
10
66.69454612141212
20
-107.95308423821582
10
66.8530323310641
20
-107.84606885835844
10
66.94682622573015
20
-107.81695356153766
10
67.04770443657107
20
-107.80679866224379
0
LINE
5
191
100
AcDbEntity
8
0
100
AcDbLine
10
140.41785749313746
20
-194.17169307399428
30
0
11
81.711509690863835
21
-194.17169307399428
31
0
0
LWPOLYLINE
5
192
100
AcDbEntity
8
0
100
AcDbPolyline
90
9
43
0.0
10
121.903036270417
20
-152.2688028519637
10
121.92542525976742
20
-152.49005588189596
10
121.98961804287082
20
-152.69614892651663
10
122.09115334230547
20
-152.88266199376696
10
122.2255698806496
20
-153.04517509158825
10
122.38840638048146
20
-153.17926822792182
10
122.5752015643793
20
-153.28052141070899
10
122.78149415492135
20
-153.34451464789097
10
123.00282287468586
20
-153.36682794740915
0
LWPOLYLINE
5
193
100
AcDbEntity
8
0
100
AcDbPolyline
90
7
43
0.0
10
140.9888996584588
20
-114.80206955758568
10
141.08927142894726
20
-114.81215218123126
10
141.18282735630393
20
-114.84109195748057
10
141.34139530677268
20
-114.947694399666
10
141.44841076016635
20
-115.10617974789314
10
141.47752606617917
20
-115.19997315669454
10
141.48768096678617
20
-115.30085086591303
0
LINE
5
194
100
AcDbEntity
8
0
100
AcDbLine
10
74.792028721147261
20
-185.74353223887874
30
0
11
38.15012798432317
21
-190.51103032088099
31
0
0
LWPOLYLINE
5
195
100
AcDbEntity
8
0
100
AcDbPolyline
90
7
43
0.0
10
28.578115931088703
20
-113.05192986171811
10
28.58827442052832
20
-112.95155828426236
10
28.61741421805851
20
-112.85800244751287
10
28.724623712658488
20
-112.69943446552858
10
28.88371636542449
20
-112.59241885455722
10
28.97771011066221
20
-112.56330348157387
10
29.078664126892377
20
-112.55314855339076
0
LINE
5
196
100
AcDbEntity
8
0
100
AcDbLine
10
140.98889965845882
20
-114.80206955758568
30
0
11
104.01742062077162
21
-114.80206955758568
31
0
0
LINE
5
197
100
AcDbEntity
8
0
100
AcDbLine
10
84.034458439529061
20
-107.80679866224381
30
0
11
67.047704436571081
21
-107.80679866224381
31
0
0
LWPOLYLINE
5
198
100
AcDbEntity
8
0
100
AcDbPolyline
90
3
43
0.0
10
37.496255909067315
20
-190.63969307680523
10
37.81988407516422
20
-190.55949803445813
10
38.15012798432317
20
-190.511030320881
0
LWPOLYLINE
5
199
100
AcDbEntity
8
0
100
AcDbPolyline
90
7
43
0.0
10
7.8460983436169585
20
-115.30085086591302
10
7.8561810276673265
20
-115.19997315669453
10
7.885120974625844
20
-115.10617974789312
10
7.991724026111804
20
-114.94769439966599
10
8.150210235763788
20
-114.84109195748056
10
8.24400413042984
20
-114.81215218123123
10
8.344882341270754
20
-114.80206955758565
0
LWPOLYLINE
5
200
100
AcDbEntity
8
0
100
AcDbPolyline
90
9
43
0.0
10
83.85821074143429
20
-191.53678783601634
10
83.88052380983845
20
-191.3149544893563
10
83.94451643771994
20
-191.10842578435626
10
84.0457687590822
20
-190.92160097584676
10
84.1798609079287
20
-190.7588793186584
10
84.34237301826296
20
-190.62466006762165
10
84.52888522408841
20
-190.5233424775671
10
84.73497765940853
20
-190.45932580332533
10
84.95623045822683
20
-190.4370092997268
0
LWPOLYLINE
5
201
100
AcDbEntity
8
0
100
AcDbPolyline
90
9
43
0.0
10
124.10260678962828
20
-152.2688028519637
10
124.08021791583487
20
-152.04696927418965
10
124.01602543738171
20
-151.8404399598891
10
123.91449056865952
20
-151.65361428995473
10
123.7800745240589
20
-151.49089164527928
10
123.61723851797056
20
-151.3566714067555
10
123.43044376478518
20
-151.25535295527607
10
123.22415147889339
20
-151.19133567173378
10
123.00282287468586
20
-151.1690189370213
0
LWPOLYLINE
5
202
100
AcDbEntity
8
0
100
AcDbPolyline
90
9
43
0.0
10
84.95623045822683
20
-192.63481831011467
10
84.73497765940853
20
-192.61250477948252
10
84.52888522408841
20
-192.548510933
10
84.34237301826296
20
-192.44725688878796
10
84.1798609079287
20
-192.31316276496733
10
84.0457687590822
20
-192.15064867965896
10
83.94451643771994
20
-191.96413475098376
10
83.88052380983845
20
-191.75804109706257
10
83.85821074143429
20
-191.53678783601634
0
LWPOLYLINE
5
203
100
AcDbEntity
8
0
100
AcDbPolyline
90
9
43
0.0
10
93.47075632289271
20
-178.21423036112427
10
93.24942771868518
20
-178.19191706160612
10
93.04313543279338
20
-178.1279238244241
10
92.85634067960797
20
-178.02667064163694
10
92.69350467351964
20
-177.8925775053034
10
92.55908862891903
20
-177.73006440748208
10
92.45755376019683
20
-177.54355134023174
10
92.39336128174368
20
-177.3374582956111
10
92.37097240795026
20
-177.11620526567884
0
LWPOLYLINE
5
204
100
AcDbEntity
8
0
100
AcDbPolyline
90
7
43
0.0
10
47.56352356365589
20
-112.05260573623997
10
47.553365074216266
20
-112.15355913529073
10
47.52422527668608
20
-112.24755209001354
10
47.41701578208609
20
-112.40664295689871
10
47.25792312932006
20
-112.5138509177422
10
47.16392938408235
20
-112.54299023991294
10
47.06297536785218
20
-112.55314855339076
0
LINE
5
205
100
AcDbEntity
8
0
100
AcDbLine
10
85.680592995340206
20
-171.1502466879852
30
0
11
75.144524117336786
21
-185.59724363741449
31
0
0
LWPOLYLINE
5
206
100
AcDbEntity
8
0
100
AcDbPolyline
90
9
43
0.0
10
121.90303627041703
20
-133.53367469595128
10
121.92542525976745
20
-133.75492761032652
10
121.98961804287084
20
-133.9610203502969
10
122.0911533423055
20
-134.14753298683482
10
122.22556988064963
20
-134.31004559091258
10
122.38840638048148
20
-134.44413823350266
10
122.57520156437934
20
-134.54539098557734
10
122.78149415492139
20
-134.60938391810907
10
123.0028228746859
20
-134.63169710207026
0
LWPOLYLINE
5
207
100
AcDbEntity
8
0
100
AcDbPolyline
90
9
43
0.0
10
80.88667175465702
20
-169.50406675467366
10
80.86435501994453
20
-169.28281395585537
10
80.8003377364022
20
-169.07672152053524
10
80.6990192849228
20
-168.8902093147098
10
80.564799046399
20
-168.72769720437554
10
80.40207640172356
20
-168.59360505552903
10
80.21525073178918
20
-168.49235273416676
10
80.00872141748864
20
-168.4283601062853
10
79.7868878397146
20
-168.4060470378811
0
LWPOLYLINE
5
208
100
AcDbEntity
8
0
100
AcDbPolyline
90
9
43
0.0
10
124.10260678962831
20
-133.53367469595128
10
124.0802179158349
20
-133.31184034604638
10
124.01602543738174
20
-133.10531066931708
10
123.91449056865955
20
-132.9184849521094
10
123.78007452405893
20
-132.75576248076945
10
123.6172385179706
20
-132.62154254164332
10
123.43044376478521
20
-132.52022442107713
10
123.22415147889342
20
-132.45620740541693
10
123.0028228746859
20
-132.43389078100884
0
LWPOLYLINE
5
209
100
AcDbEntity
8
0
100
AcDbPolyline
90
9
43
0.0
10
84.95623045822683
20
-190.4370092997268
10
85.17806581137651
20
-190.45932580332533
10
85.38459645983512
20
-190.5233424775671
10
85.571423085741
20
-190.62466006762165
10
85.7341463712325
20
-190.7588793186584
10
85.868366998448
20
-190.92160097584676
10
85.96968564952586
20
-191.10842578435626
10
86.03370300660444
20
-191.3149544893563
10
86.0560197518221
20
-191.53678783601634
0
LWPOLYLINE
5
210
100
AcDbEntity
8
0
100
AcDbPolyline
90
9
43
0.0
10
123.0028228746859
20
-132.43389078100884
10
122.78149415492139
20
-132.45620740541693
10
122.57520156437934
20
-132.52022442107713
10
122.38840638048148
20
-132.62154254164332
10
122.22556988064963
20
-132.75576248076945
10
122.0911533423055
20
-132.9184849521094
10
121.98961804287084
20
-133.10531066931708
10
121.92542525976745
20
-133.31184034604638
10
121.90303627041703
20
-133.53367469595128
0
LWPOLYLINE
5
211
100
AcDbEntity
8
0
100
AcDbPolyline
90
9
43
0.0
10
78.68886274426916
20
-169.50406675467366
10
78.71117604378732
20
-169.72590210782334
10
78.77516928096932
20
-169.93243275628197
10
78.87642246375646
20
-170.11925938218783
10
79.01051560009003
20
-170.28198266767936
10
79.17302869791133
20
-170.41620329489484
10
79.35954176516167
20
-170.51752194597273
10
79.56563480978232
20
-170.5815393030513
10
79.7868878397146
20
-170.60385604826897
0
LINE
5
212
100
AcDbEntity
8
0
100
AcDbLine
10
92.504922379671228
20
-174.46896677661047
30
0
11
140.41433245849575
21
-174.4689667766105
31
0
0
LWPOLYLINE
5
213
100
AcDbEntity
8
0
100
AcDbPolyline
90
9
43
0.0
10
45.96495565105965
20
-129.78664960261406
10
45.987268719463806
20
-130.0079025169893
10
46.051261347345296
20
-130.2139952569597
10
46.152513668707556
20
-130.40050789349758
10
46.28660581755408
20
-130.56302049757537
10
46.44911792788833
20
-130.6971131401654
10
46.63563013371378
20
-130.79836589224013
10
46.84172256903391
20
-130.86235882477186
10
47.06297536785218
20
-130.88467200873302
0
LINE
5
214
100
AcDbEntity
8
0
100
AcDbLine
10
140.91487594797815
20
-174.9695095937613
30
0
11
140.91663812913316
21
-193.67291983364626
31
0
0
LWPOLYLINE
5
215
100
AcDbEntity
8
0
100
AcDbPolyline
90
9
43
0.0
10
33.324465149904015
20
-176.14860712430746
10
33.103212351085745
20
-176.17092385901998
10
32.897119915765614
20
-176.23494114256226
10
32.71060770994017
20
-176.3362595940417
10
32.548095599605915
20
-176.47047983256547
10
32.41400345075939
20
-176.6332024772409
10
32.31275112939713
20
-176.82002814717526
10
32.248758501515645
20
-177.02655746147585
10
32.22644543311148
20
-177.24839103924987
0
LWPOLYLINE
5
216
100
AcDbEntity
8
0
100
AcDbPolyline
90
7
43
0.0
10
28.578115931088703
20
-114.30152674043487
10
28.568033247038333
20
-114.40248013948563
10
28.53909330007981
20
-114.49647309420844
10
28.43249024859384
20
-114.6555639610936
10
28.27400403894184
20
-114.7627719219371
10
28.18021014427579
20
-114.79191124410784
10
28.079331933434872
20
-114.80206955758565
0
LWPOLYLINE
5
217
100
AcDbEntity
8
0
100
AcDbPolyline
90
5
43
0.0
10
92.0731133678779
20
-174.71923549585944
10
92.15272785187807
20
-174.61469868750004
10
92.25530985607558
20
-174.5359390731445
10
92.37474586912259
20
-174.48626049033422
10
92.50492237967123
20
-174.46896677661047
0
LINE
5
218
100
AcDbEntity
8
0
100
AcDbLine
10
66.048377621766463
20
-110.05571899410711
30
0
11
48.062296804003886
21
-110.05571899410711
31
0
0
LWPOLYLINE
5
219
100
AcDbEntity
8
0
100
AcDbPolyline
90
9
43
0.0
10
123.0028228746859
20
-134.63169710207026
10
123.22415147889342
20
-134.60938391810907
10
123.43044376478521
20
-134.54539098557734
10
123.6172385179706
20
-134.44413823350266
10
123.78007452405893
20
-134.31004559091258
10
123.91449056865955
20
-134.14753298683482
10
124.01602543738174
20
-133.9610203502969
10
124.0802179158349
20
-133.75492761032652
10
124.10260678962831
20
-133.53367469595128
0
LWPOLYLINE
5
220
100
AcDbEntity
8
0
100
AcDbPolyline
90
7
43
0.0
10
85.03377987568075
20
-110.05571899410711
10
84.93282609056457
20
-110.04556067931613
10
84.83883295462739
20
-110.01642134795337
10
84.67974215077331
20
-109.9092133135736
10
84.57253450508527
20
-109.75012224708999
10
84.5433953168556
20
-109.65612912559742
10
84.53323705852998
20
-109.5551755046247
0
LWPOLYLINE
5
221
100
AcDbEntity
8
0
100
AcDbPolyline
90
9
43
0.0
10
34.42424906484643
20
-177.24839103924987
10
34.40193255074275
20
-177.02655746147585
10
34.33791580296469
20
-176.82002814717526
10
34.236598013311706
20
-176.6332024772409
10
34.10237837358326
20
-176.47047983256547
10
33.9396560755788
20
-176.3362595940417
10
33.7528303110978
20
-176.23494114256226
10
33.54630027193972
20
-176.17092385901998
10
33.324465149904015
20
-176.14860712430746
0
LINE
5
222
100
AcDbEntity
8
0
100
AcDbLine
10
140.98889965845876
20
-171.00570058477894
30
0
11
86.033106690485326
21
-171.00570058477894
31
0
0
LWPOLYLINE
5
223
100
AcDbEntity
8
0
100
AcDbPolyline
90
9
43
0.0
10
123.00282287468586
20
-153.36682794740915
10
123.22415147889339
20
-153.34451464789097
10
123.43044376478518
20
-153.28052141070899
10
123.61723851797056
20
-153.17926822792182
10
123.7800745240589
20
-153.04517509158825
10
123.91449056865952
20
-152.88266199376696
10
124.01602543738171
20
-152.69614892651663
10
124.08021791583487
20
-152.49005588189596
10
124.10260678962828
20
-152.2688028519637
0
LWPOLYLINE
5
224
100
AcDbEntity
8
0
100
AcDbPolyline
90
9
43
0.0
10
33.324465149904015
20
-178.34641613469532
10
33.54630027193972
20
-178.32410283517717
10
33.7528303110978
20
-178.26010959799513
10
33.9396560755788
20
-178.158856415208
10
34.10237837358326
20
-178.02476327887442
10
34.236598013311706
20
-177.86225018105313
10
34.33791580296469
20
-177.6757371138028
10
34.40193255074275
20
-177.46964406918215
10
34.42424906484643
20
-177.24839103924987
0
LWPOLYLINE
5
225
100
AcDbEntity
8
0
100
AcDbPolyline
90
7
43
0.0
10
141.48768096678614
20
-170.50691658712512
10
141.47752606617914
20
-170.60728828013785
10
141.44841076016633
20
-170.7008444215376
10
141.34139530677265
20
-170.85941332797788
10
141.1828273563039
20
-170.96642986340518
10
141.08927142894723
20
-170.9955455410388
10
140.98889965845876
20
-171.0057005847789
0
LWPOLYLINE
5
226
100
AcDbEntity
8
0
100
AcDbPolyline
90
7
43
0.0
10
47.56352356365589
20
-110.55450030243445
10
47.57367814516802
20
-110.45412853194601
10
47.60279260420057
20
-110.36057260458932
10
47.709805441804036
20
-110.20200465412056
10
47.86837065042043
20
-110.09498920072691
10
47.96192557321914
20
-110.0658738947141
10
48.062296804003886
20
-110.05571899410708
0
LWPOLYLINE
5
227
100
AcDbEntity
8
0
100
AcDbPolyline
90
9
43
0.0
10
48.162759282794596
20
-129.78664960261406
10
48.14044276869092
20
-129.56481513715218
10
48.076426020912855
20
-129.3582851557726
10
47.975108231259874
20
-129.1714590078525
10
47.84088859153142
20
-129.00873604276902
10
47.678166293526964
20
-128.87451560989936
10
47.49134052904598
20
-128.77319705862072
10
47.28481048988789
20
-128.70917973831027
10
47.06297536785218
20
-128.6868629983452
0
LWPOLYLINE
5
228
100
AcDbEntity
8
0
100
AcDbPolyline
90
9
43
0.0
10
81.71150969086383
20
-194.17169307399425
10
81.57468755001197
20
-194.15316995989727
10
81.45465708026296
20
-194.10149728354654
10
81.35482618348543
20
-194.02252004385235
10
81.27860276154809
20
-193.92208323972505
10
81.22939471631955
20
-193.806031870075
10
81.2106099496685
20
-193.6802109338125
10
81.2256563634636
20
-193.5504654298479
10
81.27794185957349
20
-193.4226403570915
0
LINE
5
229
100
AcDbEntity
8
0
100
AcDbLine
10
7.8460983436169229
20
-174.72805110795591
30
0
11
7.8460983436169585
21
-115.30085086591302
31
0
0
LWPOLYLINE
5
230
100
AcDbEntity
8
0
100
AcDbPolyline
90
7
43
0.0
10
140.91663812913316
20
-193.67291983364626
10
140.9064832298393
20
-193.77379449373583
10
140.87736793301852
20
-193.8675857200858
10
140.77035255316113
20
-194.02606873616264
10
140.61178480229083
20
-194.13267061106828
10
140.5182290417039
20
-194.16161041095424
10
140.4178574931374
20
-194.17169307399425
0
LWPOLYLINE
5
231
100
AcDbEntity
8
0
100
AcDbPolyline
90
7
43
0.0
10
84.03445843952905
20
-107.80679866224379
10
84.13482990142779
20
-107.81695356153766
10
84.22838543352704
20
-107.84606885835844
10
84.38695249105538
20
-107.95308423821582
10
84.49396717757078
20
-108.11165198908613
10
84.52308224590385
20
-108.20520774967306
10
84.53323705852998
20
-108.30557929823955
0
LINE
5
232
100
AcDbEntity
8
0
100
AcDbLine
10
47.563523563655892
20
-112.05260573623997
30
0
11
47.563523563655892
21
-110.55450030243446
31
0
0
LINE
5
233
100
AcDbEntity
8
0
100
AcDbLine
10
8.344882341270754
20
-114.80206955758567
30
0
11
28.079331933434872
21
-114.80206955758567
31
0
0
LWPOLYLINE
5
234
100
AcDbEntity
8
0
100
AcDbPolyline
90
9
43
0.0
10
86.0560197518221
20
-191.53678783601634
10
86.03370300660444
20
-191.75804109706257
10
85.96968564952586
20
-191.96413475098376
10
85.868366998448
20
-192.15064867965896
10
85.7341463712325
20
-192.31316276496733
10
85.571423085741
20
-192.44725688878796
10
85.38459645983512
20
-192.548510933
10
85.17806581137651
20
-192.61250477948252
10
84.95623045822683
20
-192.63481831011467
0
LWPOLYLINE
5
235
100
AcDbEntity
8
0
100
AcDbPolyline
90
3
43
0.0
10
75.14452411733679
20
-185.59724363741446
10
74.98281693501464
20
-185.70607866176937
10
74.79202872114726
20
-185.74353223887874
0
LWPOLYLINE
5
236
100
AcDbEntity
8
0
100
AcDbPolyline
90
9
43
0.0
10
79.7868878397146
20
-168.4060470378811
10
79.56563480978232
20
-168.4283601062853
10
79.35954176516167
20
-168.49235273416676
10
79.17302869791133
20
-168.59360505552903
10
79.01051560009003
20
-168.72769720437554
10
78.87642246375646
20
-168.8902093147098
10
78.77516928096932
20
-169.07672152053524
10
78.71117604378732
20
-169.28281395585537
10
78.68886274426916
20
-169.50406675467366
0
LWPOLYLINE
5
237
100
AcDbEntity
8
0
100
AcDbPolyline
90
2
43
0.0
10
21.290277917792437
20
-198.5197315312523
10
21.28674952149268
20
-198.51620313495252
0
LWPOLYLINE
5
238
100
AcDbEntity
8
0
100
AcDbPolyline
90
7
43
0.0
10
104.01742062077162
20
-114.80206955758568
10
103.91704904331587
20
-114.79191124410785
10
103.82349320656638
20
-114.76277192193713
10
103.66492522458206
20
-114.65556396109363
10
103.55790961361069
20
-114.49647309420847
10
103.52879424062735
20
-114.40248013948565
10
103.51863931244424
20
-114.30152674043488
0
LWPOLYLINE
5
239
100
AcDbEntity
8
0
100
AcDbPolyline
90
9
43
0.0
10
79.7868878397146
20
-170.60385604826897
10
80.00872141748864
20
-170.5815393030513
10
80.21525073178918
20
-170.51752194597273
10
80.40207640172356
20
-170.41620329489484
10
80.564799046399
20
-170.28198266767936
10
80.6990192849228
20
-170.11925938218783
10
80.8003377364022
20
-169.93243275628197
10
80.86435501994453
20
-169.72590210782334
10
80.88667175465702
20
-169.50406675467366
0
LWPOLYLINE
5
240
100
AcDbEntity
8
0
100
AcDbPolyline
90
7
43
0.0
10
140.41433245849575
20
-174.4689667766105
10
140.51528588643575
20
-174.47912503493615
10
140.60927891732112
20
-174.5082642231658
10
140.76837001532027
20
-174.61547186885383
10
140.87557820727775
20
-174.7745626727079
10
140.90471760561107
20
-174.86855580864508
10
140.91487594797815
20
-174.96950959376127
0
LWPOLYLINE
5
241
100
AcDbEntity
8
0
100
AcDbPolyline
90
3
43
0.0
10
85.6805929953402
20
-171.15024668798517
10
85.84256256026187
20
-171.04335019825845
10
86.03310669048533
20
-171.0057005847789
0
LINE
5
242
100
AcDbEntity
8
0
100
AcDbLine
10
29.078664126892377
20
-112.55314855339074
30
0
11
47.062975367852182
21
-112.55314855339077
31
0
0
LWPOLYLINE
5
243
100
AcDbEntity
8
0
100
AcDbPolyline
90
9
43
0.0
10
123.00282287468586
20
-151.1690189370213
10
122.78149415492135
20
-151.19133567173378
10
122.5752015643793
20
-151.25535295527607
10
122.38840638048146
20
-151.3566714067555
10
122.2255698806496
20
-151.49089164527928
10
122.09115334230547
20
-151.65361428995473
10
121.98961804287082
20
-151.8404399598891
10
121.92542525976742
20
-152.04696927418965
10
121.903036270417
20
-152.2688028519637
0
LWPOLYLINE
5
244
100
AcDbEntity
8
0
100
AcDbPolyline
90
9
43
0.0
10
92.37097240795026
20
-177.11620526567884
10
92.39336128174368
20
-176.8943716879048
10
92.45755376019683
20
-176.6878423736042
10
92.55908862891903
20
-176.50101670366985
10
92.69350467351964
20
-176.3382940589944
10
92.85634067960797
20
-176.20407382047063
10
93.04313543279338
20
-176.10275536899118
10
93.24942771868517
20
-176.0387380854489
10
93.47075632289271
20
-176.01642135073638
0
LINE
5
245
100
AcDbEntity
8
0
100
AcDbLine
10
84.533237058529977
20
-108.30557929823955
30
0
11
84.533237058529977
21
-109.55517550462471
31
0
0
ENDSEC
0
SECTION
2
OBJECTS
0
DICTIONARY
5
C
100
AcDbDictionary
3
ACAD_GROUP
350
D
3
ACAD_MLINESTYLE
350
17
0
DICTIONARY
5
D
100
AcDbDictionary
0
DICTIONARY
5
1A
330
C
100
AcDbDictionary
0
DICTIONARY
5
17
100
AcDbDictionary
0
ENDSEC
0
EOF
