0
SECTION
2
HEADER
9
$INSUNITS
70
4
9
$ACADVER
1
AC1014
9
$HANDSEED
5
FFFF
0
ENDSEC
0
SECTION
2
TABLES
0
TABLE
2
VPORT
5
8
100
AcDbSymbolTable
0
ENDTAB
0
TABLE
2
LTYPE
5
5
100
AcDbSymbolTable
0
LTYPE
5
14
100
AcDbSymbolTableRecord
100
AcDbLinetypeTableRecord
2
BYBLOCK
70
0
0
LTYPE
5
15
100
AcDbSymbolTableRecord
100
AcDbLinetypeTableRecord
2
BYLAYER
70
0
0
ENDTAB
0
TABLE
2
LAYER
5
2
100
AcDbSymbolTable
70
2
0
LAYER
5
50
100
AcDbSymbolTableRecord
100
AcDbLayerTableRecord
2
0
70
0
6
CONTINUOUS
0
ENDTAB
0
TABLE
2
STYLE
5
3
100
AcDbSymbolTable
70
1
0
STYLE
5
11
100
AcDbSymbolTableRecord
100
AcDbTextStyleTableRecord
2
STANDARD
70
0
0
ENDTAB
0
TABLE
2
VIEW
5
6
100
AcDbSymbolTable
70
0
0
ENDTAB
0
TABLE
2
UCS
5
7
100
AcDbSymbolTable
70
0
0
ENDTAB
0
TABLE
2
APPID
5
9
100
AcDbSymbolTable
70
2
0
APPID
5
12
100
AcDbSymbolTableRecord
100
AcDbRegAppTableRecord
2
ACAD
70
0
0
ENDTAB
0
TABLE
2
DIMSTYLE
5
A
100
AcDbSymbolTable
70
1
0
ENDTAB
0
TABLE
2
BLOCK_RECORD
5
1
100
AcDbSymbolTable
70
1
0
BLOCK_RECORD
5
1F
100
AcDbSymbolTableRecord
100
AcDbBlockTableRecord
2
*MODEL_SPACE
0
BLOCK_RECORD
5
1B
100
AcDbSymbolTableRecord
100
AcDbBlockTableRecord
2
*PAPER_SPACE
0
ENDTAB
0
ENDSEC
0
SECTION
2
BLOCKS
0
BLOCK
5
20
100
AcDbEntity
100
AcDbBlockBegin
2
*MODEL_SPACE
0
ENDBLK
5
21
100
AcDbEntity
100
AcDbBlockEnd
0
BLOCK
5
1C
100
AcDbEntity
100
AcDbBlockBegin
2
*PAPER_SPACE
0
ENDBLK
5
1D
100
AcDbEntity
100
AcDbBlockEnd
0
ENDSEC
0
SECTION
2
ENTITIES
0
SPLINE
5
100
100
AcDbEntity
8
0
100
AcDbSpline
70
4
71
3
72
8
73
4
74
0
42
0.000000001
43
0.0000000001
44
0.0000000001
40
0
40
0
40
0
40
0
40
1
40
1
40
1
40
1
41
1
41
1
41
1
41
1
10
139.8547086034441
20
-84.560017714853416
30
0
10
140.0062790420522
20
-84.293887348214298
30
0
10
140.08559265765601
20
-83.994264109992031
30
0
10
140.08031082051218
20
-83.687594836476066
30
0
0
SPLINE
5
101
100
AcDbEntity
8
0
100
AcDbSpline
70
4
71
3
72
8
73
4
74
0
42
0.000000001
43
0.0000000001
44
0.0000000001
40
0
40
0
40
0
40
0
40
1
40
1
40
1
40
1
41
1
41
1
41
1
41
1
10
124.71327359333728
20
-107.85467295999304
30
0
10
125.34776100355614
20
-108.28120013464255
30
0
10
126.20785063084305
20
-108.11376266999135
30
0
10
126.63613124633663
20
-107.47927525977252
30
0
0
SPLINE
5
102
100
AcDbEntity
8
0
100
AcDbSpline
70
4
71
3
72
8
73
4
74
0
42
0.000000001
43
0.0000000001
44
0.0000000001
40
0
40
0
40
0
40
0
40
1
40
1
40
1
40
1
41
1
41
1
41
1
41
1
10
126.63613124633663
20
-107.47927525977252
30
0
10
126.6378954444865
20
-107.47751106162264
30
0
10
126.6378954444865
20
-107.47751106162264
30
0
10
126.63965964263639
20
-107.47574686347276
30
0
0
SPLINE
5
103
100
AcDbEntity
8
0
100
AcDbSpline
70
4
71
3
72
8
73
4
74
0
42
0.000000001
43
0.0000000001
44
0.0000000001
40
0
40
0
40
0
40
0
40
1
40
1
40
1
40
1
41
1
41
1
41
1
41
1
10
110.43015325506173
20
-99.599236805325432
30
0
10
110.21690042504278
20
-99.535784837111819
30
0
10
109.99835500057418
20
-99.491722912588116
30
0
10
109.77628117980586
20
-99.470574049401222
30
0
0
LINE
5
104
100
AcDbEntity
8
0
100
AcDbLine
10
73.134380442981652
20
-94.703075967398945
30
0
11
109.77628117980588
21
-99.470574049401222
31
0
0
SPLINE
5
105
100
AcDbEntity
8
0
100
AcDbSpline
70
4
71
3
72
8
73
4
74
0
42
0.000000001
43
0.0000000001
44
0.0000000001
40
0
40
0
40
0
40
0
40
1
40
1
40
1
40
1
41
1
41
1
41
1
41
1
10
72.781885046792127
20
-94.556787365934667
30
0
10
72.875296111636231
20
-94.651962628928658
30
0
10
73.002194669410585
20
-94.703075967398945
30
0
10
73.134380442981652
20
-94.703075967398945
30
0
0
LINE
5
106
100
AcDbEntity
8
0
100
AcDbLine
10
119.34829323304037
20
-22.011473590238136
30
0
11
119.34829323304037
21
-23.261070468954905
31
0
0
SPLINE
5
107
100
AcDbEntity
8
0
100
AcDbSpline
70
4
71
3
72
8
73
4
74
0
42
0.000000001
43
0.0000000001
44
0.0000000001
40
0
40
0
40
0
40
0
40
1
40
1
40
1
40
1
41
1
41
1
41
1
41
1
10
119.34829323304037
20
-22.011473590238136
30
0
10
119.34829323304037
20
-21.736527611502531
30
0
10
119.12445521412216
20
-21.512692281910773
30
0
10
118.84774503723669
20
-21.512692281910773
30
0
0
SPLINE
5
108
100
AcDbEntity
8
0
100
AcDbSpline
70
4
71
3
72
8
73
4
74
0
42
0.000000001
43
0.0000000001
44
0.0000000001
40
0
40
0
40
0
40
0
40
1
40
1
40
1
40
1
41
1
41
1
41
1
41
1
10
119.34829323304037
20
-23.261070468954905
30
0
10
119.34829323304037
20
-23.537779301177157
30
0
10
119.57036705380872
20
-23.761613286105693
30
0
10
119.8470772306942
20
-23.761613286105693
30
0
0
LINE
5
109
100
AcDbEntity
8
0
100
AcDbLine
10
139.58152682285839
20
-23.761613286105693
30
0
11
119.8470772306942
21
-23.761613286105693
31
0
0
SPLINE
5
110
100
AcDbEntity
8
0
100
AcDbSpline
70
4
71
3
72
8
73
4
74
0
42
0.000000001
43
0.0000000001
44
0.0000000001
40
0
40
0
40
0
40
0
40
1
40
1
40
1
40
1
41
1
41
1
41
1
41
1
10
6.4387281973426447
20
-79.46646031564525
30
0
10
6.4387281973426447
20
-79.741406294380852
30
0
10
6.6625628546027915
20
-79.965244313299053
30
0
10
6.9375095056700067
20
-79.965244313299053
30
0
0
SPLINE
5
111
100
AcDbEntity
8
0
100
AcDbSpline
70
4
71
3
72
8
73
4
74
0
42
0.000000001
43
0.0000000001
44
0.0000000001
40
0
40
0
40
0
40
0
40
1
40
1
40
1
40
1
41
1
41
1
41
1
41
1
10
6.9375095056700067
20
-23.761613286105693
30
0
10
6.6625628546027915
20
-23.761613286105693
30
0
10
6.4387281973426447
20
-23.983685762210804
30
0
10
6.4387281973426447
20
-24.260394594433055
30
0
0
SPLINE
5
112
100
AcDbEntity
8
0
100
AcDbSpline
70
4
71
3
72
8
73
4
74
0
42
0.000000001
43
0.0000000001
44
0.0000000001
40
0
40
0
40
0
40
0
40
1
40
1
40
1
40
1
41
1
41
1
41
1
41
1
10
43.908988543357282
20
-23.761613286105693
30
0
10
44.183934522092883
20
-23.761613286105693
30
0
10
44.407769851684648
20
-23.537779301177157
30
0
10
44.407769851684648
20
-23.261070468954905
30
0
0
SPLINE
5
113
100
AcDbEntity
8
0
100
AcDbSpline
70
4
71
3
72
8
73
4
74
0
42
0.000000001
43
0.0000000001
44
0.0000000001
40
0
40
0
40
0
40
0
40
1
40
1
40
1
40
1
41
1
41
1
41
1
41
1
10
44.906551160012008
20
-19.01526272262711
30
0
10
44.631605181276406
20
-19.01526272262711
30
0
10
44.407769851684648
20
-19.239097379887259
30
0
10
44.407769851684648
20
-19.514044030954473
30
0
0
SPLINE
5
114
100
AcDbEntity
8
0
100
AcDbSpline
70
4
71
3
72
8
73
4
74
0
42
0.000000001
43
0.0000000001
44
0.0000000001
40
0
40
0
40
0
40
0
40
1
40
1
40
1
40
1
41
1
41
1
41
1
41
1
10
62.892629288448191
20
-19.01526272262711
30
0
10
63.169339465333664
20
-19.01526272262711
30
0
10
63.393172105598978
20
-18.791428737698578
30
0
10
63.393172105598978
20
-18.51471923314471
30
0
0
SPLINE
5
115
100
AcDbEntity
8
0
100
AcDbSpline
70
4
71
3
72
8
73
4
74
0
42
0.000000001
43
0.0000000001
44
0.0000000001
40
0
40
0
40
0
40
0
40
1
40
1
40
1
40
1
41
1
41
1
41
1
41
1
10
63.891950724599894
20
-16.766342390763803
30
0
10
63.617004745864286
20
-16.766342390763803
30
0
10
63.393172105598978
20
-16.990177048023952
30
0
10
63.393172105598978
20
-17.265123026759554
30
0
0
SPLINE
5
116
100
AcDbEntity
8
0
100
AcDbSpline
70
4
71
3
72
8
73
4
74
0
42
0.000000001
43
0.0000000001
44
0.0000000001
40
0
40
0
40
0
40
0
40
1
40
1
40
1
40
1
41
1
41
1
41
1
41
1
10
81.37748872521172
20
-17.265123026759554
30
0
10
81.37748872521172
20
-16.990177048023952
30
0
10
81.155414904443404
20
-16.766342390763803
30
0
10
80.878704727557931
20
-16.766342390763803
30
0
0
SPLINE
5
117
100
AcDbEntity
8
0
100
AcDbSpline
70
4
71
3
72
8
73
4
74
0
42
0.000000001
43
0.0000000001
44
0.0000000001
40
0
40
0
40
0
40
0
40
1
40
1
40
1
40
1
41
1
41
1
41
1
41
1
10
81.37748872521172
20
-18.51471923314471
30
0
10
81.37748872521172
20
-18.791428737698578
30
0
10
81.60132136547702
20
-19.01526272262711
30
0
10
81.878031542362521
20
-19.01526272262711
30
0
0
SPLINE
5
118
100
AcDbEntity
8
0
100
AcDbSpline
70
4
71
3
72
8
73
4
74
0
42
0.000000001
43
0.0000000001
44
0.0000000001
40
0
40
0
40
0
40
0
40
1
40
1
40
1
40
1
41
1
41
1
41
1
41
1
10
100.36288560047313
20
-19.514044030954473
30
0
10
100.36288560047313
20
-19.239097379887259
30
0
10
100.13905833886074
20
-19.01526272262711
30
0
10
99.864112360125148
20
-19.01526272262711
30
0
0
SPLINE
5
119
100
AcDbEntity
8
0
100
AcDbSpline
70
4
71
3
72
8
73
4
74
0
42
0.000000001
43
0.0000000001
44
0.0000000001
40
0
40
0
40
0
40
0
40
1
40
1
40
1
40
1
41
1
41
1
41
1
41
1
10
100.36288560047313
20
-21.012149464759986
30
0
10
100.36288560047313
20
-21.288858296982237
30
0
10
100.58672361939138
20
-21.512692281910773
30
0
10
100.86343379627685
20
-21.512692281910773
30
0
0
SPLINE
5
120
100
AcDbEntity
8
0
100
AcDbSpline
70
4
71
3
72
8
73
4
74
0
42
0.000000001
43
0.0000000001
44
0.0000000001
40
0
40
0
40
0
40
0
40
1
40
1
40
1
40
1
41
1
41
1
41
1
41
1
10
140.08031082051218
20
-24.260394594433055
30
0
10
140.08031082051218
20
-23.983685762210804
30
0
10
139.85823699974387
20
-23.761613286105693
30
0
10
139.58152682285839
20
-23.761613286105693
30
0
0
LINE
5
121
100
AcDbEntity
8
0
100
AcDbLine
10
118.84774503723669
20
-21.512692281910766
30
0
11
100.86343379627685
21
-21.512692281910773
31
0
0
LINE
5
122
100
AcDbEntity
8
0
100
AcDbLine
10
7.5085516709913458
20
-103.13123680251445
30
0
11
66.214899473265106
21
-103.13123680251445
31
0
0
SPLINE
5
123
100
AcDbEntity
8
0
100
AcDbSpline
70
4
71
3
72
8
73
4
74
0
42
0.000000001
43
0.0000000001
44
0.0000000001
40
0
40
0
40
0
40
0
40
1
40
1
40
1
40
1
41
1
41
1
41
1
41
1
10
66.214899473265106
20
-103.13123680251445
30
0
10
66.599118164235009
20
-103.13123680251445
30
0
10
66.840576650040362
20
-102.71529481676421
30
0
10
66.648467304555425
20
-102.3821840856117
30
0
0
LINE
5
124
100
AcDbEntity
8
0
100
AcDbLine
10
66.648467304555425
20
-102.3821840856117
30
0
11
55.853295796250997
21
-83.678779224379582
31
0
0
SPLINE
5
125
100
AcDbEntity
8
0
100
AcDbSpline
70
4
71
3
72
8
73
4
74
0
42
0.000000001
43
0.0000000001
44
0.0000000001
40
0
40
0
40
0
40
0
40
1
40
1
40
1
40
1
41
1
41
1
41
1
41
1
10
55.853295796250997
20
-83.678779224379582
30
0
10
55.765171947203605
20
-83.523680389471735
30
0
10
55.599498680702297
20
-83.428510505130632
30
0
10
55.421486784457656
20
-83.428510505130632
30
0
0
LINE
5
126
100
AcDbEntity
8
0
100
AcDbLine
10
55.421486784457656
20
-83.428510505130632
30
0
11
7.5120767056330351
21
-83.428510505130632
31
0
0
SPLINE
5
127
100
AcDbEntity
8
0
100
AcDbSpline
70
4
71
3
72
8
73
4
74
0
42
0.000000001
43
0.0000000001
44
0.0000000001
40
0
40
0
40
0
40
0
40
1
40
1
40
1
40
1
41
1
41
1
41
1
41
1
10
7.5120767056330351
20
-83.428510505130632
30
0
10
7.2353678734107802
20
-83.428510505130632
30
0
10
7.0115332161506352
20
-83.652343145395946
30
0
10
7.0115332161506352
20
-83.929053322281419
30
0
0
LINE
5
128
100
AcDbEntity
8
0
100
AcDbLine
10
7.0115332161506352
20
-83.929053322281419
30
0
11
7.0097710349955964
21
-102.63246356216644
31
0
0
SPLINE
5
129
100
AcDbEntity
8
0
100
AcDbSpline
70
4
71
3
72
8
73
4
74
0
42
0.000000001
43
0.0000000001
44
0.0000000001
40
0
40
0
40
0
40
0
40
1
40
1
40
1
40
1
41
1
41
1
41
1
41
1
10
7.0097710349955964
20
-102.63246356216644
30
0
10
7.0097710349955964
20
-102.90916298174614
30
0
10
7.2336056922557423
20
-103.13123680251445
30
0
10
7.5085516709913458
20
-103.13123680251445
30
0
0
SPLINE
5
130
100
AcDbEntity
8
0
100
AcDbSpline
70
4
71
3
72
8
73
4
74
0
42
0.000000001
43
0.0000000001
44
0.0000000001
40
0
40
0
40
0
40
0
40
1
40
1
40
1
40
1
41
1
41
1
41
1
41
1
10
24.923586289442959
20
-60.128562665541388
30
0
10
25.529878801181187
20
-60.128562665541388
30
0
10
26.023372893711819
20
-60.620295249248599
30
0
10
26.023372893711819
20
-61.228346580483802
30
0
0
SPLINE
5
131
100
AcDbEntity
8
0
100
AcDbSpline
70
4
71
3
72
8
73
4
74
0
42
0.000000001
43
0.0000000001
44
0.0000000001
40
0
40
0
40
0
40
0
40
1
40
1
40
1
40
1
41
1
41
1
41
1
41
1
10
26.023372893711819
20
-61.228346580483802
30
0
10
26.023372893711819
20
-61.834639092222034
30
0
10
25.529878801181187
20
-62.326371675929238
30
0
10
24.923586289442959
20
-62.326371675929238
30
0
0
SPLINE
5
132
100
AcDbEntity
8
0
100
AcDbSpline
70
4
71
3
72
8
73
4
74
0
42
0.000000001
43
0.0000000001
44
0.0000000001
40
0
40
0
40
0
40
0
40
1
40
1
40
1
40
1
41
1
41
1
41
1
41
1
10
24.923586289442959
20
-62.326371675929238
30
0
10
24.317293777704734
20
-62.326371675929238
30
0
10
23.823802374500545
20
-61.834639092222034
30
0
10
23.823802374500545
20
-61.228346580483802
30
0
0
SPLINE
5
133
100
AcDbEntity
8
0
100
AcDbSpline
70
4
71
3
72
8
73
4
74
0
42
0.000000001
43
0.0000000001
44
0.0000000001
40
0
40
0
40
0
40
0
40
1
40
1
40
1
40
1
41
1
41
1
41
1
41
1
10
23.823802374500545
20
-61.228346580483802
30
0
10
23.823802374500545
20
-60.620295249248599
30
0
10
24.317293777704734
20
-60.128562665541388
30
0
10
24.923586289442959
20
-60.128562665541388
30
0
0
SPLINE
5
134
100
AcDbEntity
8
0
100
AcDbSpline
70
4
71
3
72
8
73
4
74
0
42
0.000000001
43
0.0000000001
44
0.0000000001
40
0
40
0
40
0
40
0
40
1
40
1
40
1
40
1
41
1
41
1
41
1
41
1
10
24.923586289442959
20
-41.393434509528916
30
0
10
25.529878801181187
20
-41.393434509528916
30
0
10
26.023372893711819
20
-41.88516440390967
30
0
10
26.023372893711819
20
-42.493218424471323
30
0
0
SPLINE
5
135
100
AcDbEntity
8
0
100
AcDbSpline
70
4
71
3
72
8
73
4
74
0
42
0.000000001
43
0.0000000001
44
0.0000000001
40
0
40
0
40
0
40
0
40
1
40
1
40
1
40
1
41
1
41
1
41
1
41
1
10
26.023372893711819
20
-42.493218424471323
30
0
10
26.023372893711819
20
-43.099510936209555
30
0
10
25.529878801181187
20
-43.591240830590309
30
0
10
24.923586289442959
20
-43.591240830590309
30
0
0
SPLINE
5
136
100
AcDbEntity
8
0
100
AcDbSpline
70
4
71
3
72
8
73
4
74
0
42
0.000000001
43
0.0000000001
44
0.0000000001
40
0
40
0
40
0
40
0
40
1
40
1
40
1
40
1
41
1
41
1
41
1
41
1
10
24.923586289442959
20
-43.591240830590309
30
0
10
24.317293777704734
20
-43.591240830590309
30
0
10
23.823802374500545
20
-43.099510936209555
30
0
10
23.823802374500545
20
-42.493218424471323
30
0
0
SPLINE
5
137
100
AcDbEntity
8
0
100
AcDbSpline
70
4
71
3
72
8
73
4
74
0
42
0.000000001
43
0.0000000001
44
0.0000000001
40
0
40
0
40
0
40
0
40
1
40
1
40
1
40
1
41
1
41
1
41
1
41
1
10
23.823802374500545
20
-42.493218424471323
30
0
10
23.823802374500545
20
-41.88516440390967
30
0
10
24.317293777704734
20
-41.393434509528916
30
0
10
24.923586289442959
20
-41.393434509528916
30
0
0
SPLINE
5
138
100
AcDbEntity
8
0
100
AcDbSpline
70
4
71
3
72
8
73
4
74
0
42
0.000000001
43
0.0000000001
44
0.0000000001
40
0
40
0
40
0
40
0
40
1
40
1
40
1
40
1
41
1
41
1
41
1
41
1
10
100.86343379627685
20
-37.646406726865251
30
0
10
101.46972630801507
20
-37.646406726865251
30
0
10
101.96145351306939
20
-38.138139310572463
30
0
10
101.96145351306939
20
-38.746193331134116
30
0
0
SPLINE
5
139
100
AcDbEntity
8
0
100
AcDbSpline
70
4
71
3
72
8
73
4
74
0
42
0.000000001
43
0.0000000001
44
0.0000000001
40
0
40
0
40
0
40
0
40
1
40
1
40
1
40
1
41
1
41
1
41
1
41
1
10
101.96145351306939
20
-38.746193331134116
30
0
10
101.96145351306939
20
-39.352485842872341
30
0
10
101.46972630801507
20
-39.844215737253101
30
0
10
100.86343379627685
20
-39.844215737253101
30
0
0
SPLINE
5
140
100
AcDbEntity
8
0
100
AcDbSpline
70
4
71
3
72
8
73
4
74
0
42
0.000000001
43
0.0000000001
44
0.0000000001
40
0
40
0
40
0
40
0
40
1
40
1
40
1
40
1
41
1
41
1
41
1
41
1
10
100.86343379627685
20
-39.844215737253101
30
0
10
100.25537708638876
20
-39.844215737253101
30
0
10
99.76364988133443
20
-39.352485842872341
30
0
10
99.76364988133443
20
-38.746193331134116
30
0
0
SPLINE
5
141
100
AcDbEntity
8
0
100
AcDbSpline
70
4
71
3
72
8
73
4
74
0
42
0.000000001
43
0.0000000001
44
0.0000000001
40
0
40
0
40
0
40
0
40
1
40
1
40
1
40
1
41
1
41
1
41
1
41
1
10
99.76364988133443
20
-38.746193331134116
30
0
10
99.76364988133443
20
-38.138139310572463
30
0
10
100.25537708638876
20
-37.646406726865251
30
0
10
100.86343379627685
20
-37.646406726865251
30
0
0
SPLINE
5
142
100
AcDbEntity
8
0
100
AcDbSpline
70
4
71
3
72
8
73
4
74
0
42
0.000000001
43
0.0000000001
44
0.0000000001
40
0
40
0
40
0
40
0
40
1
40
1
40
1
40
1
41
1
41
1
41
1
41
1
10
68.139521324414332
20
-77.365590766401255
30
0
10
68.745813836152564
20
-77.365590766401255
30
0
10
69.237546419859768
20
-77.857317971455572
30
0
10
69.237546419859768
20
-78.463610483193804
30
0
0
SPLINE
5
143
100
AcDbEntity
8
0
100
AcDbSpline
70
4
71
3
72
8
73
4
74
0
42
0.000000001
43
0.0000000001
44
0.0000000001
40
0
40
0
40
0
40
0
40
1
40
1
40
1
40
1
41
1
41
1
41
1
41
1
10
69.237546419859768
20
-78.463610483193804
30
0
10
69.237546419859768
20
-79.071667193081907
30
0
10
68.745813836152564
20
-79.563399776789112
30
0
10
68.139521324414332
20
-79.563399776789112
30
0
0
SPLINE
5
144
100
AcDbEntity
8
0
100
AcDbSpline
70
4
71
3
72
8
73
4
74
0
42
0.000000001
43
0.0000000001
44
0.0000000001
40
0
40
0
40
0
40
0
40
1
40
1
40
1
40
1
41
1
41
1
41
1
41
1
10
68.139521324414332
20
-79.563399776789112
30
0
10
67.53146999317913
20
-79.563399776789112
30
0
10
67.039737409471925
20
-79.071667193081907
30
0
10
67.039737409471925
20
-78.463610483193804
30
0
0
SPLINE
5
145
100
AcDbEntity
8
0
100
AcDbSpline
70
4
71
3
72
8
73
4
74
0
42
0.000000001
43
0.0000000001
44
0.0000000001
40
0
40
0
40
0
40
0
40
1
40
1
40
1
40
1
41
1
41
1
41
1
41
1
10
67.039737409471925
20
-78.463610483193804
30
0
10
67.039737409471925
20
-77.857317971455572
30
0
10
67.53146999317913
20
-77.365590766401255
30
0
10
68.139521324414332
20
-77.365590766401255
30
0
0
SPLINE
5
146
100
AcDbEntity
8
0
100
AcDbSpline
70
4
71
3
72
8
73
4
74
0
42
0.000000001
43
0.0000000001
44
0.0000000001
40
0
40
0
40
0
40
0
40
1
40
1
40
1
40
1
41
1
41
1
41
1
41
1
10
114.60194401422501
20
-85.108150852827649
30
0
10
115.20823652596323
20
-85.108150852827649
30
0
10
115.69996373101756
20
-85.599883436534853
30
0
10
115.69996373101756
20
-86.20793476777007
30
0
0
SPLINE
5
147
100
AcDbEntity
8
0
100
AcDbSpline
70
4
71
3
72
8
73
4
74
0
42
0.000000001
43
0.0000000001
44
0.0000000001
40
0
40
0
40
0
40
0
40
1
40
1
40
1
40
1
41
1
41
1
41
1
41
1
10
115.69996373101756
20
-86.20793476777007
30
0
10
115.69996373101756
20
-86.814227279508287
30
0
10
115.20823652596323
20
-87.305959863215492
30
0
10
114.60194401422501
20
-87.305959863215492
30
0
0
SPLINE
5
148
100
AcDbEntity
8
0
100
AcDbSpline
70
4
71
3
72
8
73
4
74
0
42
0.000000001
43
0.0000000001
44
0.0000000001
40
0
40
0
40
0
40
0
40
1
40
1
40
1
40
1
41
1
41
1
41
1
41
1
10
114.60194401422501
20
-87.305959863215492
30
0
10
113.99388730433692
20
-87.305959863215492
30
0
10
113.50216009928261
20
-86.814227279508287
30
0
10
113.50216009928261
20
-86.20793476777007
30
0
0
SPLINE
5
149
100
AcDbEntity
8
0
100
AcDbSpline
70
4
71
3
72
8
73
4
74
0
42
0.000000001
43
0.0000000001
44
0.0000000001
40
0
40
0
40
0
40
0
40
1
40
1
40
1
40
1
41
1
41
1
41
1
41
1
10
113.50216009928261
20
-86.20793476777007
30
0
10
113.50216009928261
20
-85.599883436534853
30
0
10
113.99388730433692
20
-85.108150852827649
30
0
10
114.60194401422501
20
-85.108150852827649
30
0
0
SPLINE
5
150
100
AcDbEntity
8
0
100
AcDbSpline
70
4
71
3
72
8
73
4
74
0
42
0.000000001
43
0.0000000001
44
0.0000000001
40
0
40
0
40
0
40
0
40
1
40
1
40
1
40
1
41
1
41
1
41
1
41
1
10
54.455652841236187
20
-87.173774089644411
30
0
10
55.061945352974419
20
-87.173774089644411
30
0
10
55.555436756178608
20
-86.682041505937221
30
0
10
55.555436756178608
20
-86.075748994198989
30
0
0
SPLINE
5
151
100
AcDbEntity
8
0
100
AcDbSpline
70
4
71
3
72
8
73
4
74
0
42
0.000000001
43
0.0000000001
44
0.0000000001
40
0
40
0
40
0
40
0
40
1
40
1
40
1
40
1
41
1
41
1
41
1
41
1
10
55.555436756178608
20
-86.075748994198989
30
0
10
55.555436756178608
20
-85.467697662963786
30
0
10
55.061945352974419
20
-84.975965079256568
30
0
10
54.455652841236187
20
-84.975965079256568
30
0
0
SPLINE
5
152
100
AcDbEntity
8
0
100
AcDbSpline
70
4
71
3
72
8
73
4
74
0
42
0.000000001
43
0.0000000001
44
0.0000000001
40
0
40
0
40
0
40
0
40
1
40
1
40
1
40
1
41
1
41
1
41
1
41
1
10
54.455652841236187
20
-84.975965079256568
30
0
10
53.849360329497962
20
-84.975965079256568
30
0
10
53.355863547640887
20
-85.467697662963786
30
0
10
53.355863547640887
20
-86.075748994198989
30
0
0
SPLINE
5
153
100
AcDbEntity
8
0
100
AcDbSpline
70
4
71
3
72
8
73
4
74
0
42
0.000000001
43
0.0000000001
44
0.0000000001
40
0
40
0
40
0
40
0
40
1
40
1
40
1
40
1
41
1
41
1
41
1
41
1
10
53.355863547640887
20
-86.075748994198989
30
0
10
53.355863547640887
20
-86.682041505937221
30
0
10
53.849360329497962
20
-87.173774089644411
30
0
10
54.455652841236187
20
-87.173774089644411
30
0
0
SPLINE
5
154
100
AcDbEntity
8
0
100
AcDbSpline
70
4
71
3
72
8
73
4
74
0
42
0.000000001
43
0.0000000001
44
0.0000000001
40
0
40
0
40
0
40
0
40
1
40
1
40
1
40
1
41
1
41
1
41
1
41
1
10
62.970178705902114
20
-101.59436203863487
30
0
10
63.576471217640346
20
-101.59436203863487
30
0
10
64.06819842269465
20
-101.10262407627476
30
0
10
64.06819842269465
20
-100.49633156453655
30
0
0
SPLINE
5
155
100
AcDbEntity
8
0
100
AcDbSpline
70
4
71
3
72
8
73
4
74
0
42
0.000000001
43
0.0000000001
44
0.0000000001
40
0
40
0
40
0
40
0
40
1
40
1
40
1
40
1
41
1
41
1
41
1
41
1
10
64.06819842269465
20
-100.49633156453655
30
0
10
64.06819842269465
20
-99.888280233301344
30
0
10
63.576471217640346
20
-99.396553028247027
30
0
10
62.970178705902114
20
-99.396553028247027
30
0
0
SPLINE
5
156
100
AcDbEntity
8
0
100
AcDbSpline
70
4
71
3
72
8
73
4
74
0
42
0.000000001
43
0.0000000001
44
0.0000000001
40
0
40
0
40
0
40
0
40
1
40
1
40
1
40
1
41
1
41
1
41
1
41
1
10
62.970178705902114
20
-99.396553028247027
30
0
10
62.362121996014011
20
-99.396553028247027
30
0
10
61.870389412306807
20
-99.888280233301344
30
0
10
61.870389412306807
20
-100.49633156453655
30
0
0
SPLINE
5
157
100
AcDbEntity
8
0
100
AcDbSpline
70
4
71
3
72
8
73
4
74
0
42
0.000000001
43
0.0000000001
44
0.0000000001
40
0
40
0
40
0
40
0
40
1
40
1
40
1
40
1
41
1
41
1
41
1
41
1
10
61.870389412306807
20
-100.49633156453655
30
0
10
61.870389412306807
20
-101.10262407627476
30
0
10
62.362121996014011
20
-101.59436203863487
30
0
10
62.970178705902114
20
-101.59436203863487
30
0
0
LINE
5
158
100
AcDbEntity
8
0
100
AcDbLine
10
140.08031082051215
20
-83.68759483647608
30
0
11
140.08031082051218
21
-24.260394594433055
31
0
0
LINE
5
159
100
AcDbEntity
8
0
100
AcDbLine
10
126.63965964263639
20
-107.47574686347276
30
0
11
139.8547086034441
21
-84.560017714853416
31
0
0
LINE
5
160
100
AcDbEntity
8
0
100
AcDbLine
10
124.71327359333728
20
-107.85467295999304
30
0
11
110.43015325506173
21
-99.599236805325432
31
0
0
SPLINE
5
161
100
AcDbEntity
8
0
100
AcDbSpline
70
4
71
3
72
8
73
4
74
0
42
0.000000001
43
0.0000000001
44
0.0000000001
40
0.0062156130045669233
40
0.0062156130045669233
40
0.0062156130045669233
40
0.0062156130045669233
40
1
40
1
40
1
40
1
41
1
41
1
41
1
41
1
10
62.245816168788728
20
-80.109790416505348
30
0
10
62.152551431233306
20
-80.017461248175792
30
0
10
62.024666631601434
20
-79.965244313299053
30
0
10
61.893302473643587
20
-79.965244313299053
30
0
0
LINE
5
162
100
AcDbEntity
8
0
100
AcDbLine
10
62.245816168788728
20
-80.109790416505348
30
0
11
72.781885046792127
21
-94.556787365934667
31
0
0
LINE
5
163
100
AcDbEntity
8
0
100
AcDbLine
10
6.9375095056700067
20
-79.965244313299053
30
0
11
61.893302473643587
21
-79.965244313299053
31
0
0
LINE
5
164
100
AcDbEntity
8
0
100
AcDbLine
10
6.4387281973426447
20
-79.46646031564525
30
0
11
6.4387281973426438
21
-24.260394594433055
31
0
0
LINE
5
165
100
AcDbEntity
8
0
100
AcDbLine
10
6.9375095056700067
20
-23.761613286105693
30
0
11
43.908988543357282
21
-23.761613286105693
31
0
0
LINE
5
166
100
AcDbEntity
8
0
100
AcDbLine
10
44.407769851684634
20
-23.261070468954905
30
0
11
44.407769851684655
21
-19.514044030954473
31
0
0
LINE
5
167
100
AcDbEntity
8
0
100
AcDbLine
10
44.906551160012008
20
-19.01526272262711
30
0
11
62.892629288448191
21
-19.01526272262711
31
0
0
LINE
5
168
100
AcDbEntity
8
0
100
AcDbLine
10
63.393172105598985
20
-17.265123026759557
30
0
11
63.393172105598978
21
-18.51471923314471
31
0
0
LINE
5
169
100
AcDbEntity
8
0
100
AcDbLine
10
63.891950724599894
20
-16.766342390763803
30
0
11
80.878704727557931
21
-16.766342390763807
31
0
0
LINE
5
170
100
AcDbEntity
8
0
100
AcDbLine
10
81.37748872521172
20
-17.265123026759554
30
0
11
81.37748872521172
21
-18.51471923314471
31
0
0
LINE
5
171
100
AcDbEntity
8
0
100
AcDbLine
10
81.878031542362521
20
-19.01526272262711
30
0
11
99.864112360125148
21
-19.015262722627114
31
0
0
LINE
5
172
100
AcDbEntity
8
0
100
AcDbLine
10
100.36288560047313
20
-21.012149464759986
30
0
11
100.36288560047313
21
-19.514044030954473
31
0
0
SPLINE
5
173
100
AcDbEntity
8
0
100
AcDbSpline
70
4
71
3
72
8
73
4
74
0
42
0.000000001
43
0.0000000001
44
0.0000000001
40
0
40
0
40
0
40
0
40
1
40
1
40
1
40
1
41
1
41
1
41
1
41
1
10
8.0717005606850023
20
-175.60047398633321
30
0
10
7.9201301220768983
20
-175.33434361969412
30
0
10
7.8408165064730895
20
-175.03472038147186
30
0
10
7.8460983436169229
20
-174.72805110795591
30
0
0
LINE
5
174
100
AcDbEntity
8
0
100
AcDbLine
10
103.01985800411688
20
-110.05571899410711
30
0
11
85.03377987568075
21
-110.05571899410711
31
0
0
SPLINE
5
175
100
AcDbEntity
8
0
100
AcDbSpline
70
4
71
3
72
8
73
4
74
0
42
0.000000001
43
0.0000000001
44
0.0000000001
40
0
40
0
40
0
40
0
40
1
40
1
40
1
40
1
41
1
41
1
41
1
41
1
10
23.213135570791792
20
-198.89512923147279
30
0
10
22.578648160572925
20
-199.32165640612232
30
0
10
21.718558533286014
20
-199.15421894147113
30
0
10
21.290277917792437
20
-198.51973153125229
30
0
0
SPLINE
5
176
100
AcDbEntity
8
0
100
AcDbSpline
70
4
71
3
72
8
73
4
74
0
42
0.000000001
43
0.0000000001
44
0.0000000001
40
0
40
0
40
0
40
0
40
1
40
1
40
1
40
1
41
1
41
1
41
1
41
1
10
94.570545616488005
20
-177.11620526567884
30
0
10
94.570545616488005
20
-177.72249777741706
30
0
10
94.077048834630943
20
-178.21423036112429
30
0
10
93.470756322892726
20
-178.21423036112429
30
0
0
SPLINE
5
177
100
AcDbEntity
8
0
100
AcDbSpline
70
4
71
3
72
8
73
4
74
0
42
0.000000001
43
0.0000000001
44
0.0000000001
40
0
40
0
40
0
40
0
40
1
40
1
40
1
40
1
41
1
41
1
41
1
41
1
10
32.226445433111479
20
-177.2483910392499
30
0
10
32.226445433111479
20
-177.85468355098811
30
0
10
32.718172638165797
20
-178.34641613469532
30
0
10
33.324465149904015
20
-178.34641613469532
30
0
0
SPLINE
5
178
100
AcDbEntity
8
0
100
AcDbSpline
70
4
71
3
72
8
73
4
74
0
42
0.000000001
43
0.0000000001
44
0.0000000001
40
0
40
0
40
0
40
0
40
1
40
1
40
1
40
1
41
1
41
1
41
1
41
1
10
47.062975367852182
20
-128.68686299834519
30
0
10
46.456682856113964
20
-128.68686299834519
30
0
10
45.964955651059647
20
-129.1785955820524
30
0
10
45.964955651059647
20
-129.78664960261406
30
0
0
SPLINE
5
179
100
AcDbEntity
8
0
100
AcDbSpline
70
4
71
3
72
8
73
4
74
0
42
0.000000001
43
0.0000000001
44
0.0000000001
40
0
40
0
40
0
40
0
40
1
40
1
40
1
40
1
41
1
41
1
41
1
41
1
10
103.01985800411688
20
-110.05571899410711
30
0
10
103.29480398285249
20
-110.05571899410711
30
0
10
103.51863931244424
20
-110.27955365136727
30
0
10
103.51863931244424
20
-110.55450030243448
30
0
0
SPLINE
5
180
100
AcDbEntity
8
0
100
AcDbSpline
70
4
71
3
72
8
73
4
74
0
42
0.000000001
43
0.0000000001
44
0.0000000001
40
0
40
0
40
0
40
0
40
1
40
1
40
1
40
1
41
1
41
1
41
1
41
1
10
93.470756322892726
20
-176.01642135073638
30
0
10
94.077048834630943
20
-176.01642135073638
30
0
10
94.570545616488005
20
-176.50815393444361
30
0
10
94.570545616488005
20
-177.11620526567884
30
0
0
LINE
5
181
100
AcDbEntity
8
0
100
AcDbLine
10
28.578115931088703
20
-113.05192986171811
30
0
11
28.578115931088703
21
-114.30152674043487
31
0
0
SPLINE
5
182
100
AcDbEntity
8
0
100
AcDbSpline
70
4
71
3
72
8
73
4
74
0
42
0.000000001
43
0.0000000001
44
0.0000000001
40
0
40
0
40
0
40
0
40
1
40
1
40
1
40
1
41
1
41
1
41
1
41
1
10
66.548920438917278
20
-109.55517550462471
30
0
10
66.548920438917278
20
-109.83188500917856
30
0
10
66.325087798651978
20
-110.05571899410711
30
0
10
66.048377621766463
20
-110.05571899410711
30
0
0
LINE
5
183
100
AcDbEntity
8
0
100
AcDbLine
10
23.213135570791792
20
-198.89512923147279
30
0
11
37.496255909067315
21
-190.63969307680523
31
0
0
LINE
5
184
100
AcDbEntity
8
0
100
AcDbLine
10
81.277941859573488
20
-193.4226403570915
30
0
11
92.073113367877895
21
-174.71923549585944
31
0
0
SPLINE
5
185
100
AcDbEntity
8
0
100
AcDbSpline
70
4
71
3
72
8
73
4
74
0
42
0.000000001
43
0.0000000001
44
0.0000000001
40
0
40
0
40
0
40
0
40
1
40
1
40
1
40
1
41
1
41
1
41
1
41
1
10
47.062975367852182
20
-130.88467200873305
30
0
10
47.671032077740279
20
-130.88467200873305
30
0
10
48.162759282794596
20
-130.39294211435228
30
0
10
48.162759282794596
20
-129.78664960261406
30
0
0
LINE
5
186
100
AcDbEntity
8
0
100
AcDbLine
10
141.48768096678617
20
-170.50691658712512
30
0
11
141.4876809667862
21
-115.30085086591305
31
0
0
LINE
5
187
100
AcDbEntity
8
0
100
AcDbLine
10
21.286749521492681
20
-198.51620313495255
30
0
11
8.0717005606850023
21
-175.60047398633321
31
0
0
LINE
5
188
100
AcDbEntity
8
0
100
AcDbLine
10
103.51863931244426
20
-114.30152674043489
30
0
11
103.51863931244424
21
-110.55450030243448
31
0
0
LINE
5
189
100
AcDbEntity
8
0
100
AcDbLine
10
66.548920438917278
20
-108.30557929823955
30
0
11
66.548920438917278
21
-109.55517550462471
31
0
0
SPLINE
5
190
100
AcDbEntity
8
0
100
AcDbSpline
70
4
71
3
72
8
73
4
74
0
42
0.000000001
43
0.0000000001
44
0.0000000001
40
0
40
0
40
0
40
0
40
1
40
1
40
1
40
1
41
1
41
1
41
1
41
1
10
66.548920438917278
20
-108.30557929823955
30
0
10
66.548920438917278
20
-108.03063331950395
30
0
10
66.770994259685608
20
-107.80679866224381
30
0
10
67.047704436571081
20
-107.80679866224381
30
0
0
LINE
5
191
100
AcDbEntity
8
0
100
AcDbLine
10
140.41785749313746
20
-194.17169307399428
30
0
11
81.711509690863835
21
-194.17169307399428
31
0
0
SPLINE
5
192
100
AcDbEntity
8
0
100
AcDbSpline
70
4
71
3
72
8
73
4
74
0
42
0.000000001
43
0.0000000001
44
0.0000000001
40
0
40
0
40
0
40
0
40
1
40
1
40
1
40
1
41
1
41
1
41
1
41
1
10
121.903036270417
20
-152.2688028519637
30
0
10
121.903036270417
20
-152.87509536370194
30
0
10
122.39653036294766
20
-153.36682794740915
30
0
10
123.00282287468588
20
-153.36682794740915
30
0
0
SPLINE
5
193
100
AcDbEntity
8
0
100
AcDbSpline
70
4
71
3
72
8
73
4
74
0
42
0.000000001
43
0.0000000001
44
0.0000000001
40
0
40
0
40
0
40
0
40
1
40
1
40
1
40
1
41
1
41
1
41
1
41
1
10
140.98889965845882
20
-114.80206955758568
30
0
10
141.26384630952603
20
-114.80206955758568
30
0
10
141.4876809667862
20
-115.02414203369079
30
0
10
141.4876809667862
20
-115.30085086591305
30
0
0
LINE
5
194
100
AcDbEntity
8
0
100
AcDbLine
10
74.792028721147261
20
-185.74353223887874
30
0
11
38.15012798432317
21
-190.51103032088099
31
0
0
SPLINE
5
195
100
AcDbEntity
8
0
100
AcDbSpline
70
4
71
3
72
8
73
4
74
0
42
0.000000001
43
0.0000000001
44
0.0000000001
40
0
40
0
40
0
40
0
40
1
40
1
40
1
40
1
41
1
41
1
41
1
41
1
10
28.578115931088703
20
-113.05192986171811
30
0
10
28.578115931088703
20
-112.77698388298251
30
0
10
28.801953950006904
20
-112.55314855339077
30
0
10
29.078664126892377
20
-112.55314855339077
30
0
0
LINE
5
196
100
AcDbEntity
8
0
100
AcDbLine
10
140.98889965845882
20
-114.80206955758568
30
0
11
104.01742062077162
21
-114.80206955758568
31
0
0
LINE
5
197
100
AcDbEntity
8
0
100
AcDbLine
10
84.034458439529061
20
-107.80679866224381
30
0
11
67.047704436571081
21
-107.80679866224381
31
0
0
SPLINE
5
198
100
AcDbEntity
8
0
100
AcDbSpline
70
4
71
3
72
8
73
4
74
0
42
0.000000001
43
0.0000000001
44
0.0000000001
40
0
40
0
40
0
40
0
40
1
40
1
40
1
40
1
41
1
41
1
41
1
41
1
10
37.496255909067315
20
-190.63969307680523
30
0
10
37.709508739086246
20
-190.57624110859163
30
0
10
37.928054163554847
20
-190.53217918406796
30
0
10
38.15012798432317
20
-190.51103032088099
30
0
0
SPLINE
5
199
100
AcDbEntity
8
0
100
AcDbSpline
70
4
71
3
72
8
73
4
74
0
42
0.000000001
43
0.0000000001
44
0.0000000001
40
0
40
0
40
0
40
0
40
1
40
1
40
1
40
1
41
1
41
1
41
1
41
1
10
7.8460983436169585
20
-115.30085086591302
30
0
10
7.8460983436169585
20
-115.02414203369078
30
0
10
8.0681721643852811
20
-114.80206955758567
30
0
10
8.344882341270754
20
-114.80206955758567
30
0
0
SPLINE
5
200
100
AcDbEntity
8
0
100
AcDbSpline
70
4
71
3
72
8
73
4
74
0
42
0.000000001
43
0.0000000001
44
0.0000000001
40
0
40
0
40
0
40
0
40
1
40
1
40
1
40
1
41
1
41
1
41
1
41
1
10
83.858210741434291
20
-191.53678783601634
30
0
10
83.858210741434291
20
-190.92873650478114
30
0
10
84.349937946488581
20
-190.43700929972684
30
0
10
84.956230458226827
20
-190.43700929972684
30
0
0
SPLINE
5
201
100
AcDbEntity
8
0
100
AcDbSpline
70
4
71
3
72
8
73
4
74
0
42
0.000000001
43
0.0000000001
44
0.0000000001
40
0
40
0
40
0
40
0
40
1
40
1
40
1
40
1
41
1
41
1
41
1
41
1
10
124.10260678962828
20
-152.2688028519637
30
0
10
124.10260678962828
20
-151.6607515207285
30
0
10
123.60911538642409
20
-151.16901893702129
30
0
10
123.00282287468588
20
-151.16901893702129
30
0
0
SPLINE
5
202
100
AcDbEntity
8
0
100
AcDbSpline
70
4
71
3
72
8
73
4
74
0
42
0.000000001
43
0.0000000001
44
0.0000000001
40
0
40
0
40
0
40
0
40
1
40
1
40
1
40
1
41
1
41
1
41
1
41
1
10
84.956230458226827
20
-192.63481831011467
30
0
10
84.349937946488581
20
-192.63481831011467
30
0
10
83.858210741434291
20
-192.14308034775456
30
0
10
83.858210741434291
20
-191.53678783601634
30
0
0
SPLINE
5
203
100
AcDbEntity
8
0
100
AcDbSpline
70
4
71
3
72
8
73
4
74
0
42
0.000000001
43
0.0000000001
44
0.0000000001
40
0
40
0
40
0
40
0
40
1
40
1
40
1
40
1
41
1
41
1
41
1
41
1
10
93.470756322892726
20
-178.21423036112429
30
0
10
92.864463811154465
20
-178.21423036112429
30
0
10
92.370972407950262
20
-177.72249777741706
30
0
10
92.370972407950262
20
-177.11620526567884
30
0
0
SPLINE
5
204
100
AcDbEntity
8
0
100
AcDbSpline
70
4
71
3
72
8
73
4
74
0
42
0.000000001
43
0.0000000001
44
0.0000000001
40
0
40
0
40
0
40
0
40
1
40
1
40
1
40
1
41
1
41
1
41
1
41
1
10
47.563523563655892
20
-112.05260573623997
30
0
10
47.563523563655892
20
-112.32931456846222
30
0
10
47.339685544737655
20
-112.55314855339077
30
0
10
47.062975367852182
20
-112.55314855339077
30
0
0
LINE
5
205
100
AcDbEntity
8
0
100
AcDbLine
10
85.680592995340206
20
-171.1502466879852
30
0
11
75.144524117336786
21
-185.59724363741449
31
0
0
SPLINE
5
206
100
AcDbEntity
8
0
100
AcDbSpline
70
4
71
3
72
8
73
4
74
0
42
0.000000001
43
0.0000000001
44
0.0000000001
40
0
40
0
40
0
40
0
40
1
40
1
40
1
40
1
41
1
41
1
41
1
41
1
10
121.90303627041703
20
-133.53367469595128
30
0
10
121.90303627041703
20
-134.13996720768949
30
0
10
122.39653036294769
20
-134.63169710207026
30
0
10
123.0028228746859
20
-134.63169710207026
30
0
0
SPLINE
5
207
100
AcDbEntity
8
0
100
AcDbSpline
70
4
71
3
72
8
73
4
74
0
42
0.000000001
43
0.0000000001
44
0.0000000001
40
0
40
0
40
0
40
0
40
1
40
1
40
1
40
1
41
1
41
1
41
1
41
1
10
80.886671754657016
20
-169.50406675467366
30
0
10
80.886671754657016
20
-168.89777424293541
30
0
10
80.394939170949797
20
-168.40604703788114
30
0
10
79.786887839714609
20
-168.40604703788114
30
0
0
SPLINE
5
208
100
AcDbEntity
8
0
100
AcDbSpline
70
4
71
3
72
8
73
4
74
0
42
0.000000001
43
0.0000000001
44
0.0000000001
40
0
40
0
40
0
40
0
40
1
40
1
40
1
40
1
41
1
41
1
41
1
41
1
10
124.10260678962831
20
-133.53367469595128
30
0
10
124.10260678962831
20
-132.92562067538964
30
0
10
123.60911538642412
20
-132.43389078100887
30
0
10
123.0028228746859
20
-132.43389078100887
30
0
0
SPLINE
5
209
100
AcDbEntity
8
0
100
AcDbSpline
70
4
71
3
72
8
73
4
74
0
42
0.000000001
43
0.0000000001
44
0.0000000001
40
0
40
0
40
0
40
0
40
1
40
1
40
1
40
1
41
1
41
1
41
1
41
1
10
84.956230458226827
20
-190.43700929972684
30
0
10
85.56428716811493
20
-190.43700929972684
30
0
10
86.056019751822106
20
-190.92873650478114
30
0
10
86.056019751822106
20
-191.53678783601634
30
0
0
SPLINE
5
210
100
AcDbEntity
8
0
100
AcDbSpline
70
4
71
3
72
8
73
4
74
0
42
0.000000001
43
0.0000000001
44
0.0000000001
40
0
40
0
40
0
40
0
40
1
40
1
40
1
40
1
41
1
41
1
41
1
41
1
10
123.0028228746859
20
-132.43389078100887
30
0
10
122.39653036294769
20
-132.43389078100887
30
0
10
121.90303627041703
20
-132.92562067538964
30
0
10
121.90303627041703
20
-133.53367469595128
30
0
0
SPLINE
5
211
100
AcDbEntity
8
0
100
AcDbSpline
70
4
71
3
72
8
73
4
74
0
42
0.000000001
43
0.0000000001
44
0.0000000001
40
0
40
0
40
0
40
0
40
1
40
1
40
1
40
1
41
1
41
1
41
1
41
1
10
78.688862744269159
20
-169.50406675467366
30
0
10
78.688862744269159
20
-170.11212346456176
30
0
10
79.180595327976349
20
-170.60385604826899
30
0
10
79.786887839714609
20
-170.60385604826899
30
0
0
LINE
5
212
100
AcDbEntity
8
0
100
AcDbLine
10
92.504922379671228
20
-174.46896677661047
30
0
11
140.41433245849575
21
-174.4689667766105
31
0
0
SPLINE
5
213
100
AcDbEntity
8
0
100
AcDbSpline
70
4
71
3
72
8
73
4
74
0
42
0.000000001
43
0.0000000001
44
0.0000000001
40
0
40
0
40
0
40
0
40
1
40
1
40
1
40
1
41
1
41
1
41
1
41
1
10
45.964955651059647
20
-129.78664960261406
30
0
10
45.964955651059647
20
-130.39294211435228
30
0
10
46.456682856113964
20
-130.88467200873305
30
0
10
47.062975367852182
20
-130.88467200873305
30
0
0
LINE
5
214
100
AcDbEntity
8
0
100
AcDbLine
10
140.91487594797815
20
-174.9695095937613
30
0
11
140.91663812913316
21
-193.67291983364626
31
0
0
SPLINE
5
215
100
AcDbEntity
8
0
100
AcDbSpline
70
4
71
3
72
8
73
4
74
0
42
0.000000001
43
0.0000000001
44
0.0000000001
40
0
40
0
40
0
40
0
40
1
40
1
40
1
40
1
41
1
41
1
41
1
41
1
10
33.324465149904015
20
-176.14860712430749
30
0
10
32.718172638165797
20
-176.14860712430749
30
0
10
32.226445433111479
20
-176.64033970801469
30
0
10
32.226445433111479
20
-177.2483910392499
30
0
0
SPLINE
5
216
100
AcDbEntity
8
0
100
AcDbSpline
70
4
71
3
72
8
73
4
74
0
42
0.000000001
43
0.0000000001
44
0.0000000001
40
0
40
0
40
0
40
0
40
1
40
1
40
1
40
1
41
1
41
1
41
1
41
1
10
28.578115931088703
20
-114.30152674043487
30
0
10
28.578115931088703
20
-114.57823557265714
30
0
10
28.356042110320345
20
-114.80206955758567
30
0
10
28.079331933434872
20
-114.80206955758567
30
0
0
SPLINE
5
217
100
AcDbEntity
8
0
100
AcDbSpline
70
4
71
3
72
8
73
4
74
0
42
0.000000001
43
0.0000000001
44
0.0000000001
40
0
40
0
40
0
40
0
40
1
40
1
40
1
40
1
41
1
41
1
41
1
41
1
10
92.073113367877895
20
-174.71923549585944
30
0
10
92.161237216925286
20
-174.56413666095159
30
0
10
92.326910483426587
20
-174.46896677661047
30
0
10
92.504922379671228
20
-174.46896677661047
30
0
0
LINE
5
218
100
AcDbEntity
8
0
100
AcDbLine
10
66.048377621766463
20
-110.05571899410711
30
0
11
48.062296804003886
21
-110.05571899410711
31
0
0
SPLINE
5
219
100
AcDbEntity
8
0
100
AcDbSpline
70
4
71
3
72
8
73
4
74
0
42
0.000000001
43
0.0000000001
44
0.0000000001
40
0
40
0
40
0
40
0
40
1
40
1
40
1
40
1
41
1
41
1
41
1
41
1
10
123.0028228746859
20
-134.63169710207026
30
0
10
123.60911538642412
20
-134.63169710207026
30
0
10
124.10260678962831
20
-134.13996720768949
30
0
10
124.10260678962831
20
-133.53367469595128
30
0
0
SPLINE
5
220
100
AcDbEntity
8
0
100
AcDbSpline
70
4
71
3
72
8
73
4
74
0
42
0.000000001
43
0.0000000001
44
0.0000000001
40
0
40
0
40
0
40
0
40
1
40
1
40
1
40
1
41
1
41
1
41
1
41
1
10
85.03377987568075
20
-110.05571899410711
30
0
10
84.757069698795277
20
-110.05571899410711
30
0
10
84.533237058529977
20
-109.83188500917856
30
0
10
84.533237058529977
20
-109.55517550462471
30
0
0
SPLINE
5
221
100
AcDbEntity
8
0
100
AcDbSpline
70
4
71
3
72
8
73
4
74
0
42
0.000000001
43
0.0000000001
44
0.0000000001
40
0
40
0
40
0
40
0
40
1
40
1
40
1
40
1
41
1
41
1
41
1
41
1
10
34.424249064846428
20
-177.2483910392499
30
0
10
34.424249064846428
20
-176.64033970801469
30
0
10
33.932521859792111
20
-176.14860712430749
30
0
10
33.324465149904015
20
-176.14860712430749
30
0
0
LINE
5
222
100
AcDbEntity
8
0
100
AcDbLine
10
140.98889965845876
20
-171.00570058477894
30
0
11
86.033106690485326
21
-171.00570058477894
31
0
0
SPLINE
5
223
100
AcDbEntity
8
0
100
AcDbSpline
70
4
71
3
72
8
73
4
74
0
42
0.000000001
43
0.0000000001
44
0.0000000001
40
0
40
0
40
0
40
0
40
1
40
1
40
1
40
1
41
1
41
1
41
1
41
1
10
123.00282287468588
20
-153.36682794740915
30
0
10
123.60911538642409
20
-153.36682794740915
30
0
10
124.10260678962828
20
-152.87509536370194
30
0
10
124.10260678962828
20
-152.2688028519637
30
0
0
SPLINE
5
224
100
AcDbEntity
8
0
100
AcDbSpline
70
4
71
3
72
8
73
4
74
0
42
0.000000001
43
0.0000000001
44
0.0000000001
40
0
40
0
40
0
40
0
40
1
40
1
40
1
40
1
41
1
41
1
41
1
41
1
10
33.324465149904015
20
-178.34641613469532
30
0
10
33.932521859792111
20
-178.34641613469532
30
0
10
34.424249064846428
20
-177.85468355098811
30
0
10
34.424249064846428
20
-177.2483910392499
30
0
0
SPLINE
5
225
100
AcDbEntity
8
0
100
AcDbSpline
70
4
71
3
72
8
73
4
74
0
42
0.000000001
43
0.0000000001
44
0.0000000001
40
0
40
0
40
0
40
0
40
1
40
1
40
1
40
1
41
1
41
1
41
1
41
1
10
141.48768096678617
20
-170.50691658712512
30
0
10
141.48768096678617
20
-170.78186256586071
30
0
10
141.263846309526
20
-171.00570058477894
30
0
10
140.98889965845876
20
-171.00570058477894
30
0
0
SPLINE
5
226
100
AcDbEntity
8
0
100
AcDbSpline
70
4
71
3
72
8
73
4
74
0
42
0.000000001
43
0.0000000001
44
0.0000000001
40
0
40
0
40
0
40
0
40
1
40
1
40
1
40
1
41
1
41
1
41
1
41
1
10
47.563523563655892
20
-110.55450030243446
30
0
10
47.563523563655892
20
-110.27955365136725
30
0
10
47.787350825268291
20
-110.0557189941071
30
0
10
48.062296804003886
20
-110.0557189941071
30
0
0
SPLINE
5
227
100
AcDbEntity
8
0
100
AcDbSpline
70
4
71
3
72
8
73
4
74
0
42
0.000000001
43
0.0000000001
44
0.0000000001
40
0
40
0
40
0
40
0
40
1
40
1
40
1
40
1
41
1
41
1
41
1
41
1
10
48.162759282794596
20
-129.78664960261406
30
0
10
48.162759282794596
20
-129.1785955820524
30
0
10
47.671032077740279
20
-128.68686299834519
30
0
10
47.062975367852182
20
-128.68686299834519
30
0
0
SPLINE
5
228
100
AcDbEntity
8
0
100
AcDbSpline
70
4
71
3
72
8
73
4
74
0
42
0.000000001
43
0.0000000001
44
0.0000000001
40
0
40
0
40
0
40
0
40
1
40
1
40
1
40
1
41
1
41
1
41
1
41
1
10
81.711509690863835
20
-194.17169307399428
30
0
10
81.327290999893904
20
-194.17169307399428
30
0
10
81.085832514088565
20
-193.75575108824398
30
0
10
81.277941859573488
20
-193.4226403570915
30
0
0
LINE
5
229
100
AcDbEntity
8
0
100
AcDbLine
10
7.8460983436169229
20
-174.72805110795591
30
0
11
7.8460983436169585
21
-115.30085086591302
31
0
0
SPLINE
5
230
100
AcDbEntity
8
0
100
AcDbSpline
70
4
71
3
72
8
73
4
74
0
42
0.000000001
43
0.0000000001
44
0.0000000001
40
0
40
0
40
0
40
0
40
1
40
1
40
1
40
1
41
1
41
1
41
1
41
1
10
140.91663812913316
20
-193.67291983364626
30
0
10
140.91663812913316
20
-193.94961925322593
30
0
10
140.69280347187305
20
-194.17169307399428
30
0
10
140.41785749313743
20
-194.17169307399428
30
0
0
SPLINE
5
231
100
AcDbEntity
8
0
100
AcDbSpline
70
4
71
3
72
8
73
4
74
0
42
0.000000001
43
0.0000000001
44
0.0000000001
40
0
40
0
40
0
40
0
40
1
40
1
40
1
40
1
41
1
41
1
41
1
41
1
10
84.034458439529061
20
-107.80679866224381
30
0
10
84.309404418264677
20
-107.80679866224381
30
0
10
84.533237058529977
20
-108.03063331950396
30
0
10
84.533237058529977
20
-108.30557929823955
30
0
0
LINE
5
232
100
AcDbEntity
8
0
100
AcDbLine
10
47.563523563655892
20
-112.05260573623997
30
0
11
47.563523563655892
21
-110.55450030243446
31
0
0
LINE
5
233
100
AcDbEntity
8
0
100
AcDbLine
10
8.344882341270754
20
-114.80206955758567
30
0
11
28.079331933434872
21
-114.80206955758567
31
0
0
SPLINE
5
234
100
AcDbEntity
8
0
100
AcDbSpline
70
4
71
3
72
8
73
4
74
0
42
0.000000001
43
0.0000000001
44
0.0000000001
40
0
40
0
40
0
40
0
40
1
40
1
40
1
40
1
41
1
41
1
41
1
41
1
10
86.056019751822106
20
-191.53678783601634
30
0
10
86.056019751822106
20
-192.14308034775456
30
0
10
85.56428716811493
20
-192.63481831011467
30
0
10
84.956230458226827
20
-192.63481831011467
30
0
0
SPLINE
5
235
100
AcDbEntity
8
0
100
AcDbSpline
70
4
71
3
72
8
73
4
74
0
42
0.000000001
43
0.0000000001
44
0.0000000001
40
0
40
0
40
0
40
0
40
1
40
1
40
1
40
1
41
1
41
1
41
1
41
1
10
75.144524117336786
20
-185.59724363741449
30
0
10
75.051113052492695
20
-185.69241890040848
30
0
10
74.924214494718342
20
-185.74353223887874
30
0
10
74.792028721147261
20
-185.74353223887874
30
0
0
SPLINE
5
236
100
AcDbEntity
8
0
100
AcDbSpline
70
4
71
3
72
8
73
4
74
0
42
0.000000001
43
0.0000000001
44
0.0000000001
40
0
40
0
40
0
40
0
40
1
40
1
40
1
40
1
41
1
41
1
41
1
41
1
10
79.786887839714609
20
-168.40604703788114
30
0
10
79.180595327976349
20
-168.40604703788114
30
0
10
78.688862744269159
20
-168.89777424293541
30
0
10
78.688862744269159
20
-169.50406675467366
30
0
0
SPLINE
5
237
100
AcDbEntity
8
0
100
AcDbSpline
70
4
71
3
72
8
73
4
74
0
42
0.000000001
43
0.0000000001
44
0.0000000001
40
0
40
0
40
0
40
0
40
1
40
1
40
1
40
1
41
1
41
1
41
1
41
1
10
21.290277917792437
20
-198.51973153125229
30
0
10
21.288513719642559
20
-198.5179673331024
30
0
10
21.288513719642559
20
-198.5179673331024
30
0
10
21.286749521492681
20
-198.51620313495255
30
0
0
SPLINE
5
238
100
AcDbEntity
8
0
100
AcDbSpline
70
4
71
3
72
8
73
4
74
0
42
0.000000001
43
0.0000000001
44
0.0000000001
40
0
40
0
40
0
40
0
40
1
40
1
40
1
40
1
41
1
41
1
41
1
41
1
10
104.01742062077162
20
-114.80206955758568
30
0
10
103.74247464203603
20
-114.80206955758568
30
0
10
103.51863931244424
20
-114.57823557265715
30
0
10
103.51863931244424
20
-114.30152674043489
30
0
0
SPLINE
5
239
100
AcDbEntity
8
0
100
AcDbSpline
70
4
71
3
72
8
73
4
74
0
42
0.000000001
43
0.0000000001
44
0.0000000001
40
0
40
0
40
0
40
0
40
1
40
1
40
1
40
1
41
1
41
1
41
1
41
1
10
79.786887839714609
20
-170.60385604826899
30
0
10
80.394939170949797
20
-170.60385604826899
30
0
10
80.886671754657016
20
-170.11212346456176
30
0
10
80.886671754657016
20
-169.50406675467366
30
0
0
SPLINE
5
240
100
AcDbEntity
8
0
100
AcDbSpline
70
4
71
3
72
8
73
4
74
0
42
0.000000001
43
0.0000000001
44
0.0000000001
40
0
40
0
40
0
40
0
40
1
40
1
40
1
40
1
41
1
41
1
41
1
41
1
10
140.41433245849575
20
-174.4689667766105
30
0
10
140.691041290718
20
-174.4689667766105
30
0
10
140.91487594797815
20
-174.6927994168758
30
0
10
140.91487594797815
20
-174.9695095937613
30
0
0
SPLINE
5
241
100
AcDbEntity
8
0
100
AcDbSpline
70
4
71
3
72
8
73
4
74
0
42
0.000000001
43
0.0000000001
44
0.0000000001
40
0.0062156130045669233
40
0.0062156130045669233
40
0.0062156130045669233
40
0.0062156130045669233
40
1
40
1
40
1
40
1
41
1
41
1
41
1
41
1
10
85.680592995340206
20
-171.1502466879852
30
0
10
85.773857732895635
20
-171.05791751965563
30
0
10
85.901742532527479
20
-171.00570058477894
30
0
10
86.033106690485326
20
-171.00570058477894
30
0
0
LINE
5
242
100
AcDbEntity
8
0
100
AcDbLine
10
29.078664126892377
20
-112.55314855339074
30
0
11
47.062975367852182
21
-112.55314855339077
31
0
0
SPLINE
5
243
100
AcDbEntity
8
0
100
AcDbSpline
70
4
71
3
72
8
73
4
74
0
42
0.000000001
43
0.0000000001
44
0.0000000001
40
0
40
0
40
0
40
0
40
1
40
1
40
1
40
1
41
1
41
1
41
1
41
1
10
123.00282287468588
20
-151.16901893702129
30
0
10
122.39653036294766
20
-151.16901893702129
30
0
10
121.903036270417
20
-151.6607515207285
30
0
10
121.903036270417
20
-152.2688028519637
30
0
0
SPLINE
5
244
100
AcDbEntity
8
0
100
AcDbSpline
70
4
71
3
72
8
73
4
74
0
42
0.000000001
43
0.0000000001
44
0.0000000001
40
0
40
0
40
0
40
0
40
1
40
1
40
1
40
1
41
1
41
1
41
1
41
1
10
92.370972407950262
20
-177.11620526567884
30
0
10
92.370972407950262
20
-176.50815393444361
30
0
10
92.864463811154465
20
-176.01642135073638
30
0
10
93.470756322892726
20
-176.01642135073638
30
0
0
LINE
5
245
100
AcDbEntity
8
0
100
AcDbLine
10
84.533237058529977
20
-108.30557929823955
30
0
11
84.533237058529977
21
-109.55517550462471
31
0
0
ENDSEC
0
SECTION
2
OBJECTS
0
DICTIONARY
5
C
100
AcDbDictionary
3
ACAD_GROUP
350
D
3
ACAD_MLINESTYLE
350
17
0
DICTIONARY
5
D
100
AcDbDictionary
0
DICTIONARY
5
1A
330
C
100
AcDbDictionary
0
DICTIONARY
5
17
100
AcDbDictionary
0
ENDSEC
0
EOF
